%TF.GenerationSoftware,KiCad,Pcbnew,8.0.0*%
%TF.CreationDate,2025-02-07T11:41:03-03:30*%
%TF.ProjectId,H_Bridges,485f4272-6964-4676-9573-2e6b69636164,rev?*%
%TF.SameCoordinates,Original*%
%TF.FileFunction,Legend,Top*%
%TF.FilePolarity,Positive*%
%FSLAX46Y46*%
G04 Gerber Fmt 4.6, Leading zero omitted, Abs format (unit mm)*
G04 Created by KiCad (PCBNEW 8.0.0) date 2025-02-07 11:41:03*
%MOMM*%
%LPD*%
G01*
G04 APERTURE LIST*
%ADD10C,0.100000*%
%ADD11C,0.150000*%
%ADD12C,0.254000*%
%ADD13C,0.098425*%
%ADD14C,0.120000*%
%ADD15C,0.152400*%
%ADD16C,0.000000*%
%ADD17C,0.200000*%
%ADD18C,0.127000*%
%ADD19C,0.508000*%
G04 APERTURE END LIST*
D10*
X188476760Y-107947618D02*
X188476760Y-107471428D01*
X188762475Y-108042856D02*
X187762475Y-107709523D01*
X187762475Y-107709523D02*
X188762475Y-107376190D01*
X187762475Y-107042856D02*
X188571998Y-107042856D01*
X188571998Y-107042856D02*
X188667236Y-106995237D01*
X188667236Y-106995237D02*
X188714856Y-106947618D01*
X188714856Y-106947618D02*
X188762475Y-106852380D01*
X188762475Y-106852380D02*
X188762475Y-106661904D01*
X188762475Y-106661904D02*
X188714856Y-106566666D01*
X188714856Y-106566666D02*
X188667236Y-106519047D01*
X188667236Y-106519047D02*
X188571998Y-106471428D01*
X188571998Y-106471428D02*
X187762475Y-106471428D01*
X187762475Y-106138094D02*
X187762475Y-105566666D01*
X188762475Y-105852380D02*
X187762475Y-105852380D01*
X187762475Y-105042856D02*
X187762475Y-104852380D01*
X187762475Y-104852380D02*
X187810094Y-104757142D01*
X187810094Y-104757142D02*
X187905332Y-104661904D01*
X187905332Y-104661904D02*
X188095808Y-104614285D01*
X188095808Y-104614285D02*
X188429141Y-104614285D01*
X188429141Y-104614285D02*
X188619617Y-104661904D01*
X188619617Y-104661904D02*
X188714856Y-104757142D01*
X188714856Y-104757142D02*
X188762475Y-104852380D01*
X188762475Y-104852380D02*
X188762475Y-105042856D01*
X188762475Y-105042856D02*
X188714856Y-105138094D01*
X188714856Y-105138094D02*
X188619617Y-105233332D01*
X188619617Y-105233332D02*
X188429141Y-105280951D01*
X188429141Y-105280951D02*
X188095808Y-105280951D01*
X188095808Y-105280951D02*
X187905332Y-105233332D01*
X187905332Y-105233332D02*
X187810094Y-105138094D01*
X187810094Y-105138094D02*
X187762475Y-105042856D01*
X188381522Y-104185713D02*
X188381522Y-103423809D01*
X188762475Y-102947618D02*
X187762475Y-102947618D01*
X188762475Y-102471428D02*
X187762475Y-102471428D01*
X187762475Y-102471428D02*
X188762475Y-101900000D01*
X188762475Y-101900000D02*
X187762475Y-101900000D01*
X187762475Y-101138095D02*
X188476760Y-101138095D01*
X188476760Y-101138095D02*
X188619617Y-101185714D01*
X188619617Y-101185714D02*
X188714856Y-101280952D01*
X188714856Y-101280952D02*
X188762475Y-101423809D01*
X188762475Y-101423809D02*
X188762475Y-101519047D01*
X188238665Y-100661904D02*
X188238665Y-100328571D01*
X188762475Y-100185714D02*
X188762475Y-100661904D01*
X188762475Y-100661904D02*
X187762475Y-100661904D01*
X187762475Y-100661904D02*
X187762475Y-100185714D01*
X188667236Y-99185714D02*
X188714856Y-99233333D01*
X188714856Y-99233333D02*
X188762475Y-99376190D01*
X188762475Y-99376190D02*
X188762475Y-99471428D01*
X188762475Y-99471428D02*
X188714856Y-99614285D01*
X188714856Y-99614285D02*
X188619617Y-99709523D01*
X188619617Y-99709523D02*
X188524379Y-99757142D01*
X188524379Y-99757142D02*
X188333903Y-99804761D01*
X188333903Y-99804761D02*
X188191046Y-99804761D01*
X188191046Y-99804761D02*
X188000570Y-99757142D01*
X188000570Y-99757142D02*
X187905332Y-99709523D01*
X187905332Y-99709523D02*
X187810094Y-99614285D01*
X187810094Y-99614285D02*
X187762475Y-99471428D01*
X187762475Y-99471428D02*
X187762475Y-99376190D01*
X187762475Y-99376190D02*
X187810094Y-99233333D01*
X187810094Y-99233333D02*
X187857713Y-99185714D01*
X187762475Y-98899999D02*
X187762475Y-98328571D01*
X188762475Y-98614285D02*
X187762475Y-98614285D01*
X188762475Y-97995237D02*
X187762475Y-97995237D01*
X187762475Y-97328571D02*
X187762475Y-97138095D01*
X187762475Y-97138095D02*
X187810094Y-97042857D01*
X187810094Y-97042857D02*
X187905332Y-96947619D01*
X187905332Y-96947619D02*
X188095808Y-96900000D01*
X188095808Y-96900000D02*
X188429141Y-96900000D01*
X188429141Y-96900000D02*
X188619617Y-96947619D01*
X188619617Y-96947619D02*
X188714856Y-97042857D01*
X188714856Y-97042857D02*
X188762475Y-97138095D01*
X188762475Y-97138095D02*
X188762475Y-97328571D01*
X188762475Y-97328571D02*
X188714856Y-97423809D01*
X188714856Y-97423809D02*
X188619617Y-97519047D01*
X188619617Y-97519047D02*
X188429141Y-97566666D01*
X188429141Y-97566666D02*
X188095808Y-97566666D01*
X188095808Y-97566666D02*
X187905332Y-97519047D01*
X187905332Y-97519047D02*
X187810094Y-97423809D01*
X187810094Y-97423809D02*
X187762475Y-97328571D01*
X188762475Y-96471428D02*
X187762475Y-96471428D01*
X187762475Y-96471428D02*
X188762475Y-95900000D01*
X188762475Y-95900000D02*
X187762475Y-95900000D01*
X190324800Y-110852380D02*
X190372419Y-110709523D01*
X190372419Y-110709523D02*
X190372419Y-110471428D01*
X190372419Y-110471428D02*
X190324800Y-110376190D01*
X190324800Y-110376190D02*
X190277180Y-110328571D01*
X190277180Y-110328571D02*
X190181942Y-110280952D01*
X190181942Y-110280952D02*
X190086704Y-110280952D01*
X190086704Y-110280952D02*
X189991466Y-110328571D01*
X189991466Y-110328571D02*
X189943847Y-110376190D01*
X189943847Y-110376190D02*
X189896228Y-110471428D01*
X189896228Y-110471428D02*
X189848609Y-110661904D01*
X189848609Y-110661904D02*
X189800990Y-110757142D01*
X189800990Y-110757142D02*
X189753371Y-110804761D01*
X189753371Y-110804761D02*
X189658133Y-110852380D01*
X189658133Y-110852380D02*
X189562895Y-110852380D01*
X189562895Y-110852380D02*
X189467657Y-110804761D01*
X189467657Y-110804761D02*
X189420038Y-110757142D01*
X189420038Y-110757142D02*
X189372419Y-110661904D01*
X189372419Y-110661904D02*
X189372419Y-110423809D01*
X189372419Y-110423809D02*
X189420038Y-110280952D01*
X189372419Y-109995237D02*
X189372419Y-109423809D01*
X190372419Y-109709523D02*
X189372419Y-109709523D01*
X189848609Y-109090475D02*
X189848609Y-108757142D01*
X190372419Y-108614285D02*
X190372419Y-109090475D01*
X190372419Y-109090475D02*
X189372419Y-109090475D01*
X189372419Y-109090475D02*
X189372419Y-108614285D01*
X190372419Y-108185713D02*
X189372419Y-108185713D01*
X189372419Y-108185713D02*
X189372419Y-107804761D01*
X189372419Y-107804761D02*
X189420038Y-107709523D01*
X189420038Y-107709523D02*
X189467657Y-107661904D01*
X189467657Y-107661904D02*
X189562895Y-107614285D01*
X189562895Y-107614285D02*
X189705752Y-107614285D01*
X189705752Y-107614285D02*
X189800990Y-107661904D01*
X189800990Y-107661904D02*
X189848609Y-107709523D01*
X189848609Y-107709523D02*
X189896228Y-107804761D01*
X189896228Y-107804761D02*
X189896228Y-108185713D01*
X190372419Y-107185713D02*
X189372419Y-107185713D01*
X189372419Y-107185713D02*
X189372419Y-106804761D01*
X189372419Y-106804761D02*
X189420038Y-106709523D01*
X189420038Y-106709523D02*
X189467657Y-106661904D01*
X189467657Y-106661904D02*
X189562895Y-106614285D01*
X189562895Y-106614285D02*
X189705752Y-106614285D01*
X189705752Y-106614285D02*
X189800990Y-106661904D01*
X189800990Y-106661904D02*
X189848609Y-106709523D01*
X189848609Y-106709523D02*
X189896228Y-106804761D01*
X189896228Y-106804761D02*
X189896228Y-107185713D01*
X189848609Y-106185713D02*
X189848609Y-105852380D01*
X190372419Y-105709523D02*
X190372419Y-106185713D01*
X190372419Y-106185713D02*
X189372419Y-106185713D01*
X189372419Y-106185713D02*
X189372419Y-105709523D01*
X190372419Y-104709523D02*
X189896228Y-105042856D01*
X190372419Y-105280951D02*
X189372419Y-105280951D01*
X189372419Y-105280951D02*
X189372419Y-104899999D01*
X189372419Y-104899999D02*
X189420038Y-104804761D01*
X189420038Y-104804761D02*
X189467657Y-104757142D01*
X189467657Y-104757142D02*
X189562895Y-104709523D01*
X189562895Y-104709523D02*
X189705752Y-104709523D01*
X189705752Y-104709523D02*
X189800990Y-104757142D01*
X189800990Y-104757142D02*
X189848609Y-104804761D01*
X189848609Y-104804761D02*
X189896228Y-104899999D01*
X189896228Y-104899999D02*
X189896228Y-105280951D01*
X190372419Y-103519046D02*
X189372419Y-103519046D01*
X189372419Y-103519046D02*
X190086704Y-103185713D01*
X190086704Y-103185713D02*
X189372419Y-102852380D01*
X189372419Y-102852380D02*
X190372419Y-102852380D01*
X189372419Y-102185713D02*
X189372419Y-101995237D01*
X189372419Y-101995237D02*
X189420038Y-101899999D01*
X189420038Y-101899999D02*
X189515276Y-101804761D01*
X189515276Y-101804761D02*
X189705752Y-101757142D01*
X189705752Y-101757142D02*
X190039085Y-101757142D01*
X190039085Y-101757142D02*
X190229561Y-101804761D01*
X190229561Y-101804761D02*
X190324800Y-101899999D01*
X190324800Y-101899999D02*
X190372419Y-101995237D01*
X190372419Y-101995237D02*
X190372419Y-102185713D01*
X190372419Y-102185713D02*
X190324800Y-102280951D01*
X190324800Y-102280951D02*
X190229561Y-102376189D01*
X190229561Y-102376189D02*
X190039085Y-102423808D01*
X190039085Y-102423808D02*
X189705752Y-102423808D01*
X189705752Y-102423808D02*
X189515276Y-102376189D01*
X189515276Y-102376189D02*
X189420038Y-102280951D01*
X189420038Y-102280951D02*
X189372419Y-102185713D01*
X189372419Y-101471427D02*
X189372419Y-100899999D01*
X190372419Y-101185713D02*
X189372419Y-101185713D01*
X189372419Y-100376189D02*
X189372419Y-100185713D01*
X189372419Y-100185713D02*
X189420038Y-100090475D01*
X189420038Y-100090475D02*
X189515276Y-99995237D01*
X189515276Y-99995237D02*
X189705752Y-99947618D01*
X189705752Y-99947618D02*
X190039085Y-99947618D01*
X190039085Y-99947618D02*
X190229561Y-99995237D01*
X190229561Y-99995237D02*
X190324800Y-100090475D01*
X190324800Y-100090475D02*
X190372419Y-100185713D01*
X190372419Y-100185713D02*
X190372419Y-100376189D01*
X190372419Y-100376189D02*
X190324800Y-100471427D01*
X190324800Y-100471427D02*
X190229561Y-100566665D01*
X190229561Y-100566665D02*
X190039085Y-100614284D01*
X190039085Y-100614284D02*
X189705752Y-100614284D01*
X189705752Y-100614284D02*
X189515276Y-100566665D01*
X189515276Y-100566665D02*
X189420038Y-100471427D01*
X189420038Y-100471427D02*
X189372419Y-100376189D01*
X190372419Y-98947618D02*
X189896228Y-99280951D01*
X190372419Y-99519046D02*
X189372419Y-99519046D01*
X189372419Y-99519046D02*
X189372419Y-99138094D01*
X189372419Y-99138094D02*
X189420038Y-99042856D01*
X189420038Y-99042856D02*
X189467657Y-98995237D01*
X189467657Y-98995237D02*
X189562895Y-98947618D01*
X189562895Y-98947618D02*
X189705752Y-98947618D01*
X189705752Y-98947618D02*
X189800990Y-98995237D01*
X189800990Y-98995237D02*
X189848609Y-99042856D01*
X189848609Y-99042856D02*
X189896228Y-99138094D01*
X189896228Y-99138094D02*
X189896228Y-99519046D01*
X190372419Y-97757141D02*
X189372419Y-97757141D01*
X189372419Y-97757141D02*
X189372419Y-97519046D01*
X189372419Y-97519046D02*
X189420038Y-97376189D01*
X189420038Y-97376189D02*
X189515276Y-97280951D01*
X189515276Y-97280951D02*
X189610514Y-97233332D01*
X189610514Y-97233332D02*
X189800990Y-97185713D01*
X189800990Y-97185713D02*
X189943847Y-97185713D01*
X189943847Y-97185713D02*
X190134323Y-97233332D01*
X190134323Y-97233332D02*
X190229561Y-97280951D01*
X190229561Y-97280951D02*
X190324800Y-97376189D01*
X190324800Y-97376189D02*
X190372419Y-97519046D01*
X190372419Y-97519046D02*
X190372419Y-97757141D01*
X190372419Y-96185713D02*
X189896228Y-96519046D01*
X190372419Y-96757141D02*
X189372419Y-96757141D01*
X189372419Y-96757141D02*
X189372419Y-96376189D01*
X189372419Y-96376189D02*
X189420038Y-96280951D01*
X189420038Y-96280951D02*
X189467657Y-96233332D01*
X189467657Y-96233332D02*
X189562895Y-96185713D01*
X189562895Y-96185713D02*
X189705752Y-96185713D01*
X189705752Y-96185713D02*
X189800990Y-96233332D01*
X189800990Y-96233332D02*
X189848609Y-96280951D01*
X189848609Y-96280951D02*
X189896228Y-96376189D01*
X189896228Y-96376189D02*
X189896228Y-96757141D01*
X190372419Y-95757141D02*
X189372419Y-95757141D01*
X189372419Y-95423808D02*
X190372419Y-95090475D01*
X190372419Y-95090475D02*
X189372419Y-94757142D01*
X189848609Y-94423808D02*
X189848609Y-94090475D01*
X190372419Y-93947618D02*
X190372419Y-94423808D01*
X190372419Y-94423808D02*
X189372419Y-94423808D01*
X189372419Y-94423808D02*
X189372419Y-93947618D01*
X190372419Y-92947618D02*
X189896228Y-93280951D01*
X190372419Y-93519046D02*
X189372419Y-93519046D01*
X189372419Y-93519046D02*
X189372419Y-93138094D01*
X189372419Y-93138094D02*
X189420038Y-93042856D01*
X189420038Y-93042856D02*
X189467657Y-92995237D01*
X189467657Y-92995237D02*
X189562895Y-92947618D01*
X189562895Y-92947618D02*
X189705752Y-92947618D01*
X189705752Y-92947618D02*
X189800990Y-92995237D01*
X189800990Y-92995237D02*
X189848609Y-93042856D01*
X189848609Y-93042856D02*
X189896228Y-93138094D01*
X189896228Y-93138094D02*
X189896228Y-93519046D01*
X123303884Y-100672419D02*
X123303884Y-99672419D01*
X123303884Y-99672419D02*
X123637217Y-100386704D01*
X123637217Y-100386704D02*
X123970550Y-99672419D01*
X123970550Y-99672419D02*
X123970550Y-100672419D01*
X124446741Y-100672419D02*
X124446741Y-99672419D01*
X124446741Y-99672419D02*
X124827693Y-99672419D01*
X124827693Y-99672419D02*
X124922931Y-99720038D01*
X124922931Y-99720038D02*
X124970550Y-99767657D01*
X124970550Y-99767657D02*
X125018169Y-99862895D01*
X125018169Y-99862895D02*
X125018169Y-100005752D01*
X125018169Y-100005752D02*
X124970550Y-100100990D01*
X124970550Y-100100990D02*
X124922931Y-100148609D01*
X124922931Y-100148609D02*
X124827693Y-100196228D01*
X124827693Y-100196228D02*
X124446741Y-100196228D01*
X125351503Y-99672419D02*
X125970550Y-99672419D01*
X125970550Y-99672419D02*
X125637217Y-100053371D01*
X125637217Y-100053371D02*
X125780074Y-100053371D01*
X125780074Y-100053371D02*
X125875312Y-100100990D01*
X125875312Y-100100990D02*
X125922931Y-100148609D01*
X125922931Y-100148609D02*
X125970550Y-100243847D01*
X125970550Y-100243847D02*
X125970550Y-100481942D01*
X125970550Y-100481942D02*
X125922931Y-100577180D01*
X125922931Y-100577180D02*
X125875312Y-100624800D01*
X125875312Y-100624800D02*
X125780074Y-100672419D01*
X125780074Y-100672419D02*
X125494360Y-100672419D01*
X125494360Y-100672419D02*
X125399122Y-100624800D01*
X125399122Y-100624800D02*
X125351503Y-100577180D01*
D11*
X165665569Y-73507416D02*
X165189378Y-73840749D01*
X165665569Y-74078844D02*
X164665569Y-74078844D01*
X164665569Y-74078844D02*
X164665569Y-73697892D01*
X164665569Y-73697892D02*
X164713188Y-73602654D01*
X164713188Y-73602654D02*
X164760807Y-73555035D01*
X164760807Y-73555035D02*
X164856045Y-73507416D01*
X164856045Y-73507416D02*
X164998902Y-73507416D01*
X164998902Y-73507416D02*
X165094140Y-73555035D01*
X165094140Y-73555035D02*
X165141759Y-73602654D01*
X165141759Y-73602654D02*
X165189378Y-73697892D01*
X165189378Y-73697892D02*
X165189378Y-74078844D01*
X165665569Y-72555035D02*
X165665569Y-73126463D01*
X165665569Y-72840749D02*
X164665569Y-72840749D01*
X164665569Y-72840749D02*
X164808426Y-72935987D01*
X164808426Y-72935987D02*
X164903664Y-73031225D01*
X164903664Y-73031225D02*
X164951283Y-73126463D01*
X154045511Y-61853107D02*
X153950273Y-61805488D01*
X153950273Y-61805488D02*
X153855035Y-61710250D01*
X153855035Y-61710250D02*
X153712178Y-61567392D01*
X153712178Y-61567392D02*
X153616940Y-61519773D01*
X153616940Y-61519773D02*
X153521702Y-61519773D01*
X153569321Y-61757869D02*
X153474083Y-61710250D01*
X153474083Y-61710250D02*
X153378845Y-61615011D01*
X153378845Y-61615011D02*
X153331226Y-61424535D01*
X153331226Y-61424535D02*
X153331226Y-61091202D01*
X153331226Y-61091202D02*
X153378845Y-60900726D01*
X153378845Y-60900726D02*
X153474083Y-60805488D01*
X153474083Y-60805488D02*
X153569321Y-60757869D01*
X153569321Y-60757869D02*
X153759797Y-60757869D01*
X153759797Y-60757869D02*
X153855035Y-60805488D01*
X153855035Y-60805488D02*
X153950273Y-60900726D01*
X153950273Y-60900726D02*
X153997892Y-61091202D01*
X153997892Y-61091202D02*
X153997892Y-61424535D01*
X153997892Y-61424535D02*
X153950273Y-61615011D01*
X153950273Y-61615011D02*
X153855035Y-61710250D01*
X153855035Y-61710250D02*
X153759797Y-61757869D01*
X153759797Y-61757869D02*
X153569321Y-61757869D01*
X154331226Y-60757869D02*
X154950273Y-60757869D01*
X154950273Y-60757869D02*
X154616940Y-61138821D01*
X154616940Y-61138821D02*
X154759797Y-61138821D01*
X154759797Y-61138821D02*
X154855035Y-61186440D01*
X154855035Y-61186440D02*
X154902654Y-61234059D01*
X154902654Y-61234059D02*
X154950273Y-61329297D01*
X154950273Y-61329297D02*
X154950273Y-61567392D01*
X154950273Y-61567392D02*
X154902654Y-61662630D01*
X154902654Y-61662630D02*
X154855035Y-61710250D01*
X154855035Y-61710250D02*
X154759797Y-61757869D01*
X154759797Y-61757869D02*
X154474083Y-61757869D01*
X154474083Y-61757869D02*
X154378845Y-61710250D01*
X154378845Y-61710250D02*
X154331226Y-61662630D01*
X150330750Y-68631869D02*
X150330750Y-68869964D01*
X150092655Y-68774726D02*
X150330750Y-68869964D01*
X150330750Y-68869964D02*
X150568845Y-68774726D01*
X150187893Y-69060440D02*
X150330750Y-68869964D01*
X150330750Y-68869964D02*
X150473607Y-69060440D01*
X150330750Y-68631869D02*
X150330750Y-68869964D01*
X150092655Y-68774726D02*
X150330750Y-68869964D01*
X150330750Y-68869964D02*
X150568845Y-68774726D01*
X150187893Y-69060440D02*
X150330750Y-68869964D01*
X150330750Y-68869964D02*
X150473607Y-69060440D01*
X123426995Y-75354819D02*
X123426995Y-76164342D01*
X123426995Y-76164342D02*
X123474614Y-76259580D01*
X123474614Y-76259580D02*
X123522233Y-76307200D01*
X123522233Y-76307200D02*
X123617471Y-76354819D01*
X123617471Y-76354819D02*
X123807947Y-76354819D01*
X123807947Y-76354819D02*
X123903185Y-76307200D01*
X123903185Y-76307200D02*
X123950804Y-76259580D01*
X123950804Y-76259580D02*
X123998423Y-76164342D01*
X123998423Y-76164342D02*
X123998423Y-75354819D01*
X124426995Y-75450057D02*
X124474614Y-75402438D01*
X124474614Y-75402438D02*
X124569852Y-75354819D01*
X124569852Y-75354819D02*
X124807947Y-75354819D01*
X124807947Y-75354819D02*
X124903185Y-75402438D01*
X124903185Y-75402438D02*
X124950804Y-75450057D01*
X124950804Y-75450057D02*
X124998423Y-75545295D01*
X124998423Y-75545295D02*
X124998423Y-75640533D01*
X124998423Y-75640533D02*
X124950804Y-75783390D01*
X124950804Y-75783390D02*
X124379376Y-76354819D01*
X124379376Y-76354819D02*
X124998423Y-76354819D01*
X126646349Y-81467580D02*
X126646349Y-81229485D01*
X126884444Y-81324723D02*
X126646349Y-81229485D01*
X126646349Y-81229485D02*
X126408254Y-81324723D01*
X126789206Y-81039009D02*
X126646349Y-81229485D01*
X126646349Y-81229485D02*
X126503492Y-81039009D01*
X126646349Y-81467580D02*
X126646349Y-81229485D01*
X126884444Y-81324723D02*
X126646349Y-81229485D01*
X126646349Y-81229485D02*
X126408254Y-81324723D01*
X126789206Y-81039009D02*
X126646349Y-81229485D01*
X126646349Y-81229485D02*
X126503492Y-81039009D01*
X186538095Y-120654819D02*
X186538095Y-119654819D01*
X186538095Y-120131009D02*
X187109523Y-120131009D01*
X187109523Y-120654819D02*
X187109523Y-119654819D01*
X188014285Y-119988152D02*
X188014285Y-120654819D01*
X187776190Y-119607200D02*
X187538095Y-120321485D01*
X187538095Y-120321485D02*
X188157142Y-120321485D01*
D12*
X129635270Y-71345952D02*
X129574794Y-71466904D01*
X129574794Y-71466904D02*
X129453842Y-71587857D01*
X129453842Y-71587857D02*
X129272413Y-71769285D01*
X129272413Y-71769285D02*
X129211937Y-71890238D01*
X129211937Y-71890238D02*
X129211937Y-72011190D01*
X129514318Y-71950714D02*
X129453842Y-72071666D01*
X129453842Y-72071666D02*
X129332889Y-72192619D01*
X129332889Y-72192619D02*
X129090984Y-72253095D01*
X129090984Y-72253095D02*
X128667651Y-72253095D01*
X128667651Y-72253095D02*
X128425746Y-72192619D01*
X128425746Y-72192619D02*
X128304794Y-72071666D01*
X128304794Y-72071666D02*
X128244318Y-71950714D01*
X128244318Y-71950714D02*
X128244318Y-71708809D01*
X128244318Y-71708809D02*
X128304794Y-71587857D01*
X128304794Y-71587857D02*
X128425746Y-71466904D01*
X128425746Y-71466904D02*
X128667651Y-71406428D01*
X128667651Y-71406428D02*
X129090984Y-71406428D01*
X129090984Y-71406428D02*
X129332889Y-71466904D01*
X129332889Y-71466904D02*
X129453842Y-71587857D01*
X129453842Y-71587857D02*
X129514318Y-71708809D01*
X129514318Y-71708809D02*
X129514318Y-71950714D01*
X129514318Y-70801666D02*
X129514318Y-70559762D01*
X129514318Y-70559762D02*
X129453842Y-70438809D01*
X129453842Y-70438809D02*
X129393365Y-70378333D01*
X129393365Y-70378333D02*
X129211937Y-70257381D01*
X129211937Y-70257381D02*
X128970032Y-70196904D01*
X128970032Y-70196904D02*
X128486222Y-70196904D01*
X128486222Y-70196904D02*
X128365270Y-70257381D01*
X128365270Y-70257381D02*
X128304794Y-70317857D01*
X128304794Y-70317857D02*
X128244318Y-70438809D01*
X128244318Y-70438809D02*
X128244318Y-70680714D01*
X128244318Y-70680714D02*
X128304794Y-70801666D01*
X128304794Y-70801666D02*
X128365270Y-70862143D01*
X128365270Y-70862143D02*
X128486222Y-70922619D01*
X128486222Y-70922619D02*
X128788603Y-70922619D01*
X128788603Y-70922619D02*
X128909556Y-70862143D01*
X128909556Y-70862143D02*
X128970032Y-70801666D01*
X128970032Y-70801666D02*
X129030508Y-70680714D01*
X129030508Y-70680714D02*
X129030508Y-70438809D01*
X129030508Y-70438809D02*
X128970032Y-70317857D01*
X128970032Y-70317857D02*
X128909556Y-70257381D01*
X128909556Y-70257381D02*
X128788603Y-70196904D01*
D11*
X186538095Y-48704819D02*
X186538095Y-47704819D01*
X186538095Y-48181009D02*
X187109523Y-48181009D01*
X187109523Y-48704819D02*
X187109523Y-47704819D01*
X188109523Y-48704819D02*
X187538095Y-48704819D01*
X187823809Y-48704819D02*
X187823809Y-47704819D01*
X187823809Y-47704819D02*
X187728571Y-47847676D01*
X187728571Y-47847676D02*
X187633333Y-47942914D01*
X187633333Y-47942914D02*
X187538095Y-47990533D01*
X143465569Y-96807416D02*
X142989378Y-97140749D01*
X143465569Y-97378844D02*
X142465569Y-97378844D01*
X142465569Y-97378844D02*
X142465569Y-96997892D01*
X142465569Y-96997892D02*
X142513188Y-96902654D01*
X142513188Y-96902654D02*
X142560807Y-96855035D01*
X142560807Y-96855035D02*
X142656045Y-96807416D01*
X142656045Y-96807416D02*
X142798902Y-96807416D01*
X142798902Y-96807416D02*
X142894140Y-96855035D01*
X142894140Y-96855035D02*
X142941759Y-96902654D01*
X142941759Y-96902654D02*
X142989378Y-96997892D01*
X142989378Y-96997892D02*
X142989378Y-97378844D01*
X142798902Y-95950273D02*
X143465569Y-95950273D01*
X142417950Y-96188368D02*
X143132235Y-96426463D01*
X143132235Y-96426463D02*
X143132235Y-95807416D01*
X173124819Y-96816666D02*
X172648628Y-97149999D01*
X173124819Y-97388094D02*
X172124819Y-97388094D01*
X172124819Y-97388094D02*
X172124819Y-97007142D01*
X172124819Y-97007142D02*
X172172438Y-96911904D01*
X172172438Y-96911904D02*
X172220057Y-96864285D01*
X172220057Y-96864285D02*
X172315295Y-96816666D01*
X172315295Y-96816666D02*
X172458152Y-96816666D01*
X172458152Y-96816666D02*
X172553390Y-96864285D01*
X172553390Y-96864285D02*
X172601009Y-96911904D01*
X172601009Y-96911904D02*
X172648628Y-97007142D01*
X172648628Y-97007142D02*
X172648628Y-97388094D01*
X172220057Y-96435713D02*
X172172438Y-96388094D01*
X172172438Y-96388094D02*
X172124819Y-96292856D01*
X172124819Y-96292856D02*
X172124819Y-96054761D01*
X172124819Y-96054761D02*
X172172438Y-95959523D01*
X172172438Y-95959523D02*
X172220057Y-95911904D01*
X172220057Y-95911904D02*
X172315295Y-95864285D01*
X172315295Y-95864285D02*
X172410533Y-95864285D01*
X172410533Y-95864285D02*
X172553390Y-95911904D01*
X172553390Y-95911904D02*
X173124819Y-96483332D01*
X173124819Y-96483332D02*
X173124819Y-95864285D01*
X115154819Y-53212857D02*
X114678628Y-53546190D01*
X115154819Y-53784285D02*
X114154819Y-53784285D01*
X114154819Y-53784285D02*
X114154819Y-53403333D01*
X114154819Y-53403333D02*
X114202438Y-53308095D01*
X114202438Y-53308095D02*
X114250057Y-53260476D01*
X114250057Y-53260476D02*
X114345295Y-53212857D01*
X114345295Y-53212857D02*
X114488152Y-53212857D01*
X114488152Y-53212857D02*
X114583390Y-53260476D01*
X114583390Y-53260476D02*
X114631009Y-53308095D01*
X114631009Y-53308095D02*
X114678628Y-53403333D01*
X114678628Y-53403333D02*
X114678628Y-53784285D01*
X115154819Y-52260476D02*
X115154819Y-52831904D01*
X115154819Y-52546190D02*
X114154819Y-52546190D01*
X114154819Y-52546190D02*
X114297676Y-52641428D01*
X114297676Y-52641428D02*
X114392914Y-52736666D01*
X114392914Y-52736666D02*
X114440533Y-52831904D01*
X114488152Y-51403333D02*
X115154819Y-51403333D01*
X114107200Y-51641428D02*
X114821485Y-51879523D01*
X114821485Y-51879523D02*
X114821485Y-51260476D01*
X114381119Y-69759885D02*
X113381119Y-69759885D01*
X113381119Y-69759885D02*
X113381119Y-69521790D01*
X113381119Y-69521790D02*
X113428738Y-69378933D01*
X113428738Y-69378933D02*
X113523976Y-69283695D01*
X113523976Y-69283695D02*
X113619214Y-69236076D01*
X113619214Y-69236076D02*
X113809690Y-69188457D01*
X113809690Y-69188457D02*
X113952547Y-69188457D01*
X113952547Y-69188457D02*
X114143023Y-69236076D01*
X114143023Y-69236076D02*
X114238261Y-69283695D01*
X114238261Y-69283695D02*
X114333500Y-69378933D01*
X114333500Y-69378933D02*
X114381119Y-69521790D01*
X114381119Y-69521790D02*
X114381119Y-69759885D01*
X114381119Y-68236076D02*
X114381119Y-68807504D01*
X114381119Y-68521790D02*
X113381119Y-68521790D01*
X113381119Y-68521790D02*
X113523976Y-68617028D01*
X113523976Y-68617028D02*
X113619214Y-68712266D01*
X113619214Y-68712266D02*
X113666833Y-68807504D01*
X113381119Y-67617028D02*
X113381119Y-67521790D01*
X113381119Y-67521790D02*
X113428738Y-67426552D01*
X113428738Y-67426552D02*
X113476357Y-67378933D01*
X113476357Y-67378933D02*
X113571595Y-67331314D01*
X113571595Y-67331314D02*
X113762071Y-67283695D01*
X113762071Y-67283695D02*
X114000166Y-67283695D01*
X114000166Y-67283695D02*
X114190642Y-67331314D01*
X114190642Y-67331314D02*
X114285880Y-67378933D01*
X114285880Y-67378933D02*
X114333500Y-67426552D01*
X114333500Y-67426552D02*
X114381119Y-67521790D01*
X114381119Y-67521790D02*
X114381119Y-67617028D01*
X114381119Y-67617028D02*
X114333500Y-67712266D01*
X114333500Y-67712266D02*
X114285880Y-67759885D01*
X114285880Y-67759885D02*
X114190642Y-67807504D01*
X114190642Y-67807504D02*
X114000166Y-67855123D01*
X114000166Y-67855123D02*
X113762071Y-67855123D01*
X113762071Y-67855123D02*
X113571595Y-67807504D01*
X113571595Y-67807504D02*
X113476357Y-67759885D01*
X113476357Y-67759885D02*
X113428738Y-67712266D01*
X113428738Y-67712266D02*
X113381119Y-67617028D01*
X115997500Y-67623019D02*
X115997500Y-67861114D01*
X115759405Y-67765876D02*
X115997500Y-67861114D01*
X115997500Y-67861114D02*
X116235595Y-67765876D01*
X115854643Y-68051590D02*
X115997500Y-67861114D01*
X115997500Y-67861114D02*
X116140357Y-68051590D01*
X115997500Y-67623019D02*
X115997500Y-67861114D01*
X115759405Y-67765876D02*
X115997500Y-67861114D01*
X115997500Y-67861114D02*
X116235595Y-67765876D01*
X115854643Y-68051590D02*
X115997500Y-67861114D01*
X115997500Y-67861114D02*
X116140357Y-68051590D01*
X176545511Y-85243007D02*
X176450273Y-85195388D01*
X176450273Y-85195388D02*
X176355035Y-85100150D01*
X176355035Y-85100150D02*
X176212178Y-84957292D01*
X176212178Y-84957292D02*
X176116940Y-84909673D01*
X176116940Y-84909673D02*
X176021702Y-84909673D01*
X176069321Y-85147769D02*
X175974083Y-85100150D01*
X175974083Y-85100150D02*
X175878845Y-85004911D01*
X175878845Y-85004911D02*
X175831226Y-84814435D01*
X175831226Y-84814435D02*
X175831226Y-84481102D01*
X175831226Y-84481102D02*
X175878845Y-84290626D01*
X175878845Y-84290626D02*
X175974083Y-84195388D01*
X175974083Y-84195388D02*
X176069321Y-84147769D01*
X176069321Y-84147769D02*
X176259797Y-84147769D01*
X176259797Y-84147769D02*
X176355035Y-84195388D01*
X176355035Y-84195388D02*
X176450273Y-84290626D01*
X176450273Y-84290626D02*
X176497892Y-84481102D01*
X176497892Y-84481102D02*
X176497892Y-84814435D01*
X176497892Y-84814435D02*
X176450273Y-85004911D01*
X176450273Y-85004911D02*
X176355035Y-85100150D01*
X176355035Y-85100150D02*
X176259797Y-85147769D01*
X176259797Y-85147769D02*
X176069321Y-85147769D01*
X176878845Y-84243007D02*
X176926464Y-84195388D01*
X176926464Y-84195388D02*
X177021702Y-84147769D01*
X177021702Y-84147769D02*
X177259797Y-84147769D01*
X177259797Y-84147769D02*
X177355035Y-84195388D01*
X177355035Y-84195388D02*
X177402654Y-84243007D01*
X177402654Y-84243007D02*
X177450273Y-84338245D01*
X177450273Y-84338245D02*
X177450273Y-84433483D01*
X177450273Y-84433483D02*
X177402654Y-84576340D01*
X177402654Y-84576340D02*
X176831226Y-85147769D01*
X176831226Y-85147769D02*
X177450273Y-85147769D01*
X172830750Y-92021769D02*
X172830750Y-92259864D01*
X172592655Y-92164626D02*
X172830750Y-92259864D01*
X172830750Y-92259864D02*
X173068845Y-92164626D01*
X172687893Y-92450340D02*
X172830750Y-92259864D01*
X172830750Y-92259864D02*
X172973607Y-92450340D01*
X172830750Y-92021769D02*
X172830750Y-92259864D01*
X172592655Y-92164626D02*
X172830750Y-92259864D01*
X172830750Y-92259864D02*
X173068845Y-92164626D01*
X172687893Y-92450340D02*
X172830750Y-92259864D01*
X172830750Y-92259864D02*
X172973607Y-92450340D01*
X136157142Y-108924819D02*
X135823809Y-108448628D01*
X135585714Y-108924819D02*
X135585714Y-107924819D01*
X135585714Y-107924819D02*
X135966666Y-107924819D01*
X135966666Y-107924819D02*
X136061904Y-107972438D01*
X136061904Y-107972438D02*
X136109523Y-108020057D01*
X136109523Y-108020057D02*
X136157142Y-108115295D01*
X136157142Y-108115295D02*
X136157142Y-108258152D01*
X136157142Y-108258152D02*
X136109523Y-108353390D01*
X136109523Y-108353390D02*
X136061904Y-108401009D01*
X136061904Y-108401009D02*
X135966666Y-108448628D01*
X135966666Y-108448628D02*
X135585714Y-108448628D01*
X137109523Y-108924819D02*
X136538095Y-108924819D01*
X136823809Y-108924819D02*
X136823809Y-107924819D01*
X136823809Y-107924819D02*
X136728571Y-108067676D01*
X136728571Y-108067676D02*
X136633333Y-108162914D01*
X136633333Y-108162914D02*
X136538095Y-108210533D01*
X137728571Y-107924819D02*
X137823809Y-107924819D01*
X137823809Y-107924819D02*
X137919047Y-107972438D01*
X137919047Y-107972438D02*
X137966666Y-108020057D01*
X137966666Y-108020057D02*
X138014285Y-108115295D01*
X138014285Y-108115295D02*
X138061904Y-108305771D01*
X138061904Y-108305771D02*
X138061904Y-108543866D01*
X138061904Y-108543866D02*
X138014285Y-108734342D01*
X138014285Y-108734342D02*
X137966666Y-108829580D01*
X137966666Y-108829580D02*
X137919047Y-108877200D01*
X137919047Y-108877200D02*
X137823809Y-108924819D01*
X137823809Y-108924819D02*
X137728571Y-108924819D01*
X137728571Y-108924819D02*
X137633333Y-108877200D01*
X137633333Y-108877200D02*
X137585714Y-108829580D01*
X137585714Y-108829580D02*
X137538095Y-108734342D01*
X137538095Y-108734342D02*
X137490476Y-108543866D01*
X137490476Y-108543866D02*
X137490476Y-108305771D01*
X137490476Y-108305771D02*
X137538095Y-108115295D01*
X137538095Y-108115295D02*
X137585714Y-108020057D01*
X137585714Y-108020057D02*
X137633333Y-107972438D01*
X137633333Y-107972438D02*
X137728571Y-107924819D01*
X84938095Y-120654819D02*
X84938095Y-119654819D01*
X84938095Y-120131009D02*
X85509523Y-120131009D01*
X85509523Y-120654819D02*
X85509523Y-119654819D01*
X85890476Y-119654819D02*
X86509523Y-119654819D01*
X86509523Y-119654819D02*
X86176190Y-120035771D01*
X86176190Y-120035771D02*
X86319047Y-120035771D01*
X86319047Y-120035771D02*
X86414285Y-120083390D01*
X86414285Y-120083390D02*
X86461904Y-120131009D01*
X86461904Y-120131009D02*
X86509523Y-120226247D01*
X86509523Y-120226247D02*
X86509523Y-120464342D01*
X86509523Y-120464342D02*
X86461904Y-120559580D01*
X86461904Y-120559580D02*
X86414285Y-120607200D01*
X86414285Y-120607200D02*
X86319047Y-120654819D01*
X86319047Y-120654819D02*
X86033333Y-120654819D01*
X86033333Y-120654819D02*
X85938095Y-120607200D01*
X85938095Y-120607200D02*
X85890476Y-120559580D01*
X125833333Y-82939580D02*
X125785714Y-82987200D01*
X125785714Y-82987200D02*
X125642857Y-83034819D01*
X125642857Y-83034819D02*
X125547619Y-83034819D01*
X125547619Y-83034819D02*
X125404762Y-82987200D01*
X125404762Y-82987200D02*
X125309524Y-82891961D01*
X125309524Y-82891961D02*
X125261905Y-82796723D01*
X125261905Y-82796723D02*
X125214286Y-82606247D01*
X125214286Y-82606247D02*
X125214286Y-82463390D01*
X125214286Y-82463390D02*
X125261905Y-82272914D01*
X125261905Y-82272914D02*
X125309524Y-82177676D01*
X125309524Y-82177676D02*
X125404762Y-82082438D01*
X125404762Y-82082438D02*
X125547619Y-82034819D01*
X125547619Y-82034819D02*
X125642857Y-82034819D01*
X125642857Y-82034819D02*
X125785714Y-82082438D01*
X125785714Y-82082438D02*
X125833333Y-82130057D01*
X126214286Y-82130057D02*
X126261905Y-82082438D01*
X126261905Y-82082438D02*
X126357143Y-82034819D01*
X126357143Y-82034819D02*
X126595238Y-82034819D01*
X126595238Y-82034819D02*
X126690476Y-82082438D01*
X126690476Y-82082438D02*
X126738095Y-82130057D01*
X126738095Y-82130057D02*
X126785714Y-82225295D01*
X126785714Y-82225295D02*
X126785714Y-82320533D01*
X126785714Y-82320533D02*
X126738095Y-82463390D01*
X126738095Y-82463390D02*
X126166667Y-83034819D01*
X126166667Y-83034819D02*
X126785714Y-83034819D01*
X113706533Y-123700000D02*
X113773200Y-123500000D01*
X113773200Y-123500000D02*
X113839866Y-123433333D01*
X113839866Y-123433333D02*
X113973200Y-123366666D01*
X113973200Y-123366666D02*
X114173200Y-123366666D01*
X114173200Y-123366666D02*
X114306533Y-123433333D01*
X114306533Y-123433333D02*
X114373200Y-123500000D01*
X114373200Y-123500000D02*
X114439866Y-123633333D01*
X114439866Y-123633333D02*
X114439866Y-124166666D01*
X114439866Y-124166666D02*
X113039866Y-124166666D01*
X113039866Y-124166666D02*
X113039866Y-123700000D01*
X113039866Y-123700000D02*
X113106533Y-123566666D01*
X113106533Y-123566666D02*
X113173200Y-123500000D01*
X113173200Y-123500000D02*
X113306533Y-123433333D01*
X113306533Y-123433333D02*
X113439866Y-123433333D01*
X113439866Y-123433333D02*
X113573200Y-123500000D01*
X113573200Y-123500000D02*
X113639866Y-123566666D01*
X113639866Y-123566666D02*
X113706533Y-123700000D01*
X113706533Y-123700000D02*
X113706533Y-124166666D01*
X113039866Y-122966666D02*
X113039866Y-122166666D01*
X114439866Y-122566666D02*
X113039866Y-122566666D01*
X114439866Y-120966666D02*
X114439866Y-121766666D01*
X114439866Y-121366666D02*
X113039866Y-121366666D01*
X113039866Y-121366666D02*
X113239866Y-121499999D01*
X113239866Y-121499999D02*
X113373200Y-121633333D01*
X113373200Y-121633333D02*
X113439866Y-121766666D01*
X101906533Y-48528332D02*
X101906533Y-47461666D01*
X102439866Y-47994999D02*
X101373200Y-47994999D01*
X101366667Y-128106533D02*
X102433334Y-128106533D01*
X84938095Y-48704819D02*
X84938095Y-47704819D01*
X84938095Y-48181009D02*
X85509523Y-48181009D01*
X85509523Y-48704819D02*
X85509523Y-47704819D01*
X85938095Y-47800057D02*
X85985714Y-47752438D01*
X85985714Y-47752438D02*
X86080952Y-47704819D01*
X86080952Y-47704819D02*
X86319047Y-47704819D01*
X86319047Y-47704819D02*
X86414285Y-47752438D01*
X86414285Y-47752438D02*
X86461904Y-47800057D01*
X86461904Y-47800057D02*
X86509523Y-47895295D01*
X86509523Y-47895295D02*
X86509523Y-47990533D01*
X86509523Y-47990533D02*
X86461904Y-48133390D01*
X86461904Y-48133390D02*
X85890476Y-48704819D01*
X85890476Y-48704819D02*
X86509523Y-48704819D01*
X122883333Y-56459580D02*
X122835714Y-56507200D01*
X122835714Y-56507200D02*
X122692857Y-56554819D01*
X122692857Y-56554819D02*
X122597619Y-56554819D01*
X122597619Y-56554819D02*
X122454762Y-56507200D01*
X122454762Y-56507200D02*
X122359524Y-56411961D01*
X122359524Y-56411961D02*
X122311905Y-56316723D01*
X122311905Y-56316723D02*
X122264286Y-56126247D01*
X122264286Y-56126247D02*
X122264286Y-55983390D01*
X122264286Y-55983390D02*
X122311905Y-55792914D01*
X122311905Y-55792914D02*
X122359524Y-55697676D01*
X122359524Y-55697676D02*
X122454762Y-55602438D01*
X122454762Y-55602438D02*
X122597619Y-55554819D01*
X122597619Y-55554819D02*
X122692857Y-55554819D01*
X122692857Y-55554819D02*
X122835714Y-55602438D01*
X122835714Y-55602438D02*
X122883333Y-55650057D01*
X123788095Y-55554819D02*
X123311905Y-55554819D01*
X123311905Y-55554819D02*
X123264286Y-56031009D01*
X123264286Y-56031009D02*
X123311905Y-55983390D01*
X123311905Y-55983390D02*
X123407143Y-55935771D01*
X123407143Y-55935771D02*
X123645238Y-55935771D01*
X123645238Y-55935771D02*
X123740476Y-55983390D01*
X123740476Y-55983390D02*
X123788095Y-56031009D01*
X123788095Y-56031009D02*
X123835714Y-56126247D01*
X123835714Y-56126247D02*
X123835714Y-56364342D01*
X123835714Y-56364342D02*
X123788095Y-56459580D01*
X123788095Y-56459580D02*
X123740476Y-56507200D01*
X123740476Y-56507200D02*
X123645238Y-56554819D01*
X123645238Y-56554819D02*
X123407143Y-56554819D01*
X123407143Y-56554819D02*
X123311905Y-56507200D01*
X123311905Y-56507200D02*
X123264286Y-56459580D01*
X153484819Y-73507416D02*
X153008628Y-73840749D01*
X153484819Y-74078844D02*
X152484819Y-74078844D01*
X152484819Y-74078844D02*
X152484819Y-73697892D01*
X152484819Y-73697892D02*
X152532438Y-73602654D01*
X152532438Y-73602654D02*
X152580057Y-73555035D01*
X152580057Y-73555035D02*
X152675295Y-73507416D01*
X152675295Y-73507416D02*
X152818152Y-73507416D01*
X152818152Y-73507416D02*
X152913390Y-73555035D01*
X152913390Y-73555035D02*
X152961009Y-73602654D01*
X152961009Y-73602654D02*
X153008628Y-73697892D01*
X153008628Y-73697892D02*
X153008628Y-74078844D01*
X152484819Y-73174082D02*
X152484819Y-72555035D01*
X152484819Y-72555035D02*
X152865771Y-72888368D01*
X152865771Y-72888368D02*
X152865771Y-72745511D01*
X152865771Y-72745511D02*
X152913390Y-72650273D01*
X152913390Y-72650273D02*
X152961009Y-72602654D01*
X152961009Y-72602654D02*
X153056247Y-72555035D01*
X153056247Y-72555035D02*
X153294342Y-72555035D01*
X153294342Y-72555035D02*
X153389580Y-72602654D01*
X153389580Y-72602654D02*
X153437200Y-72650273D01*
X153437200Y-72650273D02*
X153484819Y-72745511D01*
X153484819Y-72745511D02*
X153484819Y-73031225D01*
X153484819Y-73031225D02*
X153437200Y-73126463D01*
X153437200Y-73126463D02*
X153389580Y-73174082D01*
X136314069Y-80797344D02*
X135314069Y-80797344D01*
X135314069Y-80797344D02*
X135314069Y-80559249D01*
X135314069Y-80559249D02*
X135361688Y-80416392D01*
X135361688Y-80416392D02*
X135456926Y-80321154D01*
X135456926Y-80321154D02*
X135552164Y-80273535D01*
X135552164Y-80273535D02*
X135742640Y-80225916D01*
X135742640Y-80225916D02*
X135885497Y-80225916D01*
X135885497Y-80225916D02*
X136075973Y-80273535D01*
X136075973Y-80273535D02*
X136171211Y-80321154D01*
X136171211Y-80321154D02*
X136266450Y-80416392D01*
X136266450Y-80416392D02*
X136314069Y-80559249D01*
X136314069Y-80559249D02*
X136314069Y-80797344D01*
X135647402Y-79368773D02*
X136314069Y-79368773D01*
X135266450Y-79606868D02*
X135980735Y-79844963D01*
X135980735Y-79844963D02*
X135980735Y-79225916D01*
X127432419Y-50043333D02*
X128146704Y-50043333D01*
X128146704Y-50043333D02*
X128289561Y-50090952D01*
X128289561Y-50090952D02*
X128384800Y-50186190D01*
X128384800Y-50186190D02*
X128432419Y-50329047D01*
X128432419Y-50329047D02*
X128432419Y-50424285D01*
X127527657Y-49614761D02*
X127480038Y-49567142D01*
X127480038Y-49567142D02*
X127432419Y-49471904D01*
X127432419Y-49471904D02*
X127432419Y-49233809D01*
X127432419Y-49233809D02*
X127480038Y-49138571D01*
X127480038Y-49138571D02*
X127527657Y-49090952D01*
X127527657Y-49090952D02*
X127622895Y-49043333D01*
X127622895Y-49043333D02*
X127718133Y-49043333D01*
X127718133Y-49043333D02*
X127860990Y-49090952D01*
X127860990Y-49090952D02*
X128432419Y-49662380D01*
X128432419Y-49662380D02*
X128432419Y-49043333D01*
X180194819Y-115221904D02*
X181004342Y-115221904D01*
X181004342Y-115221904D02*
X181099580Y-115174285D01*
X181099580Y-115174285D02*
X181147200Y-115126666D01*
X181147200Y-115126666D02*
X181194819Y-115031428D01*
X181194819Y-115031428D02*
X181194819Y-114840952D01*
X181194819Y-114840952D02*
X181147200Y-114745714D01*
X181147200Y-114745714D02*
X181099580Y-114698095D01*
X181099580Y-114698095D02*
X181004342Y-114650476D01*
X181004342Y-114650476D02*
X180194819Y-114650476D01*
X181194819Y-113650476D02*
X181194819Y-114221904D01*
X181194819Y-113936190D02*
X180194819Y-113936190D01*
X180194819Y-113936190D02*
X180337676Y-114031428D01*
X180337676Y-114031428D02*
X180432914Y-114126666D01*
X180432914Y-114126666D02*
X180480533Y-114221904D01*
X135538095Y-60905653D02*
X135538095Y-61715176D01*
X135538095Y-61715176D02*
X135585714Y-61810414D01*
X135585714Y-61810414D02*
X135633333Y-61858034D01*
X135633333Y-61858034D02*
X135728571Y-61905653D01*
X135728571Y-61905653D02*
X135919047Y-61905653D01*
X135919047Y-61905653D02*
X136014285Y-61858034D01*
X136014285Y-61858034D02*
X136061904Y-61810414D01*
X136061904Y-61810414D02*
X136109523Y-61715176D01*
X136109523Y-61715176D02*
X136109523Y-60905653D01*
X136490476Y-60905653D02*
X137109523Y-60905653D01*
X137109523Y-60905653D02*
X136776190Y-61286605D01*
X136776190Y-61286605D02*
X136919047Y-61286605D01*
X136919047Y-61286605D02*
X137014285Y-61334224D01*
X137014285Y-61334224D02*
X137061904Y-61381843D01*
X137061904Y-61381843D02*
X137109523Y-61477081D01*
X137109523Y-61477081D02*
X137109523Y-61715176D01*
X137109523Y-61715176D02*
X137061904Y-61810414D01*
X137061904Y-61810414D02*
X137014285Y-61858034D01*
X137014285Y-61858034D02*
X136919047Y-61905653D01*
X136919047Y-61905653D02*
X136633333Y-61905653D01*
X136633333Y-61905653D02*
X136538095Y-61858034D01*
X136538095Y-61858034D02*
X136490476Y-61810414D01*
X146845511Y-85243007D02*
X146750273Y-85195388D01*
X146750273Y-85195388D02*
X146655035Y-85100150D01*
X146655035Y-85100150D02*
X146512178Y-84957292D01*
X146512178Y-84957292D02*
X146416940Y-84909673D01*
X146416940Y-84909673D02*
X146321702Y-84909673D01*
X146369321Y-85147769D02*
X146274083Y-85100150D01*
X146274083Y-85100150D02*
X146178845Y-85004911D01*
X146178845Y-85004911D02*
X146131226Y-84814435D01*
X146131226Y-84814435D02*
X146131226Y-84481102D01*
X146131226Y-84481102D02*
X146178845Y-84290626D01*
X146178845Y-84290626D02*
X146274083Y-84195388D01*
X146274083Y-84195388D02*
X146369321Y-84147769D01*
X146369321Y-84147769D02*
X146559797Y-84147769D01*
X146559797Y-84147769D02*
X146655035Y-84195388D01*
X146655035Y-84195388D02*
X146750273Y-84290626D01*
X146750273Y-84290626D02*
X146797892Y-84481102D01*
X146797892Y-84481102D02*
X146797892Y-84814435D01*
X146797892Y-84814435D02*
X146750273Y-85004911D01*
X146750273Y-85004911D02*
X146655035Y-85100150D01*
X146655035Y-85100150D02*
X146559797Y-85147769D01*
X146559797Y-85147769D02*
X146369321Y-85147769D01*
X147655035Y-84481102D02*
X147655035Y-85147769D01*
X147416940Y-84100150D02*
X147178845Y-84814435D01*
X147178845Y-84814435D02*
X147797892Y-84814435D01*
X143130750Y-92021769D02*
X143130750Y-92259864D01*
X142892655Y-92164626D02*
X143130750Y-92259864D01*
X143130750Y-92259864D02*
X143368845Y-92164626D01*
X142987893Y-92450340D02*
X143130750Y-92259864D01*
X143130750Y-92259864D02*
X143273607Y-92450340D01*
X143130750Y-92021769D02*
X143130750Y-92259864D01*
X142892655Y-92164626D02*
X143130750Y-92259864D01*
X143130750Y-92259864D02*
X143368845Y-92164626D01*
X142987893Y-92450340D02*
X143130750Y-92259864D01*
X143130750Y-92259864D02*
X143273607Y-92450340D01*
X169045511Y-61853107D02*
X168950273Y-61805488D01*
X168950273Y-61805488D02*
X168855035Y-61710250D01*
X168855035Y-61710250D02*
X168712178Y-61567392D01*
X168712178Y-61567392D02*
X168616940Y-61519773D01*
X168616940Y-61519773D02*
X168521702Y-61519773D01*
X168569321Y-61757869D02*
X168474083Y-61710250D01*
X168474083Y-61710250D02*
X168378845Y-61615011D01*
X168378845Y-61615011D02*
X168331226Y-61424535D01*
X168331226Y-61424535D02*
X168331226Y-61091202D01*
X168331226Y-61091202D02*
X168378845Y-60900726D01*
X168378845Y-60900726D02*
X168474083Y-60805488D01*
X168474083Y-60805488D02*
X168569321Y-60757869D01*
X168569321Y-60757869D02*
X168759797Y-60757869D01*
X168759797Y-60757869D02*
X168855035Y-60805488D01*
X168855035Y-60805488D02*
X168950273Y-60900726D01*
X168950273Y-60900726D02*
X168997892Y-61091202D01*
X168997892Y-61091202D02*
X168997892Y-61424535D01*
X168997892Y-61424535D02*
X168950273Y-61615011D01*
X168950273Y-61615011D02*
X168855035Y-61710250D01*
X168855035Y-61710250D02*
X168759797Y-61757869D01*
X168759797Y-61757869D02*
X168569321Y-61757869D01*
X169950273Y-61757869D02*
X169378845Y-61757869D01*
X169664559Y-61757869D02*
X169664559Y-60757869D01*
X169664559Y-60757869D02*
X169569321Y-60900726D01*
X169569321Y-60900726D02*
X169474083Y-60995964D01*
X169474083Y-60995964D02*
X169378845Y-61043583D01*
X165330750Y-68631869D02*
X165330750Y-68869964D01*
X165092655Y-68774726D02*
X165330750Y-68869964D01*
X165330750Y-68869964D02*
X165568845Y-68774726D01*
X165187893Y-69060440D02*
X165330750Y-68869964D01*
X165330750Y-68869964D02*
X165473607Y-69060440D01*
X165330750Y-68631869D02*
X165330750Y-68869964D01*
X165092655Y-68774726D02*
X165330750Y-68869964D01*
X165330750Y-68869964D02*
X165568845Y-68774726D01*
X165187893Y-69060440D02*
X165330750Y-68869964D01*
X165330750Y-68869964D02*
X165473607Y-69060440D01*
X137284819Y-58742857D02*
X136808628Y-59076190D01*
X137284819Y-59314285D02*
X136284819Y-59314285D01*
X136284819Y-59314285D02*
X136284819Y-58933333D01*
X136284819Y-58933333D02*
X136332438Y-58838095D01*
X136332438Y-58838095D02*
X136380057Y-58790476D01*
X136380057Y-58790476D02*
X136475295Y-58742857D01*
X136475295Y-58742857D02*
X136618152Y-58742857D01*
X136618152Y-58742857D02*
X136713390Y-58790476D01*
X136713390Y-58790476D02*
X136761009Y-58838095D01*
X136761009Y-58838095D02*
X136808628Y-58933333D01*
X136808628Y-58933333D02*
X136808628Y-59314285D01*
X137284819Y-57790476D02*
X137284819Y-58361904D01*
X137284819Y-58076190D02*
X136284819Y-58076190D01*
X136284819Y-58076190D02*
X136427676Y-58171428D01*
X136427676Y-58171428D02*
X136522914Y-58266666D01*
X136522914Y-58266666D02*
X136570533Y-58361904D01*
X136284819Y-56885714D02*
X136284819Y-57361904D01*
X136284819Y-57361904D02*
X136761009Y-57409523D01*
X136761009Y-57409523D02*
X136713390Y-57361904D01*
X136713390Y-57361904D02*
X136665771Y-57266666D01*
X136665771Y-57266666D02*
X136665771Y-57028571D01*
X136665771Y-57028571D02*
X136713390Y-56933333D01*
X136713390Y-56933333D02*
X136761009Y-56885714D01*
X136761009Y-56885714D02*
X136856247Y-56838095D01*
X136856247Y-56838095D02*
X137094342Y-56838095D01*
X137094342Y-56838095D02*
X137189580Y-56885714D01*
X137189580Y-56885714D02*
X137237200Y-56933333D01*
X137237200Y-56933333D02*
X137284819Y-57028571D01*
X137284819Y-57028571D02*
X137284819Y-57266666D01*
X137284819Y-57266666D02*
X137237200Y-57361904D01*
X137237200Y-57361904D02*
X137189580Y-57409523D01*
X136583333Y-105504819D02*
X136250000Y-105028628D01*
X136011905Y-105504819D02*
X136011905Y-104504819D01*
X136011905Y-104504819D02*
X136392857Y-104504819D01*
X136392857Y-104504819D02*
X136488095Y-104552438D01*
X136488095Y-104552438D02*
X136535714Y-104600057D01*
X136535714Y-104600057D02*
X136583333Y-104695295D01*
X136583333Y-104695295D02*
X136583333Y-104838152D01*
X136583333Y-104838152D02*
X136535714Y-104933390D01*
X136535714Y-104933390D02*
X136488095Y-104981009D01*
X136488095Y-104981009D02*
X136392857Y-105028628D01*
X136392857Y-105028628D02*
X136011905Y-105028628D01*
X137059524Y-105504819D02*
X137250000Y-105504819D01*
X137250000Y-105504819D02*
X137345238Y-105457200D01*
X137345238Y-105457200D02*
X137392857Y-105409580D01*
X137392857Y-105409580D02*
X137488095Y-105266723D01*
X137488095Y-105266723D02*
X137535714Y-105076247D01*
X137535714Y-105076247D02*
X137535714Y-104695295D01*
X137535714Y-104695295D02*
X137488095Y-104600057D01*
X137488095Y-104600057D02*
X137440476Y-104552438D01*
X137440476Y-104552438D02*
X137345238Y-104504819D01*
X137345238Y-104504819D02*
X137154762Y-104504819D01*
X137154762Y-104504819D02*
X137059524Y-104552438D01*
X137059524Y-104552438D02*
X137011905Y-104600057D01*
X137011905Y-104600057D02*
X136964286Y-104695295D01*
X136964286Y-104695295D02*
X136964286Y-104933390D01*
X136964286Y-104933390D02*
X137011905Y-105028628D01*
X137011905Y-105028628D02*
X137059524Y-105076247D01*
X137059524Y-105076247D02*
X137154762Y-105123866D01*
X137154762Y-105123866D02*
X137345238Y-105123866D01*
X137345238Y-105123866D02*
X137440476Y-105076247D01*
X137440476Y-105076247D02*
X137488095Y-105028628D01*
X137488095Y-105028628D02*
X137535714Y-104933390D01*
X132858333Y-63840414D02*
X132810714Y-63888034D01*
X132810714Y-63888034D02*
X132667857Y-63935653D01*
X132667857Y-63935653D02*
X132572619Y-63935653D01*
X132572619Y-63935653D02*
X132429762Y-63888034D01*
X132429762Y-63888034D02*
X132334524Y-63792795D01*
X132334524Y-63792795D02*
X132286905Y-63697557D01*
X132286905Y-63697557D02*
X132239286Y-63507081D01*
X132239286Y-63507081D02*
X132239286Y-63364224D01*
X132239286Y-63364224D02*
X132286905Y-63173748D01*
X132286905Y-63173748D02*
X132334524Y-63078510D01*
X132334524Y-63078510D02*
X132429762Y-62983272D01*
X132429762Y-62983272D02*
X132572619Y-62935653D01*
X132572619Y-62935653D02*
X132667857Y-62935653D01*
X132667857Y-62935653D02*
X132810714Y-62983272D01*
X132810714Y-62983272D02*
X132858333Y-63030891D01*
X133429762Y-63364224D02*
X133334524Y-63316605D01*
X133334524Y-63316605D02*
X133286905Y-63268986D01*
X133286905Y-63268986D02*
X133239286Y-63173748D01*
X133239286Y-63173748D02*
X133239286Y-63126129D01*
X133239286Y-63126129D02*
X133286905Y-63030891D01*
X133286905Y-63030891D02*
X133334524Y-62983272D01*
X133334524Y-62983272D02*
X133429762Y-62935653D01*
X133429762Y-62935653D02*
X133620238Y-62935653D01*
X133620238Y-62935653D02*
X133715476Y-62983272D01*
X133715476Y-62983272D02*
X133763095Y-63030891D01*
X133763095Y-63030891D02*
X133810714Y-63126129D01*
X133810714Y-63126129D02*
X133810714Y-63173748D01*
X133810714Y-63173748D02*
X133763095Y-63268986D01*
X133763095Y-63268986D02*
X133715476Y-63316605D01*
X133715476Y-63316605D02*
X133620238Y-63364224D01*
X133620238Y-63364224D02*
X133429762Y-63364224D01*
X133429762Y-63364224D02*
X133334524Y-63411843D01*
X133334524Y-63411843D02*
X133286905Y-63459462D01*
X133286905Y-63459462D02*
X133239286Y-63554700D01*
X133239286Y-63554700D02*
X133239286Y-63745176D01*
X133239286Y-63745176D02*
X133286905Y-63840414D01*
X133286905Y-63840414D02*
X133334524Y-63888034D01*
X133334524Y-63888034D02*
X133429762Y-63935653D01*
X133429762Y-63935653D02*
X133620238Y-63935653D01*
X133620238Y-63935653D02*
X133715476Y-63888034D01*
X133715476Y-63888034D02*
X133763095Y-63840414D01*
X133763095Y-63840414D02*
X133810714Y-63745176D01*
X133810714Y-63745176D02*
X133810714Y-63554700D01*
X133810714Y-63554700D02*
X133763095Y-63459462D01*
X133763095Y-63459462D02*
X133715476Y-63411843D01*
X133715476Y-63411843D02*
X133620238Y-63364224D01*
X131107142Y-124104819D02*
X130630952Y-124104819D01*
X130630952Y-124104819D02*
X130630952Y-123104819D01*
X131392857Y-124057200D02*
X131535714Y-124104819D01*
X131535714Y-124104819D02*
X131773809Y-124104819D01*
X131773809Y-124104819D02*
X131869047Y-124057200D01*
X131869047Y-124057200D02*
X131916666Y-124009580D01*
X131916666Y-124009580D02*
X131964285Y-123914342D01*
X131964285Y-123914342D02*
X131964285Y-123819104D01*
X131964285Y-123819104D02*
X131916666Y-123723866D01*
X131916666Y-123723866D02*
X131869047Y-123676247D01*
X131869047Y-123676247D02*
X131773809Y-123628628D01*
X131773809Y-123628628D02*
X131583333Y-123581009D01*
X131583333Y-123581009D02*
X131488095Y-123533390D01*
X131488095Y-123533390D02*
X131440476Y-123485771D01*
X131440476Y-123485771D02*
X131392857Y-123390533D01*
X131392857Y-123390533D02*
X131392857Y-123295295D01*
X131392857Y-123295295D02*
X131440476Y-123200057D01*
X131440476Y-123200057D02*
X131488095Y-123152438D01*
X131488095Y-123152438D02*
X131583333Y-123104819D01*
X131583333Y-123104819D02*
X131821428Y-123104819D01*
X131821428Y-123104819D02*
X131964285Y-123152438D01*
X132916666Y-124104819D02*
X132345238Y-124104819D01*
X132630952Y-124104819D02*
X132630952Y-123104819D01*
X132630952Y-123104819D02*
X132535714Y-123247676D01*
X132535714Y-123247676D02*
X132440476Y-123342914D01*
X132440476Y-123342914D02*
X132345238Y-123390533D01*
X125357142Y-84784819D02*
X125023809Y-84308628D01*
X124785714Y-84784819D02*
X124785714Y-83784819D01*
X124785714Y-83784819D02*
X125166666Y-83784819D01*
X125166666Y-83784819D02*
X125261904Y-83832438D01*
X125261904Y-83832438D02*
X125309523Y-83880057D01*
X125309523Y-83880057D02*
X125357142Y-83975295D01*
X125357142Y-83975295D02*
X125357142Y-84118152D01*
X125357142Y-84118152D02*
X125309523Y-84213390D01*
X125309523Y-84213390D02*
X125261904Y-84261009D01*
X125261904Y-84261009D02*
X125166666Y-84308628D01*
X125166666Y-84308628D02*
X124785714Y-84308628D01*
X126309523Y-84784819D02*
X125738095Y-84784819D01*
X126023809Y-84784819D02*
X126023809Y-83784819D01*
X126023809Y-83784819D02*
X125928571Y-83927676D01*
X125928571Y-83927676D02*
X125833333Y-84022914D01*
X125833333Y-84022914D02*
X125738095Y-84070533D01*
X126690476Y-83880057D02*
X126738095Y-83832438D01*
X126738095Y-83832438D02*
X126833333Y-83784819D01*
X126833333Y-83784819D02*
X127071428Y-83784819D01*
X127071428Y-83784819D02*
X127166666Y-83832438D01*
X127166666Y-83832438D02*
X127214285Y-83880057D01*
X127214285Y-83880057D02*
X127261904Y-83975295D01*
X127261904Y-83975295D02*
X127261904Y-84070533D01*
X127261904Y-84070533D02*
X127214285Y-84213390D01*
X127214285Y-84213390D02*
X126642857Y-84784819D01*
X126642857Y-84784819D02*
X127261904Y-84784819D01*
X113109819Y-119569904D02*
X113919342Y-119569904D01*
X113919342Y-119569904D02*
X114014580Y-119522285D01*
X114014580Y-119522285D02*
X114062200Y-119474666D01*
X114062200Y-119474666D02*
X114109819Y-119379428D01*
X114109819Y-119379428D02*
X114109819Y-119188952D01*
X114109819Y-119188952D02*
X114062200Y-119093714D01*
X114062200Y-119093714D02*
X114014580Y-119046095D01*
X114014580Y-119046095D02*
X113919342Y-118998476D01*
X113919342Y-118998476D02*
X113109819Y-118998476D01*
X113443152Y-118093714D02*
X114109819Y-118093714D01*
X113062200Y-118331809D02*
X113776485Y-118569904D01*
X113776485Y-118569904D02*
X113776485Y-117950857D01*
X127205146Y-75867500D02*
X127252766Y-75915119D01*
X127252766Y-75915119D02*
X127300385Y-76057976D01*
X127300385Y-76057976D02*
X127300385Y-76153214D01*
X127300385Y-76153214D02*
X127252766Y-76296071D01*
X127252766Y-76296071D02*
X127157527Y-76391309D01*
X127157527Y-76391309D02*
X127062289Y-76438928D01*
X127062289Y-76438928D02*
X126871813Y-76486547D01*
X126871813Y-76486547D02*
X126728956Y-76486547D01*
X126728956Y-76486547D02*
X126538480Y-76438928D01*
X126538480Y-76438928D02*
X126443242Y-76391309D01*
X126443242Y-76391309D02*
X126348004Y-76296071D01*
X126348004Y-76296071D02*
X126300385Y-76153214D01*
X126300385Y-76153214D02*
X126300385Y-76057976D01*
X126300385Y-76057976D02*
X126348004Y-75915119D01*
X126348004Y-75915119D02*
X126395623Y-75867500D01*
X127300385Y-74915119D02*
X127300385Y-75486547D01*
X127300385Y-75200833D02*
X126300385Y-75200833D01*
X126300385Y-75200833D02*
X126443242Y-75296071D01*
X126443242Y-75296071D02*
X126538480Y-75391309D01*
X126538480Y-75391309D02*
X126586099Y-75486547D01*
X132724819Y-58693691D02*
X132248628Y-59027024D01*
X132724819Y-59265119D02*
X131724819Y-59265119D01*
X131724819Y-59265119D02*
X131724819Y-58884167D01*
X131724819Y-58884167D02*
X131772438Y-58788929D01*
X131772438Y-58788929D02*
X131820057Y-58741310D01*
X131820057Y-58741310D02*
X131915295Y-58693691D01*
X131915295Y-58693691D02*
X132058152Y-58693691D01*
X132058152Y-58693691D02*
X132153390Y-58741310D01*
X132153390Y-58741310D02*
X132201009Y-58788929D01*
X132201009Y-58788929D02*
X132248628Y-58884167D01*
X132248628Y-58884167D02*
X132248628Y-59265119D01*
X132724819Y-57741310D02*
X132724819Y-58312738D01*
X132724819Y-58027024D02*
X131724819Y-58027024D01*
X131724819Y-58027024D02*
X131867676Y-58122262D01*
X131867676Y-58122262D02*
X131962914Y-58217500D01*
X131962914Y-58217500D02*
X132010533Y-58312738D01*
X131724819Y-56884167D02*
X131724819Y-57074643D01*
X131724819Y-57074643D02*
X131772438Y-57169881D01*
X131772438Y-57169881D02*
X131820057Y-57217500D01*
X131820057Y-57217500D02*
X131962914Y-57312738D01*
X131962914Y-57312738D02*
X132153390Y-57360357D01*
X132153390Y-57360357D02*
X132534342Y-57360357D01*
X132534342Y-57360357D02*
X132629580Y-57312738D01*
X132629580Y-57312738D02*
X132677200Y-57265119D01*
X132677200Y-57265119D02*
X132724819Y-57169881D01*
X132724819Y-57169881D02*
X132724819Y-56979405D01*
X132724819Y-56979405D02*
X132677200Y-56884167D01*
X132677200Y-56884167D02*
X132629580Y-56836548D01*
X132629580Y-56836548D02*
X132534342Y-56788929D01*
X132534342Y-56788929D02*
X132296247Y-56788929D01*
X132296247Y-56788929D02*
X132201009Y-56836548D01*
X132201009Y-56836548D02*
X132153390Y-56884167D01*
X132153390Y-56884167D02*
X132105771Y-56979405D01*
X132105771Y-56979405D02*
X132105771Y-57169881D01*
X132105771Y-57169881D02*
X132153390Y-57265119D01*
X132153390Y-57265119D02*
X132201009Y-57312738D01*
X132201009Y-57312738D02*
X132296247Y-57360357D01*
X143889580Y-61717500D02*
X143937200Y-61765119D01*
X143937200Y-61765119D02*
X143984819Y-61907976D01*
X143984819Y-61907976D02*
X143984819Y-62003214D01*
X143984819Y-62003214D02*
X143937200Y-62146071D01*
X143937200Y-62146071D02*
X143841961Y-62241309D01*
X143841961Y-62241309D02*
X143746723Y-62288928D01*
X143746723Y-62288928D02*
X143556247Y-62336547D01*
X143556247Y-62336547D02*
X143413390Y-62336547D01*
X143413390Y-62336547D02*
X143222914Y-62288928D01*
X143222914Y-62288928D02*
X143127676Y-62241309D01*
X143127676Y-62241309D02*
X143032438Y-62146071D01*
X143032438Y-62146071D02*
X142984819Y-62003214D01*
X142984819Y-62003214D02*
X142984819Y-61907976D01*
X142984819Y-61907976D02*
X143032438Y-61765119D01*
X143032438Y-61765119D02*
X143080057Y-61717500D01*
X143984819Y-61241309D02*
X143984819Y-61050833D01*
X143984819Y-61050833D02*
X143937200Y-60955595D01*
X143937200Y-60955595D02*
X143889580Y-60907976D01*
X143889580Y-60907976D02*
X143746723Y-60812738D01*
X143746723Y-60812738D02*
X143556247Y-60765119D01*
X143556247Y-60765119D02*
X143175295Y-60765119D01*
X143175295Y-60765119D02*
X143080057Y-60812738D01*
X143080057Y-60812738D02*
X143032438Y-60860357D01*
X143032438Y-60860357D02*
X142984819Y-60955595D01*
X142984819Y-60955595D02*
X142984819Y-61146071D01*
X142984819Y-61146071D02*
X143032438Y-61241309D01*
X143032438Y-61241309D02*
X143080057Y-61288928D01*
X143080057Y-61288928D02*
X143175295Y-61336547D01*
X143175295Y-61336547D02*
X143413390Y-61336547D01*
X143413390Y-61336547D02*
X143508628Y-61288928D01*
X143508628Y-61288928D02*
X143556247Y-61241309D01*
X143556247Y-61241309D02*
X143603866Y-61146071D01*
X143603866Y-61146071D02*
X143603866Y-60955595D01*
X143603866Y-60955595D02*
X143556247Y-60860357D01*
X143556247Y-60860357D02*
X143508628Y-60812738D01*
X143508628Y-60812738D02*
X143413390Y-60765119D01*
X188354819Y-80868094D02*
X187354819Y-80868094D01*
X187354819Y-80868094D02*
X187354819Y-80629999D01*
X187354819Y-80629999D02*
X187402438Y-80487142D01*
X187402438Y-80487142D02*
X187497676Y-80391904D01*
X187497676Y-80391904D02*
X187592914Y-80344285D01*
X187592914Y-80344285D02*
X187783390Y-80296666D01*
X187783390Y-80296666D02*
X187926247Y-80296666D01*
X187926247Y-80296666D02*
X188116723Y-80344285D01*
X188116723Y-80344285D02*
X188211961Y-80391904D01*
X188211961Y-80391904D02*
X188307200Y-80487142D01*
X188307200Y-80487142D02*
X188354819Y-80629999D01*
X188354819Y-80629999D02*
X188354819Y-80868094D01*
X188354819Y-79344285D02*
X188354819Y-79915713D01*
X188354819Y-79629999D02*
X187354819Y-79629999D01*
X187354819Y-79629999D02*
X187497676Y-79725237D01*
X187497676Y-79725237D02*
X187592914Y-79820475D01*
X187592914Y-79820475D02*
X187640533Y-79915713D01*
X125745180Y-68235714D02*
X126745180Y-68235714D01*
X126745180Y-68235714D02*
X126745180Y-68473809D01*
X126745180Y-68473809D02*
X126697561Y-68616666D01*
X126697561Y-68616666D02*
X126602323Y-68711904D01*
X126602323Y-68711904D02*
X126507085Y-68759523D01*
X126507085Y-68759523D02*
X126316609Y-68807142D01*
X126316609Y-68807142D02*
X126173752Y-68807142D01*
X126173752Y-68807142D02*
X125983276Y-68759523D01*
X125983276Y-68759523D02*
X125888038Y-68711904D01*
X125888038Y-68711904D02*
X125792800Y-68616666D01*
X125792800Y-68616666D02*
X125745180Y-68473809D01*
X125745180Y-68473809D02*
X125745180Y-68235714D01*
X125745180Y-69759523D02*
X125745180Y-69188095D01*
X125745180Y-69473809D02*
X126745180Y-69473809D01*
X126745180Y-69473809D02*
X126602323Y-69378571D01*
X126602323Y-69378571D02*
X126507085Y-69283333D01*
X126507085Y-69283333D02*
X126459466Y-69188095D01*
X125745180Y-70711904D02*
X125745180Y-70140476D01*
X125745180Y-70426190D02*
X126745180Y-70426190D01*
X126745180Y-70426190D02*
X126602323Y-70330952D01*
X126602323Y-70330952D02*
X126507085Y-70235714D01*
X126507085Y-70235714D02*
X126459466Y-70140476D01*
X126745180Y-69450000D02*
X126507085Y-69450000D01*
X126602323Y-69211905D02*
X126507085Y-69450000D01*
X126507085Y-69450000D02*
X126602323Y-69688095D01*
X126316609Y-69307143D02*
X126507085Y-69450000D01*
X126507085Y-69450000D02*
X126316609Y-69592857D01*
X126745180Y-69450000D02*
X126507085Y-69450000D01*
X126602323Y-69211905D02*
X126507085Y-69450000D01*
X126507085Y-69450000D02*
X126602323Y-69688095D01*
X126316609Y-69307143D02*
X126507085Y-69450000D01*
X126507085Y-69450000D02*
X126316609Y-69592857D01*
X139761952Y-51722019D02*
X139285762Y-51722019D01*
X139285762Y-51722019D02*
X139285762Y-50722019D01*
X140095286Y-51198209D02*
X140428619Y-51198209D01*
X140571476Y-51722019D02*
X140095286Y-51722019D01*
X140095286Y-51722019D02*
X140095286Y-50722019D01*
X140095286Y-50722019D02*
X140571476Y-50722019D01*
X141000048Y-51722019D02*
X141000048Y-50722019D01*
X141000048Y-50722019D02*
X141238143Y-50722019D01*
X141238143Y-50722019D02*
X141381000Y-50769638D01*
X141381000Y-50769638D02*
X141476238Y-50864876D01*
X141476238Y-50864876D02*
X141523857Y-50960114D01*
X141523857Y-50960114D02*
X141571476Y-51150590D01*
X141571476Y-51150590D02*
X141571476Y-51293447D01*
X141571476Y-51293447D02*
X141523857Y-51483923D01*
X141523857Y-51483923D02*
X141476238Y-51579161D01*
X141476238Y-51579161D02*
X141381000Y-51674400D01*
X141381000Y-51674400D02*
X141238143Y-51722019D01*
X141238143Y-51722019D02*
X141000048Y-51722019D01*
X142523857Y-51722019D02*
X141952429Y-51722019D01*
X142238143Y-51722019D02*
X142238143Y-50722019D01*
X142238143Y-50722019D02*
X142142905Y-50864876D01*
X142142905Y-50864876D02*
X142047667Y-50960114D01*
X142047667Y-50960114D02*
X141952429Y-51007733D01*
X157915569Y-70178844D02*
X156915569Y-70178844D01*
X156915569Y-70178844D02*
X156915569Y-69940749D01*
X156915569Y-69940749D02*
X156963188Y-69797892D01*
X156963188Y-69797892D02*
X157058426Y-69702654D01*
X157058426Y-69702654D02*
X157153664Y-69655035D01*
X157153664Y-69655035D02*
X157344140Y-69607416D01*
X157344140Y-69607416D02*
X157486997Y-69607416D01*
X157486997Y-69607416D02*
X157677473Y-69655035D01*
X157677473Y-69655035D02*
X157772711Y-69702654D01*
X157772711Y-69702654D02*
X157867950Y-69797892D01*
X157867950Y-69797892D02*
X157915569Y-69940749D01*
X157915569Y-69940749D02*
X157915569Y-70178844D01*
X156915569Y-69274082D02*
X156915569Y-68655035D01*
X156915569Y-68655035D02*
X157296521Y-68988368D01*
X157296521Y-68988368D02*
X157296521Y-68845511D01*
X157296521Y-68845511D02*
X157344140Y-68750273D01*
X157344140Y-68750273D02*
X157391759Y-68702654D01*
X157391759Y-68702654D02*
X157486997Y-68655035D01*
X157486997Y-68655035D02*
X157725092Y-68655035D01*
X157725092Y-68655035D02*
X157820330Y-68702654D01*
X157820330Y-68702654D02*
X157867950Y-68750273D01*
X157867950Y-68750273D02*
X157915569Y-68845511D01*
X157915569Y-68845511D02*
X157915569Y-69131225D01*
X157915569Y-69131225D02*
X157867950Y-69226463D01*
X157867950Y-69226463D02*
X157820330Y-69274082D01*
X113935714Y-50374819D02*
X113935714Y-49374819D01*
X113935714Y-49374819D02*
X114173809Y-49374819D01*
X114173809Y-49374819D02*
X114316666Y-49422438D01*
X114316666Y-49422438D02*
X114411904Y-49517676D01*
X114411904Y-49517676D02*
X114459523Y-49612914D01*
X114459523Y-49612914D02*
X114507142Y-49803390D01*
X114507142Y-49803390D02*
X114507142Y-49946247D01*
X114507142Y-49946247D02*
X114459523Y-50136723D01*
X114459523Y-50136723D02*
X114411904Y-50231961D01*
X114411904Y-50231961D02*
X114316666Y-50327200D01*
X114316666Y-50327200D02*
X114173809Y-50374819D01*
X114173809Y-50374819D02*
X113935714Y-50374819D01*
X115459523Y-50374819D02*
X114888095Y-50374819D01*
X115173809Y-50374819D02*
X115173809Y-49374819D01*
X115173809Y-49374819D02*
X115078571Y-49517676D01*
X115078571Y-49517676D02*
X114983333Y-49612914D01*
X114983333Y-49612914D02*
X114888095Y-49660533D01*
X116316666Y-49708152D02*
X116316666Y-50374819D01*
X116078571Y-49327200D02*
X115840476Y-50041485D01*
X115840476Y-50041485D02*
X116459523Y-50041485D01*
X117054999Y-50465180D02*
X117054999Y-50227085D01*
X117293094Y-50322323D02*
X117054999Y-50227085D01*
X117054999Y-50227085D02*
X116816904Y-50322323D01*
X117197856Y-50036609D02*
X117054999Y-50227085D01*
X117054999Y-50227085D02*
X116912142Y-50036609D01*
X117054999Y-50465180D02*
X117054999Y-50227085D01*
X117293094Y-50322323D02*
X117054999Y-50227085D01*
X117054999Y-50227085D02*
X116816904Y-50322323D01*
X117197856Y-50036609D02*
X117054999Y-50227085D01*
X117054999Y-50227085D02*
X116912142Y-50036609D01*
X145657142Y-50374819D02*
X145323809Y-49898628D01*
X145085714Y-50374819D02*
X145085714Y-49374819D01*
X145085714Y-49374819D02*
X145466666Y-49374819D01*
X145466666Y-49374819D02*
X145561904Y-49422438D01*
X145561904Y-49422438D02*
X145609523Y-49470057D01*
X145609523Y-49470057D02*
X145657142Y-49565295D01*
X145657142Y-49565295D02*
X145657142Y-49708152D01*
X145657142Y-49708152D02*
X145609523Y-49803390D01*
X145609523Y-49803390D02*
X145561904Y-49851009D01*
X145561904Y-49851009D02*
X145466666Y-49898628D01*
X145466666Y-49898628D02*
X145085714Y-49898628D01*
X146609523Y-50374819D02*
X146038095Y-50374819D01*
X146323809Y-50374819D02*
X146323809Y-49374819D01*
X146323809Y-49374819D02*
X146228571Y-49517676D01*
X146228571Y-49517676D02*
X146133333Y-49612914D01*
X146133333Y-49612914D02*
X146038095Y-49660533D01*
X146942857Y-49374819D02*
X147609523Y-49374819D01*
X147609523Y-49374819D02*
X147180952Y-50374819D01*
D13*
X123490790Y-62778084D02*
X123490790Y-62909317D01*
X123697014Y-62909317D02*
X123303313Y-62909317D01*
X123303313Y-62909317D02*
X123303313Y-62721841D01*
X123490790Y-62440626D02*
X123509538Y-62384383D01*
X123509538Y-62384383D02*
X123528285Y-62365635D01*
X123528285Y-62365635D02*
X123565781Y-62346887D01*
X123565781Y-62346887D02*
X123622024Y-62346887D01*
X123622024Y-62346887D02*
X123659519Y-62365635D01*
X123659519Y-62365635D02*
X123678267Y-62384383D01*
X123678267Y-62384383D02*
X123697014Y-62421878D01*
X123697014Y-62421878D02*
X123697014Y-62571859D01*
X123697014Y-62571859D02*
X123303313Y-62571859D01*
X123303313Y-62571859D02*
X123303313Y-62440626D01*
X123303313Y-62440626D02*
X123322061Y-62403130D01*
X123322061Y-62403130D02*
X123340809Y-62384383D01*
X123340809Y-62384383D02*
X123378304Y-62365635D01*
X123378304Y-62365635D02*
X123415799Y-62365635D01*
X123415799Y-62365635D02*
X123453295Y-62384383D01*
X123453295Y-62384383D02*
X123472042Y-62403130D01*
X123472042Y-62403130D02*
X123490790Y-62440626D01*
X123490790Y-62440626D02*
X123490790Y-62571859D01*
X123697014Y-61971934D02*
X123697014Y-62196906D01*
X123697014Y-62084420D02*
X123303313Y-62084420D01*
X123303313Y-62084420D02*
X123359556Y-62121915D01*
X123359556Y-62121915D02*
X123397052Y-62159411D01*
X123397052Y-62159411D02*
X123415799Y-62196906D01*
D11*
X177405569Y-69378844D02*
X176405569Y-69378844D01*
X176405569Y-69378844D02*
X176405569Y-69140749D01*
X176405569Y-69140749D02*
X176453188Y-68997892D01*
X176453188Y-68997892D02*
X176548426Y-68902654D01*
X176548426Y-68902654D02*
X176643664Y-68855035D01*
X176643664Y-68855035D02*
X176834140Y-68807416D01*
X176834140Y-68807416D02*
X176976997Y-68807416D01*
X176976997Y-68807416D02*
X177167473Y-68855035D01*
X177167473Y-68855035D02*
X177262711Y-68902654D01*
X177262711Y-68902654D02*
X177357950Y-68997892D01*
X177357950Y-68997892D02*
X177405569Y-69140749D01*
X177405569Y-69140749D02*
X177405569Y-69378844D01*
X176500807Y-68426463D02*
X176453188Y-68378844D01*
X176453188Y-68378844D02*
X176405569Y-68283606D01*
X176405569Y-68283606D02*
X176405569Y-68045511D01*
X176405569Y-68045511D02*
X176453188Y-67950273D01*
X176453188Y-67950273D02*
X176500807Y-67902654D01*
X176500807Y-67902654D02*
X176596045Y-67855035D01*
X176596045Y-67855035D02*
X176691283Y-67855035D01*
X176691283Y-67855035D02*
X176834140Y-67902654D01*
X176834140Y-67902654D02*
X177405569Y-68474082D01*
X177405569Y-68474082D02*
X177405569Y-67855035D01*
D12*
X116374285Y-75995270D02*
X116253333Y-75934794D01*
X116253333Y-75934794D02*
X116132380Y-75813842D01*
X116132380Y-75813842D02*
X115950952Y-75632413D01*
X115950952Y-75632413D02*
X115829999Y-75571937D01*
X115829999Y-75571937D02*
X115709047Y-75571937D01*
X115769523Y-75874318D02*
X115648571Y-75813842D01*
X115648571Y-75813842D02*
X115527618Y-75692889D01*
X115527618Y-75692889D02*
X115467142Y-75450984D01*
X115467142Y-75450984D02*
X115467142Y-75027651D01*
X115467142Y-75027651D02*
X115527618Y-74785746D01*
X115527618Y-74785746D02*
X115648571Y-74664794D01*
X115648571Y-74664794D02*
X115769523Y-74604318D01*
X115769523Y-74604318D02*
X116011428Y-74604318D01*
X116011428Y-74604318D02*
X116132380Y-74664794D01*
X116132380Y-74664794D02*
X116253333Y-74785746D01*
X116253333Y-74785746D02*
X116313809Y-75027651D01*
X116313809Y-75027651D02*
X116313809Y-75450984D01*
X116313809Y-75450984D02*
X116253333Y-75692889D01*
X116253333Y-75692889D02*
X116132380Y-75813842D01*
X116132380Y-75813842D02*
X116011428Y-75874318D01*
X116011428Y-75874318D02*
X115769523Y-75874318D01*
X117523333Y-75874318D02*
X116797618Y-75874318D01*
X117160475Y-75874318D02*
X117160475Y-74604318D01*
X117160475Y-74604318D02*
X117039523Y-74785746D01*
X117039523Y-74785746D02*
X116918571Y-74906699D01*
X116918571Y-74906699D02*
X116797618Y-74967175D01*
X118309523Y-74604318D02*
X118430476Y-74604318D01*
X118430476Y-74604318D02*
X118551428Y-74664794D01*
X118551428Y-74664794D02*
X118611904Y-74725270D01*
X118611904Y-74725270D02*
X118672380Y-74846222D01*
X118672380Y-74846222D02*
X118732857Y-75088127D01*
X118732857Y-75088127D02*
X118732857Y-75390508D01*
X118732857Y-75390508D02*
X118672380Y-75632413D01*
X118672380Y-75632413D02*
X118611904Y-75753365D01*
X118611904Y-75753365D02*
X118551428Y-75813842D01*
X118551428Y-75813842D02*
X118430476Y-75874318D01*
X118430476Y-75874318D02*
X118309523Y-75874318D01*
X118309523Y-75874318D02*
X118188571Y-75813842D01*
X118188571Y-75813842D02*
X118128095Y-75753365D01*
X118128095Y-75753365D02*
X118067618Y-75632413D01*
X118067618Y-75632413D02*
X118007142Y-75390508D01*
X118007142Y-75390508D02*
X118007142Y-75088127D01*
X118007142Y-75088127D02*
X118067618Y-74846222D01*
X118067618Y-74846222D02*
X118128095Y-74725270D01*
X118128095Y-74725270D02*
X118188571Y-74664794D01*
X118188571Y-74664794D02*
X118309523Y-74604318D01*
D11*
X122883333Y-54609580D02*
X122835714Y-54657200D01*
X122835714Y-54657200D02*
X122692857Y-54704819D01*
X122692857Y-54704819D02*
X122597619Y-54704819D01*
X122597619Y-54704819D02*
X122454762Y-54657200D01*
X122454762Y-54657200D02*
X122359524Y-54561961D01*
X122359524Y-54561961D02*
X122311905Y-54466723D01*
X122311905Y-54466723D02*
X122264286Y-54276247D01*
X122264286Y-54276247D02*
X122264286Y-54133390D01*
X122264286Y-54133390D02*
X122311905Y-53942914D01*
X122311905Y-53942914D02*
X122359524Y-53847676D01*
X122359524Y-53847676D02*
X122454762Y-53752438D01*
X122454762Y-53752438D02*
X122597619Y-53704819D01*
X122597619Y-53704819D02*
X122692857Y-53704819D01*
X122692857Y-53704819D02*
X122835714Y-53752438D01*
X122835714Y-53752438D02*
X122883333Y-53800057D01*
X123740476Y-54038152D02*
X123740476Y-54704819D01*
X123502381Y-53657200D02*
X123264286Y-54371485D01*
X123264286Y-54371485D02*
X123883333Y-54371485D01*
X123633333Y-68069580D02*
X123585714Y-68117200D01*
X123585714Y-68117200D02*
X123442857Y-68164819D01*
X123442857Y-68164819D02*
X123347619Y-68164819D01*
X123347619Y-68164819D02*
X123204762Y-68117200D01*
X123204762Y-68117200D02*
X123109524Y-68021961D01*
X123109524Y-68021961D02*
X123061905Y-67926723D01*
X123061905Y-67926723D02*
X123014286Y-67736247D01*
X123014286Y-67736247D02*
X123014286Y-67593390D01*
X123014286Y-67593390D02*
X123061905Y-67402914D01*
X123061905Y-67402914D02*
X123109524Y-67307676D01*
X123109524Y-67307676D02*
X123204762Y-67212438D01*
X123204762Y-67212438D02*
X123347619Y-67164819D01*
X123347619Y-67164819D02*
X123442857Y-67164819D01*
X123442857Y-67164819D02*
X123585714Y-67212438D01*
X123585714Y-67212438D02*
X123633333Y-67260057D01*
X124490476Y-67164819D02*
X124300000Y-67164819D01*
X124300000Y-67164819D02*
X124204762Y-67212438D01*
X124204762Y-67212438D02*
X124157143Y-67260057D01*
X124157143Y-67260057D02*
X124061905Y-67402914D01*
X124061905Y-67402914D02*
X124014286Y-67593390D01*
X124014286Y-67593390D02*
X124014286Y-67974342D01*
X124014286Y-67974342D02*
X124061905Y-68069580D01*
X124061905Y-68069580D02*
X124109524Y-68117200D01*
X124109524Y-68117200D02*
X124204762Y-68164819D01*
X124204762Y-68164819D02*
X124395238Y-68164819D01*
X124395238Y-68164819D02*
X124490476Y-68117200D01*
X124490476Y-68117200D02*
X124538095Y-68069580D01*
X124538095Y-68069580D02*
X124585714Y-67974342D01*
X124585714Y-67974342D02*
X124585714Y-67736247D01*
X124585714Y-67736247D02*
X124538095Y-67641009D01*
X124538095Y-67641009D02*
X124490476Y-67593390D01*
X124490476Y-67593390D02*
X124395238Y-67545771D01*
X124395238Y-67545771D02*
X124204762Y-67545771D01*
X124204762Y-67545771D02*
X124109524Y-67593390D01*
X124109524Y-67593390D02*
X124061905Y-67641009D01*
X124061905Y-67641009D02*
X124014286Y-67736247D01*
X121929580Y-75216666D02*
X121977200Y-75264285D01*
X121977200Y-75264285D02*
X122024819Y-75407142D01*
X122024819Y-75407142D02*
X122024819Y-75502380D01*
X122024819Y-75502380D02*
X121977200Y-75645237D01*
X121977200Y-75645237D02*
X121881961Y-75740475D01*
X121881961Y-75740475D02*
X121786723Y-75788094D01*
X121786723Y-75788094D02*
X121596247Y-75835713D01*
X121596247Y-75835713D02*
X121453390Y-75835713D01*
X121453390Y-75835713D02*
X121262914Y-75788094D01*
X121262914Y-75788094D02*
X121167676Y-75740475D01*
X121167676Y-75740475D02*
X121072438Y-75645237D01*
X121072438Y-75645237D02*
X121024819Y-75502380D01*
X121024819Y-75502380D02*
X121024819Y-75407142D01*
X121024819Y-75407142D02*
X121072438Y-75264285D01*
X121072438Y-75264285D02*
X121120057Y-75216666D01*
X121024819Y-74883332D02*
X121024819Y-74264285D01*
X121024819Y-74264285D02*
X121405771Y-74597618D01*
X121405771Y-74597618D02*
X121405771Y-74454761D01*
X121405771Y-74454761D02*
X121453390Y-74359523D01*
X121453390Y-74359523D02*
X121501009Y-74311904D01*
X121501009Y-74311904D02*
X121596247Y-74264285D01*
X121596247Y-74264285D02*
X121834342Y-74264285D01*
X121834342Y-74264285D02*
X121929580Y-74311904D01*
X121929580Y-74311904D02*
X121977200Y-74359523D01*
X121977200Y-74359523D02*
X122024819Y-74454761D01*
X122024819Y-74454761D02*
X122024819Y-74740475D01*
X122024819Y-74740475D02*
X121977200Y-74835713D01*
X121977200Y-74835713D02*
X121929580Y-74883332D01*
X132330385Y-76318691D02*
X131854194Y-76652024D01*
X132330385Y-76890119D02*
X131330385Y-76890119D01*
X131330385Y-76890119D02*
X131330385Y-76509167D01*
X131330385Y-76509167D02*
X131378004Y-76413929D01*
X131378004Y-76413929D02*
X131425623Y-76366310D01*
X131425623Y-76366310D02*
X131520861Y-76318691D01*
X131520861Y-76318691D02*
X131663718Y-76318691D01*
X131663718Y-76318691D02*
X131758956Y-76366310D01*
X131758956Y-76366310D02*
X131806575Y-76413929D01*
X131806575Y-76413929D02*
X131854194Y-76509167D01*
X131854194Y-76509167D02*
X131854194Y-76890119D01*
X132330385Y-75366310D02*
X132330385Y-75937738D01*
X132330385Y-75652024D02*
X131330385Y-75652024D01*
X131330385Y-75652024D02*
X131473242Y-75747262D01*
X131473242Y-75747262D02*
X131568480Y-75842500D01*
X131568480Y-75842500D02*
X131616099Y-75937738D01*
X132330385Y-74413929D02*
X132330385Y-74985357D01*
X132330385Y-74699643D02*
X131330385Y-74699643D01*
X131330385Y-74699643D02*
X131473242Y-74794881D01*
X131473242Y-74794881D02*
X131568480Y-74890119D01*
X131568480Y-74890119D02*
X131616099Y-74985357D01*
X131374285Y-47485180D02*
X131374285Y-48485180D01*
X131374285Y-48485180D02*
X131136190Y-48485180D01*
X131136190Y-48485180D02*
X130993333Y-48437561D01*
X130993333Y-48437561D02*
X130898095Y-48342323D01*
X130898095Y-48342323D02*
X130850476Y-48247085D01*
X130850476Y-48247085D02*
X130802857Y-48056609D01*
X130802857Y-48056609D02*
X130802857Y-47913752D01*
X130802857Y-47913752D02*
X130850476Y-47723276D01*
X130850476Y-47723276D02*
X130898095Y-47628038D01*
X130898095Y-47628038D02*
X130993333Y-47532800D01*
X130993333Y-47532800D02*
X131136190Y-47485180D01*
X131136190Y-47485180D02*
X131374285Y-47485180D01*
X129850476Y-47485180D02*
X130421904Y-47485180D01*
X130136190Y-47485180D02*
X130136190Y-48485180D01*
X130136190Y-48485180D02*
X130231428Y-48342323D01*
X130231428Y-48342323D02*
X130326666Y-48247085D01*
X130326666Y-48247085D02*
X130421904Y-48199466D01*
X129469523Y-48389942D02*
X129421904Y-48437561D01*
X129421904Y-48437561D02*
X129326666Y-48485180D01*
X129326666Y-48485180D02*
X129088571Y-48485180D01*
X129088571Y-48485180D02*
X128993333Y-48437561D01*
X128993333Y-48437561D02*
X128945714Y-48389942D01*
X128945714Y-48389942D02*
X128898095Y-48294704D01*
X128898095Y-48294704D02*
X128898095Y-48199466D01*
X128898095Y-48199466D02*
X128945714Y-48056609D01*
X128945714Y-48056609D02*
X129517142Y-47485180D01*
X129517142Y-47485180D02*
X128898095Y-47485180D01*
X128255000Y-47394819D02*
X128255000Y-47632914D01*
X128016905Y-47537676D02*
X128255000Y-47632914D01*
X128255000Y-47632914D02*
X128493095Y-47537676D01*
X128112143Y-47823390D02*
X128255000Y-47632914D01*
X128255000Y-47632914D02*
X128397857Y-47823390D01*
X128255000Y-47394819D02*
X128255000Y-47632914D01*
X128016905Y-47537676D02*
X128255000Y-47632914D01*
X128255000Y-47632914D02*
X128493095Y-47537676D01*
X128112143Y-47823390D02*
X128255000Y-47632914D01*
X128255000Y-47632914D02*
X128397857Y-47823390D01*
X141689580Y-61717500D02*
X141737200Y-61765119D01*
X141737200Y-61765119D02*
X141784819Y-61907976D01*
X141784819Y-61907976D02*
X141784819Y-62003214D01*
X141784819Y-62003214D02*
X141737200Y-62146071D01*
X141737200Y-62146071D02*
X141641961Y-62241309D01*
X141641961Y-62241309D02*
X141546723Y-62288928D01*
X141546723Y-62288928D02*
X141356247Y-62336547D01*
X141356247Y-62336547D02*
X141213390Y-62336547D01*
X141213390Y-62336547D02*
X141022914Y-62288928D01*
X141022914Y-62288928D02*
X140927676Y-62241309D01*
X140927676Y-62241309D02*
X140832438Y-62146071D01*
X140832438Y-62146071D02*
X140784819Y-62003214D01*
X140784819Y-62003214D02*
X140784819Y-61907976D01*
X140784819Y-61907976D02*
X140832438Y-61765119D01*
X140832438Y-61765119D02*
X140880057Y-61717500D01*
X140784819Y-61384166D02*
X140784819Y-60717500D01*
X140784819Y-60717500D02*
X141784819Y-61146071D01*
X135083333Y-63219819D02*
X134607143Y-63219819D01*
X134607143Y-63219819D02*
X134607143Y-62219819D01*
X135940476Y-63219819D02*
X135369048Y-63219819D01*
X135654762Y-63219819D02*
X135654762Y-62219819D01*
X135654762Y-62219819D02*
X135559524Y-62362676D01*
X135559524Y-62362676D02*
X135464286Y-62457914D01*
X135464286Y-62457914D02*
X135369048Y-62505533D01*
D14*
%TO.C,R1*%
X166118250Y-73578008D02*
X166118250Y-73103492D01*
X167163250Y-73578008D02*
X167163250Y-73103492D01*
D15*
%TO.C,Q3*%
X148679750Y-62305699D02*
X148679750Y-66256050D01*
X148679750Y-66256050D02*
X153315250Y-66256050D01*
X153315250Y-66256050D02*
X153315250Y-68034050D01*
X153315250Y-68034050D02*
X154966250Y-68034050D01*
X154966250Y-66256050D02*
X159601750Y-66256050D01*
X154966250Y-68034050D02*
X154966250Y-66256050D01*
X159601750Y-66256050D02*
X159601750Y-62305699D01*
%TO.C,U2*%
X122537900Y-80151000D02*
X125839900Y-80151000D01*
X125839900Y-76849000D02*
X122537900Y-76849000D01*
D16*
G36*
X121052000Y-79690501D02*
G01*
X120798000Y-79690501D01*
X120798000Y-79309501D01*
X121052000Y-79309501D01*
X121052000Y-79690501D01*
G37*
D17*
%TO.C,Q9*%
X130100000Y-72825000D02*
X130100000Y-72075000D01*
X130250000Y-70975000D02*
X132250000Y-70975000D01*
X130250000Y-71725000D02*
X130250000Y-70975000D01*
X132250000Y-70975000D02*
X132250000Y-71725000D01*
X132250000Y-71725000D02*
X130250000Y-71725000D01*
D14*
%TO.C,R4*%
X143918250Y-96878008D02*
X143918250Y-96403492D01*
X144963250Y-96878008D02*
X144963250Y-96403492D01*
%TO.C,R2*%
X173577500Y-96887258D02*
X173577500Y-96412742D01*
X174622500Y-96887258D02*
X174622500Y-96412742D01*
%TO.C,R14*%
X115777500Y-52332742D02*
X115777500Y-52807258D01*
X116822500Y-52332742D02*
X116822500Y-52807258D01*
D15*
%TO.C,Q2*%
X171179750Y-85695599D02*
X171179750Y-89645950D01*
X171179750Y-89645950D02*
X175815250Y-89645950D01*
X175815250Y-89645950D02*
X175815250Y-91423950D01*
X175815250Y-91423950D02*
X177466250Y-91423950D01*
X177466250Y-89645950D02*
X182101750Y-89645950D01*
X177466250Y-91423950D02*
X177466250Y-89645950D01*
X182101750Y-89645950D02*
X182101750Y-85695599D01*
D14*
%TO.C,R10*%
X136953641Y-106920000D02*
X136646359Y-106920000D01*
X136953641Y-107680000D02*
X136646359Y-107680000D01*
%TO.C,C2*%
X126140580Y-80640000D02*
X125859420Y-80640000D01*
X126140580Y-81660000D02*
X125859420Y-81660000D01*
D18*
%TO.C,BT1*%
X91250000Y-49150000D02*
X91250000Y-126850000D01*
X91250000Y-126850000D02*
X112150000Y-126850000D01*
X112150000Y-49150000D02*
X91250000Y-49150000D01*
X112150000Y-126850000D02*
X112150000Y-49150000D01*
D16*
%TO.C,G\u002A\u002A\u002A*%
G36*
X187883551Y-113508879D02*
G01*
X187886901Y-113512001D01*
X187889967Y-113515493D01*
X187893024Y-113519977D01*
X187896343Y-113526078D01*
X187900200Y-113534420D01*
X187904867Y-113545625D01*
X187910617Y-113560319D01*
X187917725Y-113579124D01*
X187926464Y-113602665D01*
X187935920Y-113628338D01*
X187942647Y-113646617D01*
X187948731Y-113663118D01*
X187953800Y-113676834D01*
X187957481Y-113686758D01*
X187959402Y-113691881D01*
X187959485Y-113692098D01*
X187959657Y-113693228D01*
X187958922Y-113694192D01*
X187956824Y-113695005D01*
X187952908Y-113695677D01*
X187946719Y-113696223D01*
X187937802Y-113696656D01*
X187925701Y-113696988D01*
X187909962Y-113697233D01*
X187890128Y-113697404D01*
X187865746Y-113697514D01*
X187836360Y-113697576D01*
X187801514Y-113697603D01*
X187767654Y-113697608D01*
X187733348Y-113697577D01*
X187700978Y-113697488D01*
X187671081Y-113697348D01*
X187644195Y-113697160D01*
X187620857Y-113696930D01*
X187601603Y-113696664D01*
X187586972Y-113696368D01*
X187577499Y-113696046D01*
X187573721Y-113695704D01*
X187573676Y-113695661D01*
X187573297Y-113691846D01*
X187572240Y-113682742D01*
X187570624Y-113669308D01*
X187568570Y-113652502D01*
X187566197Y-113633284D01*
X187563626Y-113612611D01*
X187560976Y-113591441D01*
X187558367Y-113570733D01*
X187555919Y-113551445D01*
X187553752Y-113534536D01*
X187551986Y-113520963D01*
X187550741Y-113511685D01*
X187550183Y-113507903D01*
X187548645Y-113499244D01*
X187710611Y-113499244D01*
X187872577Y-113499244D01*
X187883551Y-113508879D01*
G37*
G36*
X190391690Y-113073598D02*
G01*
X190391185Y-113077468D01*
X190389841Y-113086026D01*
X190387901Y-113097753D01*
X190386823Y-113104091D01*
X190380200Y-113137459D01*
X190371213Y-113173804D01*
X190359716Y-113213600D01*
X190345560Y-113257322D01*
X190328599Y-113305444D01*
X190308683Y-113358440D01*
X190303531Y-113371724D01*
X190291271Y-113403231D01*
X190281181Y-113429333D01*
X190273097Y-113450477D01*
X190266857Y-113467108D01*
X190262297Y-113479672D01*
X190259254Y-113488613D01*
X190257565Y-113494377D01*
X190257066Y-113497410D01*
X190257249Y-113498084D01*
X190260559Y-113498544D01*
X190269666Y-113499400D01*
X190284086Y-113500614D01*
X190303334Y-113502151D01*
X190326925Y-113503973D01*
X190354375Y-113506043D01*
X190385198Y-113508324D01*
X190418910Y-113510781D01*
X190455026Y-113513374D01*
X190493061Y-113516069D01*
X190499204Y-113516501D01*
X190549737Y-113520059D01*
X190594380Y-113523230D01*
X190633526Y-113526046D01*
X190667567Y-113528540D01*
X190696896Y-113530747D01*
X190721906Y-113532700D01*
X190742989Y-113534431D01*
X190760539Y-113535975D01*
X190774949Y-113537366D01*
X190786610Y-113538636D01*
X190795917Y-113539819D01*
X190803262Y-113540949D01*
X190809037Y-113542059D01*
X190813635Y-113543183D01*
X190814272Y-113543362D01*
X190822852Y-113547491D01*
X190833888Y-113555097D01*
X190845772Y-113564844D01*
X190856897Y-113575397D01*
X190865654Y-113585421D01*
X190866782Y-113586962D01*
X190872657Y-113595277D01*
X190855513Y-113618357D01*
X190844782Y-113631823D01*
X190835199Y-113640830D01*
X190824898Y-113646450D01*
X190812018Y-113649754D01*
X190797874Y-113651523D01*
X190789074Y-113652367D01*
X190775124Y-113653705D01*
X190757142Y-113655429D01*
X190736246Y-113657433D01*
X190713554Y-113659608D01*
X190695543Y-113661335D01*
X190671115Y-113663615D01*
X190643701Y-113666067D01*
X190614036Y-113668634D01*
X190582854Y-113671258D01*
X190550888Y-113673882D01*
X190518871Y-113676451D01*
X190487536Y-113678905D01*
X190457618Y-113681190D01*
X190429850Y-113683247D01*
X190404966Y-113685019D01*
X190383698Y-113686450D01*
X190366781Y-113687482D01*
X190354947Y-113688058D01*
X190350477Y-113688162D01*
X190338838Y-113687598D01*
X190330302Y-113685220D01*
X190321729Y-113680000D01*
X190318740Y-113677772D01*
X190315006Y-113674684D01*
X190311319Y-113670974D01*
X190307457Y-113666205D01*
X190303197Y-113659942D01*
X190298316Y-113651751D01*
X190292591Y-113641196D01*
X190285800Y-113627841D01*
X190277719Y-113611252D01*
X190268126Y-113590992D01*
X190256799Y-113566627D01*
X190243514Y-113537722D01*
X190228049Y-113503840D01*
X190214501Y-113474055D01*
X190198576Y-113438736D01*
X190185420Y-113408956D01*
X190174993Y-113384616D01*
X190167254Y-113365619D01*
X190162162Y-113351868D01*
X190159678Y-113343266D01*
X190159439Y-113341723D01*
X190158035Y-113327465D01*
X190218979Y-113251786D01*
X190245284Y-113219126D01*
X190267952Y-113191011D01*
X190287302Y-113167086D01*
X190303651Y-113146993D01*
X190317314Y-113130375D01*
X190328610Y-113116876D01*
X190337854Y-113106140D01*
X190345364Y-113097809D01*
X190351457Y-113091526D01*
X190356449Y-113086935D01*
X190360658Y-113083679D01*
X190364400Y-113081402D01*
X190367992Y-113079747D01*
X190371751Y-113078356D01*
X190373596Y-113077717D01*
X190383051Y-113074759D01*
X190389599Y-113073321D01*
X190391690Y-113073598D01*
G37*
G36*
X184957459Y-113299758D02*
G01*
X184973276Y-113300038D01*
X184985506Y-113300673D01*
X184995501Y-113301800D01*
X185004618Y-113303556D01*
X185014209Y-113306078D01*
X185021712Y-113308306D01*
X185063668Y-113323773D01*
X185101148Y-113343458D01*
X185134663Y-113367734D01*
X185164722Y-113396974D01*
X185191836Y-113431549D01*
X185193132Y-113433436D01*
X185206719Y-113451663D01*
X185219429Y-113464733D01*
X185232331Y-113473479D01*
X185246495Y-113478733D01*
X185253136Y-113480108D01*
X185258338Y-113480471D01*
X185269483Y-113480847D01*
X185286216Y-113481233D01*
X185308182Y-113481623D01*
X185335026Y-113482016D01*
X185366393Y-113482406D01*
X185401930Y-113482791D01*
X185441280Y-113483167D01*
X185484090Y-113483530D01*
X185530005Y-113483877D01*
X185578669Y-113484203D01*
X185629729Y-113484505D01*
X185682829Y-113484780D01*
X185722282Y-113484959D01*
X185796244Y-113485287D01*
X185870325Y-113485636D01*
X185944254Y-113486004D01*
X186017762Y-113486390D01*
X186090578Y-113486791D01*
X186162432Y-113487204D01*
X186233055Y-113487629D01*
X186302176Y-113488062D01*
X186369525Y-113488502D01*
X186434832Y-113488947D01*
X186497828Y-113489395D01*
X186558241Y-113489843D01*
X186615802Y-113490289D01*
X186670242Y-113490732D01*
X186721289Y-113491169D01*
X186768673Y-113491599D01*
X186812126Y-113492018D01*
X186851376Y-113492425D01*
X186886154Y-113492819D01*
X186916190Y-113493196D01*
X186941213Y-113493555D01*
X186960953Y-113493894D01*
X186975141Y-113494210D01*
X186983506Y-113494502D01*
X186985801Y-113494705D01*
X186989599Y-113497324D01*
X186992649Y-113502420D01*
X186995090Y-113510706D01*
X186997060Y-113522895D01*
X186998698Y-113539699D01*
X187000141Y-113561831D01*
X187000640Y-113571231D01*
X187002355Y-113603837D01*
X187003932Y-113631013D01*
X187005429Y-113653622D01*
X187006904Y-113672528D01*
X187008416Y-113688594D01*
X187008903Y-113693154D01*
X187010668Y-113709167D01*
X186477464Y-113711599D01*
X186413065Y-113711896D01*
X186346174Y-113712210D01*
X186277467Y-113712537D01*
X186207623Y-113712874D01*
X186137318Y-113713219D01*
X186067229Y-113713566D01*
X185998034Y-113713914D01*
X185930409Y-113714258D01*
X185865031Y-113714595D01*
X185802579Y-113714922D01*
X185743728Y-113715235D01*
X185689155Y-113715531D01*
X185639539Y-113715806D01*
X185596337Y-113716053D01*
X185248413Y-113718074D01*
X185232693Y-113725945D01*
X185225168Y-113730188D01*
X185218433Y-113735336D01*
X185211704Y-113742304D01*
X185204200Y-113752007D01*
X185195136Y-113765362D01*
X185183866Y-113783069D01*
X185160230Y-113815021D01*
X185131855Y-113843420D01*
X185099469Y-113867845D01*
X185063798Y-113887871D01*
X185025569Y-113903076D01*
X184985507Y-113913038D01*
X184954016Y-113916859D01*
X184911136Y-113916700D01*
X184869779Y-113910742D01*
X184830343Y-113899379D01*
X184793224Y-113883010D01*
X184758817Y-113862028D01*
X184727521Y-113836831D01*
X184699730Y-113807813D01*
X184675841Y-113775372D01*
X184656251Y-113739903D01*
X184641356Y-113701801D01*
X184631553Y-113661464D01*
X184627237Y-113619286D01*
X184627579Y-113590791D01*
X184633123Y-113546114D01*
X184644328Y-113503872D01*
X184660909Y-113464424D01*
X184682580Y-113428130D01*
X184709057Y-113395349D01*
X184740055Y-113366441D01*
X184775290Y-113341763D01*
X184814476Y-113321675D01*
X184851686Y-113308175D01*
X184862427Y-113305093D01*
X184871816Y-113302860D01*
X184881212Y-113301342D01*
X184891976Y-113300403D01*
X184905467Y-113299906D01*
X184923046Y-113299717D01*
X184936699Y-113299695D01*
X184957459Y-113299758D01*
G37*
G36*
X189805928Y-113142863D02*
G01*
X189839060Y-113150048D01*
X189873667Y-113162087D01*
X189908314Y-113178249D01*
X189941569Y-113197801D01*
X189971998Y-113220011D01*
X189992037Y-113237908D01*
X190009231Y-113256884D01*
X190028162Y-113281646D01*
X190048701Y-113311965D01*
X190070722Y-113347611D01*
X190094096Y-113388355D01*
X190118696Y-113433968D01*
X190144395Y-113484219D01*
X190171065Y-113538881D01*
X190198579Y-113597723D01*
X190226194Y-113659122D01*
X190241968Y-113695041D01*
X190258125Y-113732203D01*
X190274442Y-113770075D01*
X190290699Y-113808120D01*
X190306673Y-113845803D01*
X190322141Y-113882589D01*
X190336882Y-113917943D01*
X190350674Y-113951329D01*
X190363294Y-113982212D01*
X190374521Y-114010056D01*
X190384131Y-114034328D01*
X190391904Y-114054490D01*
X190397617Y-114070008D01*
X190401049Y-114080347D01*
X190401258Y-114081076D01*
X190405020Y-114094520D01*
X190408057Y-114105457D01*
X190410022Y-114112638D01*
X190410592Y-114114851D01*
X190408105Y-114116496D01*
X190401882Y-114119968D01*
X190399216Y-114121390D01*
X190387840Y-114127396D01*
X190359581Y-114097484D01*
X190352668Y-114090084D01*
X190346185Y-114082899D01*
X190339842Y-114075503D01*
X190333350Y-114067472D01*
X190326417Y-114058381D01*
X190318753Y-114047807D01*
X190310070Y-114035324D01*
X190300075Y-114020509D01*
X190288480Y-114002937D01*
X190274994Y-113982183D01*
X190259326Y-113957823D01*
X190241188Y-113929432D01*
X190220288Y-113896587D01*
X190196336Y-113858863D01*
X190194909Y-113856613D01*
X190163938Y-113807916D01*
X190135975Y-113764208D01*
X190110751Y-113725097D01*
X190088001Y-113690194D01*
X190067457Y-113659107D01*
X190048853Y-113631446D01*
X190031922Y-113606820D01*
X190016397Y-113584838D01*
X190002012Y-113565110D01*
X189988499Y-113547244D01*
X189975593Y-113530851D01*
X189963025Y-113515538D01*
X189958039Y-113509636D01*
X189944810Y-113496773D01*
X189929751Y-113486431D01*
X189914566Y-113479584D01*
X189901369Y-113477204D01*
X189887084Y-113479486D01*
X189871895Y-113485575D01*
X189860968Y-113492532D01*
X189853277Y-113498582D01*
X189869811Y-113509063D01*
X189887128Y-113521672D01*
X189905605Y-113537879D01*
X189923259Y-113555827D01*
X189936598Y-113571662D01*
X189941879Y-113578983D01*
X189949275Y-113589826D01*
X189958192Y-113603263D01*
X189968039Y-113618365D01*
X189978225Y-113634203D01*
X189988158Y-113649849D01*
X189997246Y-113664374D01*
X190004898Y-113676850D01*
X190010522Y-113686348D01*
X190013525Y-113691939D01*
X190013865Y-113692930D01*
X190010875Y-113693543D01*
X190002533Y-113693978D01*
X189989785Y-113694221D01*
X189973573Y-113694254D01*
X189954842Y-113694062D01*
X189951145Y-113694000D01*
X189929774Y-113693598D01*
X189913773Y-113693179D01*
X189902216Y-113692627D01*
X189894176Y-113691825D01*
X189888728Y-113690656D01*
X189884944Y-113689002D01*
X189881898Y-113686747D01*
X189879993Y-113685013D01*
X189874209Y-113679223D01*
X189869312Y-113673123D01*
X189864958Y-113665863D01*
X189860804Y-113656591D01*
X189856510Y-113644457D01*
X189851732Y-113628611D01*
X189846127Y-113608200D01*
X189840553Y-113586989D01*
X189830106Y-113547102D01*
X189820791Y-113512393D01*
X189812272Y-113481914D01*
X189804213Y-113454719D01*
X189796278Y-113429863D01*
X189788131Y-113406397D01*
X189779436Y-113383377D01*
X189769856Y-113359856D01*
X189759057Y-113334887D01*
X189746701Y-113307523D01*
X189732453Y-113276819D01*
X189724171Y-113259189D01*
X189685991Y-113178140D01*
X189694858Y-113170264D01*
X189713891Y-113157257D01*
X189736968Y-113147899D01*
X189762785Y-113142511D01*
X189790041Y-113141415D01*
X189805928Y-113142863D01*
G37*
G36*
X186699334Y-113834009D02*
G01*
X186717689Y-113836129D01*
X186722691Y-113837232D01*
X186742905Y-113843940D01*
X186759618Y-113853131D01*
X186773407Y-113865516D01*
X186784850Y-113881806D01*
X186794525Y-113902710D01*
X186803008Y-113928939D01*
X186805799Y-113939494D01*
X186816909Y-113992678D01*
X186822575Y-114042754D01*
X186822791Y-114089790D01*
X186817549Y-114133855D01*
X186806842Y-114175018D01*
X186790664Y-114213349D01*
X186776139Y-114238440D01*
X186768149Y-114249881D01*
X186757511Y-114263928D01*
X186745813Y-114278528D01*
X186737844Y-114287976D01*
X186718776Y-114312058D01*
X186704504Y-114335283D01*
X186694499Y-114359104D01*
X186688234Y-114384973D01*
X186685181Y-114414344D01*
X186684672Y-114434467D01*
X186685038Y-114455997D01*
X186686530Y-114472314D01*
X186689545Y-114484462D01*
X186694478Y-114493484D01*
X186701727Y-114500423D01*
X186711689Y-114506322D01*
X186712070Y-114506512D01*
X186720332Y-114510145D01*
X186728571Y-114512431D01*
X186738647Y-114513672D01*
X186752418Y-114514174D01*
X186759299Y-114514235D01*
X186790679Y-114512224D01*
X186817563Y-114505859D01*
X186840044Y-114495100D01*
X186858211Y-114479911D01*
X186867238Y-114468415D01*
X186873220Y-114458060D01*
X186880988Y-114442396D01*
X186890281Y-114422069D01*
X186900841Y-114397726D01*
X186912407Y-114370014D01*
X186924720Y-114339578D01*
X186937519Y-114307066D01*
X186950545Y-114273124D01*
X186963538Y-114238399D01*
X186976239Y-114203536D01*
X186988386Y-114169183D01*
X186993780Y-114153545D01*
X187005975Y-114116304D01*
X187015840Y-114082260D01*
X187023962Y-114049030D01*
X187030925Y-114014229D01*
X187037074Y-113977049D01*
X187039411Y-113962692D01*
X187041606Y-113950932D01*
X187043413Y-113942982D01*
X187044585Y-113940052D01*
X187044587Y-113940052D01*
X187046698Y-113942670D01*
X187051036Y-113949788D01*
X187056954Y-113960299D01*
X187063404Y-113972326D01*
X187088438Y-114019904D01*
X187110791Y-114062166D01*
X187130630Y-114099415D01*
X187148124Y-114131951D01*
X187163438Y-114160074D01*
X187176742Y-114184087D01*
X187188201Y-114204290D01*
X187197984Y-114220984D01*
X187206257Y-114234471D01*
X187213189Y-114245052D01*
X187218945Y-114253028D01*
X187220434Y-114254915D01*
X187226834Y-114262401D01*
X187236462Y-114273122D01*
X187248151Y-114285802D01*
X187260734Y-114299165D01*
X187264446Y-114303051D01*
X187281327Y-114321371D01*
X187293724Y-114336622D01*
X187302127Y-114349593D01*
X187307029Y-114361073D01*
X187308921Y-114371854D01*
X187308981Y-114374563D01*
X187307375Y-114382839D01*
X187302797Y-114395865D01*
X187295499Y-114412979D01*
X187289161Y-114426516D01*
X187253431Y-114494980D01*
X187214752Y-114558447D01*
X187173259Y-114616737D01*
X187129089Y-114669670D01*
X187082379Y-114717065D01*
X187041641Y-114752179D01*
X186998270Y-114783651D01*
X186954672Y-114808997D01*
X186910363Y-114828386D01*
X186864864Y-114841985D01*
X186817692Y-114849961D01*
X186768365Y-114852480D01*
X186753458Y-114852210D01*
X186709770Y-114848792D01*
X186669971Y-114841323D01*
X186632838Y-114829430D01*
X186597149Y-114812738D01*
X186569008Y-114795806D01*
X186532612Y-114768091D01*
X186499651Y-114735276D01*
X186470358Y-114697683D01*
X186444968Y-114655636D01*
X186423712Y-114609457D01*
X186413188Y-114580352D01*
X186398709Y-114531438D01*
X186385854Y-114478597D01*
X186375100Y-114424092D01*
X186366921Y-114370187D01*
X186364319Y-114347800D01*
X186361910Y-114317145D01*
X186360642Y-114283322D01*
X186360460Y-114247560D01*
X186361307Y-114211087D01*
X186363126Y-114175131D01*
X186365860Y-114140922D01*
X186369453Y-114109686D01*
X186373848Y-114082654D01*
X186377227Y-114067456D01*
X186390216Y-114029091D01*
X186408804Y-113992581D01*
X186432430Y-113958469D01*
X186460535Y-113927298D01*
X186492557Y-113899612D01*
X186527937Y-113875954D01*
X186566113Y-113856868D01*
X186606527Y-113842897D01*
X186609643Y-113842067D01*
X186630738Y-113837733D01*
X186653974Y-113834891D01*
X186677468Y-113833623D01*
X186699334Y-113834009D01*
G37*
G36*
X187765417Y-112773189D02*
G01*
X187789829Y-112775641D01*
X187814039Y-112779873D01*
X187839736Y-112786005D01*
X187884784Y-112800940D01*
X187928789Y-112821500D01*
X187970638Y-112847013D01*
X188009215Y-112876810D01*
X188040428Y-112906961D01*
X188068974Y-112940158D01*
X188098150Y-112978560D01*
X188127337Y-113021199D01*
X188155920Y-113067106D01*
X188183282Y-113115315D01*
X188208805Y-113164856D01*
X188220716Y-113189892D01*
X188232248Y-113215322D01*
X188243354Y-113240888D01*
X188254317Y-113267337D01*
X188265420Y-113295412D01*
X188276944Y-113325859D01*
X188289173Y-113359424D01*
X188302389Y-113396852D01*
X188316875Y-113438887D01*
X188331406Y-113481793D01*
X188349206Y-113534253D01*
X188365431Y-113581054D01*
X188380254Y-113622586D01*
X188393849Y-113659239D01*
X188406391Y-113691404D01*
X188418054Y-113719470D01*
X188429011Y-113743828D01*
X188439437Y-113764869D01*
X188449506Y-113782982D01*
X188459392Y-113798557D01*
X188469269Y-113811985D01*
X188479312Y-113823656D01*
X188487680Y-113832083D01*
X188511656Y-113851000D01*
X188537588Y-113864083D01*
X188565893Y-113871480D01*
X188596988Y-113873336D01*
X188604562Y-113872995D01*
X188634806Y-113868936D01*
X188662492Y-113860519D01*
X188688087Y-113847409D01*
X188712056Y-113829266D01*
X188734865Y-113805755D01*
X188756980Y-113776537D01*
X188773325Y-113750787D01*
X188788348Y-113725530D01*
X188797738Y-113742268D01*
X188801652Y-113749521D01*
X188807823Y-113761304D01*
X188815946Y-113777015D01*
X188825717Y-113796052D01*
X188836832Y-113817813D01*
X188848987Y-113841694D01*
X188861878Y-113867095D01*
X188875202Y-113893411D01*
X188888654Y-113920042D01*
X188901930Y-113946384D01*
X188914726Y-113971835D01*
X188926738Y-113995794D01*
X188937663Y-114017656D01*
X188947196Y-114036821D01*
X188955033Y-114052686D01*
X188960871Y-114064648D01*
X188964405Y-114072106D01*
X188965371Y-114074445D01*
X188963846Y-114078258D01*
X188959731Y-114086159D01*
X188953719Y-114096862D01*
X188948841Y-114105182D01*
X188921179Y-114145896D01*
X188889028Y-114183130D01*
X188853011Y-114216437D01*
X188813753Y-114245368D01*
X188771878Y-114269476D01*
X188728009Y-114288312D01*
X188682770Y-114301430D01*
X188672401Y-114303560D01*
X188651552Y-114306378D01*
X188626756Y-114307952D01*
X188600241Y-114308282D01*
X188574234Y-114307370D01*
X188550963Y-114305214D01*
X188540340Y-114303538D01*
X188500138Y-114293175D01*
X188460790Y-114277422D01*
X188422063Y-114256123D01*
X188383725Y-114229121D01*
X188345543Y-114196257D01*
X188307284Y-114157374D01*
X188281928Y-114128395D01*
X188245960Y-114083026D01*
X188212109Y-114035067D01*
X188180107Y-113984000D01*
X188149681Y-113929304D01*
X188120563Y-113870460D01*
X188092481Y-113806948D01*
X188065165Y-113738250D01*
X188038346Y-113663846D01*
X188034813Y-113653527D01*
X188018823Y-113607721D01*
X188002926Y-113564463D01*
X187987338Y-113524264D01*
X187972277Y-113487638D01*
X187957960Y-113455098D01*
X187944605Y-113427156D01*
X187932427Y-113404324D01*
X187922512Y-113388362D01*
X187893760Y-113349975D01*
X187864354Y-113317378D01*
X187834419Y-113290656D01*
X187804079Y-113269897D01*
X187773457Y-113255185D01*
X187742677Y-113246609D01*
X187715695Y-113244205D01*
X187685922Y-113246618D01*
X187657150Y-113254032D01*
X187628821Y-113266714D01*
X187600378Y-113284929D01*
X187571266Y-113308941D01*
X187562382Y-113317254D01*
X187536919Y-113341695D01*
X187533079Y-113301609D01*
X187526007Y-113235916D01*
X187517852Y-113175788D01*
X187508467Y-113120559D01*
X187497706Y-113069567D01*
X187485420Y-113022148D01*
X187471464Y-112977638D01*
X187455689Y-112935374D01*
X187447662Y-112916226D01*
X187434903Y-112886835D01*
X187439947Y-112873600D01*
X187445375Y-112863065D01*
X187453680Y-112853374D01*
X187465670Y-112843883D01*
X187482149Y-112833949D01*
X187502756Y-112823488D01*
X187546208Y-112804547D01*
X187588047Y-112790427D01*
X187630104Y-112780677D01*
X187674208Y-112774847D01*
X187708011Y-112772830D01*
X187738809Y-112772319D01*
X187765417Y-112773189D01*
G37*
G36*
X189348951Y-113117816D02*
G01*
X189398607Y-113125706D01*
X189446819Y-113139243D01*
X189493083Y-113158303D01*
X189536891Y-113182757D01*
X189577738Y-113212480D01*
X189597142Y-113229511D01*
X189628667Y-113263176D01*
X189656846Y-113302161D01*
X189681665Y-113346441D01*
X189703110Y-113395991D01*
X189712871Y-113423677D01*
X189717311Y-113437851D01*
X189722968Y-113456899D01*
X189729495Y-113479594D01*
X189736545Y-113504711D01*
X189743770Y-113531023D01*
X189750824Y-113557304D01*
X189752122Y-113562217D01*
X189761730Y-113598364D01*
X189770073Y-113628920D01*
X189777361Y-113654417D01*
X189783805Y-113675385D01*
X189789617Y-113692354D01*
X189795007Y-113705856D01*
X189800186Y-113716422D01*
X189805365Y-113724582D01*
X189810755Y-113730868D01*
X189816568Y-113735810D01*
X189822669Y-113739742D01*
X189830552Y-113743782D01*
X189839230Y-113747034D01*
X189849478Y-113749589D01*
X189862073Y-113751535D01*
X189877788Y-113752964D01*
X189897400Y-113753966D01*
X189921683Y-113754630D01*
X189951414Y-113755048D01*
X189954538Y-113755078D01*
X190038474Y-113755857D01*
X190050350Y-113765471D01*
X190059228Y-113774520D01*
X190068020Y-113786562D01*
X190075646Y-113799728D01*
X190081022Y-113812150D01*
X190083066Y-113821957D01*
X190083066Y-113821979D01*
X190081731Y-113830261D01*
X190078310Y-113841030D01*
X190075679Y-113847303D01*
X190069871Y-113856923D01*
X190060128Y-113869831D01*
X190047243Y-113885151D01*
X190032004Y-113902007D01*
X190015201Y-113919524D01*
X189997626Y-113936824D01*
X189981264Y-113951966D01*
X189949392Y-113978333D01*
X189918866Y-113999036D01*
X189889018Y-114014375D01*
X189859178Y-114024651D01*
X189828680Y-114030168D01*
X189805145Y-114031362D01*
X189774799Y-114029098D01*
X189746616Y-114022036D01*
X189719531Y-114009768D01*
X189692482Y-113991888D01*
X189683730Y-113984972D01*
X189669819Y-113971826D01*
X189653521Y-113953337D01*
X189635095Y-113929873D01*
X189614801Y-113901804D01*
X189592897Y-113869502D01*
X189569643Y-113833336D01*
X189545299Y-113793675D01*
X189522083Y-113754283D01*
X189507601Y-113729196D01*
X189495588Y-113708193D01*
X189485393Y-113690041D01*
X189476364Y-113673509D01*
X189467852Y-113657363D01*
X189459206Y-113640371D01*
X189449775Y-113621302D01*
X189438909Y-113598922D01*
X189426906Y-113573975D01*
X189411693Y-113542831D01*
X189398417Y-113517003D01*
X189386678Y-113495960D01*
X189376078Y-113479170D01*
X189366218Y-113466100D01*
X189356699Y-113456218D01*
X189347122Y-113448993D01*
X189337089Y-113443893D01*
X189326865Y-113440556D01*
X189307582Y-113438700D01*
X189288225Y-113442840D01*
X189269362Y-113452708D01*
X189251559Y-113468034D01*
X189240237Y-113481588D01*
X189233760Y-113490703D01*
X189229272Y-113497659D01*
X189227626Y-113501126D01*
X189227671Y-113501257D01*
X189231061Y-113501933D01*
X189239457Y-113502944D01*
X189251585Y-113504152D01*
X189265820Y-113505390D01*
X189289516Y-113508086D01*
X189307851Y-113512032D01*
X189321692Y-113517541D01*
X189331906Y-113524922D01*
X189337051Y-113530929D01*
X189340655Y-113537093D01*
X189346065Y-113547714D01*
X189352629Y-113561455D01*
X189359695Y-113576975D01*
X189361866Y-113581893D01*
X189369792Y-113599706D01*
X189378197Y-113618112D01*
X189386127Y-113635056D01*
X189392632Y-113648480D01*
X189393188Y-113649590D01*
X189398941Y-113661517D01*
X189403389Y-113671662D01*
X189405875Y-113678485D01*
X189406179Y-113680094D01*
X189403241Y-113684313D01*
X189395264Y-113688450D01*
X189383506Y-113692280D01*
X189369224Y-113695576D01*
X189353674Y-113698113D01*
X189338114Y-113699664D01*
X189323802Y-113700004D01*
X189311994Y-113698905D01*
X189307622Y-113697814D01*
X189293759Y-113690319D01*
X189280171Y-113677525D01*
X189267749Y-113660396D01*
X189260377Y-113646664D01*
X189256165Y-113636958D01*
X189250392Y-113622495D01*
X189243245Y-113603820D01*
X189234915Y-113581480D01*
X189225590Y-113556020D01*
X189215460Y-113527987D01*
X189204714Y-113497927D01*
X189193541Y-113466384D01*
X189182130Y-113433906D01*
X189170670Y-113401037D01*
X189159351Y-113368324D01*
X189148362Y-113336313D01*
X189137892Y-113305550D01*
X189128130Y-113276580D01*
X189119266Y-113249949D01*
X189111488Y-113226204D01*
X189104986Y-113205890D01*
X189099949Y-113189552D01*
X189096566Y-113177738D01*
X189095026Y-113170992D01*
X189095042Y-113169629D01*
X189099838Y-113166246D01*
X189109404Y-113161399D01*
X189122525Y-113155573D01*
X189137982Y-113149252D01*
X189154558Y-113142921D01*
X189171036Y-113137063D01*
X189186199Y-113132164D01*
X189196389Y-113129304D01*
X189247336Y-113119489D01*
X189298359Y-113115702D01*
X189348951Y-113117816D01*
G37*
G36*
X188678964Y-112928300D02*
G01*
X188727460Y-112937303D01*
X188773879Y-112952230D01*
X188818144Y-112973047D01*
X188860176Y-112999716D01*
X188899900Y-113032203D01*
X188934184Y-113067024D01*
X188948852Y-113084207D01*
X188962685Y-113102131D01*
X188975906Y-113121276D01*
X188988741Y-113142119D01*
X189001415Y-113165140D01*
X189014153Y-113190818D01*
X189027181Y-113219632D01*
X189040723Y-113252061D01*
X189055004Y-113288583D01*
X189070249Y-113329677D01*
X189086685Y-113375824D01*
X189104535Y-113427500D01*
X189106987Y-113434697D01*
X189125949Y-113489809D01*
X189143405Y-113539160D01*
X189159516Y-113583061D01*
X189174446Y-113621823D01*
X189188357Y-113655757D01*
X189201411Y-113685174D01*
X189213769Y-113710385D01*
X189225596Y-113731702D01*
X189237052Y-113749434D01*
X189248300Y-113763893D01*
X189259503Y-113775391D01*
X189270823Y-113784238D01*
X189282422Y-113790746D01*
X189294462Y-113795224D01*
X189295229Y-113795443D01*
X189314073Y-113798073D01*
X189336418Y-113796764D01*
X189361047Y-113791747D01*
X189386744Y-113783255D01*
X189407285Y-113774098D01*
X189416469Y-113770065D01*
X189423656Y-113767919D01*
X189426276Y-113767875D01*
X189428662Y-113770707D01*
X189434025Y-113778196D01*
X189441944Y-113789695D01*
X189451996Y-113804560D01*
X189463759Y-113822146D01*
X189476811Y-113841807D01*
X189490731Y-113862899D01*
X189505095Y-113884776D01*
X189519482Y-113906794D01*
X189533469Y-113928308D01*
X189546635Y-113948672D01*
X189558557Y-113967242D01*
X189568814Y-113983373D01*
X189576982Y-113996419D01*
X189582641Y-114005735D01*
X189585367Y-114010678D01*
X189585551Y-114011243D01*
X189583789Y-114014890D01*
X189579149Y-114022335D01*
X189572457Y-114032288D01*
X189568489Y-114037954D01*
X189543923Y-114067313D01*
X189515383Y-114091936D01*
X189483150Y-114111727D01*
X189447509Y-114126592D01*
X189408741Y-114136434D01*
X189367129Y-114141159D01*
X189322955Y-114140671D01*
X189279760Y-114135444D01*
X189227763Y-114123558D01*
X189179013Y-114106283D01*
X189133544Y-114083644D01*
X189091391Y-114055669D01*
X189052589Y-114022385D01*
X189017173Y-113983818D01*
X188985177Y-113939995D01*
X188956637Y-113890944D01*
X188952815Y-113883454D01*
X188945623Y-113868865D01*
X188938951Y-113854685D01*
X188932443Y-113840036D01*
X188925746Y-113824044D01*
X188918505Y-113805833D01*
X188910365Y-113784526D01*
X188900971Y-113759247D01*
X188889970Y-113729121D01*
X188886786Y-113720342D01*
X188863206Y-113656735D01*
X188840497Y-113598498D01*
X188818708Y-113545733D01*
X188797888Y-113498541D01*
X188778084Y-113457026D01*
X188759346Y-113421290D01*
X188741721Y-113391435D01*
X188725259Y-113367563D01*
X188712357Y-113352200D01*
X188695384Y-113335691D01*
X188679789Y-113324107D01*
X188664116Y-113316750D01*
X188646910Y-113312919D01*
X188628468Y-113311910D01*
X188614276Y-113312190D01*
X188603756Y-113313404D01*
X188594292Y-113316127D01*
X188583270Y-113320937D01*
X188579713Y-113322656D01*
X188563125Y-113332230D01*
X188546652Y-113344892D01*
X188529802Y-113361169D01*
X188512088Y-113381589D01*
X188493018Y-113406680D01*
X188472104Y-113436968D01*
X188468337Y-113442663D01*
X188430066Y-113500818D01*
X188569412Y-113502393D01*
X188708758Y-113503967D01*
X188719038Y-113511300D01*
X188724008Y-113515171D01*
X188728245Y-113519553D01*
X188732174Y-113525317D01*
X188736219Y-113533334D01*
X188740802Y-113544474D01*
X188746349Y-113559610D01*
X188753283Y-113579612D01*
X188755640Y-113586524D01*
X188762372Y-113606180D01*
X188769440Y-113626595D01*
X188776154Y-113645795D01*
X188781825Y-113661801D01*
X188783662Y-113666908D01*
X188794778Y-113697608D01*
X188649809Y-113697608D01*
X188615811Y-113697600D01*
X188587535Y-113697561D01*
X188564403Y-113697466D01*
X188545840Y-113697290D01*
X188531269Y-113697011D01*
X188520115Y-113696602D01*
X188511802Y-113696040D01*
X188505752Y-113695300D01*
X188501390Y-113694359D01*
X188498140Y-113693192D01*
X188495425Y-113691774D01*
X188494207Y-113691036D01*
X188485916Y-113684070D01*
X188478028Y-113674585D01*
X188475967Y-113671357D01*
X188473421Y-113665731D01*
X188469130Y-113654787D01*
X188463329Y-113639185D01*
X188456254Y-113619583D01*
X188448142Y-113596642D01*
X188439227Y-113571021D01*
X188429745Y-113543380D01*
X188421197Y-113518136D01*
X188402867Y-113464022D01*
X188385943Y-113414820D01*
X188370022Y-113369411D01*
X188354699Y-113326676D01*
X188339571Y-113285494D01*
X188324234Y-113244746D01*
X188308286Y-113203313D01*
X188300894Y-113184381D01*
X188291827Y-113160823D01*
X188285164Y-113142159D01*
X188280784Y-113127512D01*
X188278569Y-113116006D01*
X188278398Y-113106766D01*
X188280152Y-113098914D01*
X188283712Y-113091575D01*
X188287455Y-113085934D01*
X188296031Y-113075707D01*
X188308651Y-113062942D01*
X188324161Y-113048649D01*
X188341402Y-113033839D01*
X188359218Y-113019522D01*
X188376453Y-113006708D01*
X188384449Y-113001209D01*
X188430185Y-112973973D01*
X188476448Y-112952899D01*
X188523673Y-112937850D01*
X188572295Y-112928691D01*
X188622750Y-112925288D01*
X188628468Y-112925259D01*
X188678964Y-112928300D01*
G37*
G36*
X185872238Y-113773196D02*
G01*
X185929598Y-113773262D01*
X185980942Y-113773373D01*
X186026411Y-113773530D01*
X186066144Y-113773734D01*
X186100284Y-113773988D01*
X186128970Y-113774292D01*
X186152343Y-113774647D01*
X186170543Y-113775055D01*
X186183712Y-113775517D01*
X186191989Y-113776034D01*
X186195482Y-113776592D01*
X186202630Y-113781853D01*
X186207949Y-113788418D01*
X186210702Y-113795373D01*
X186214178Y-113807781D01*
X186218235Y-113824858D01*
X186222730Y-113845821D01*
X186227521Y-113869884D01*
X186232465Y-113896265D01*
X186237420Y-113924179D01*
X186242242Y-113952841D01*
X186246790Y-113981468D01*
X186250920Y-114009276D01*
X186254491Y-114035481D01*
X186257359Y-114059298D01*
X186257575Y-114061274D01*
X186258570Y-114073350D01*
X186259515Y-114090152D01*
X186260384Y-114110511D01*
X186261152Y-114133260D01*
X186261792Y-114157227D01*
X186262280Y-114181245D01*
X186262588Y-114204144D01*
X186262691Y-114224756D01*
X186262563Y-114241910D01*
X186262179Y-114254438D01*
X186261932Y-114258064D01*
X186256702Y-114307227D01*
X186250156Y-114350878D01*
X186242162Y-114389688D01*
X186232587Y-114424329D01*
X186224410Y-114447666D01*
X186203557Y-114493076D01*
X186177220Y-114535695D01*
X186145731Y-114575139D01*
X186109424Y-114611026D01*
X186068632Y-114642973D01*
X186036598Y-114663363D01*
X186025868Y-114670052D01*
X186018046Y-114675818D01*
X186014205Y-114679828D01*
X186014074Y-114680861D01*
X186016727Y-114684761D01*
X186022087Y-114692387D01*
X186029181Y-114702358D01*
X186032259Y-114706657D01*
X186056408Y-114744937D01*
X186077277Y-114787550D01*
X186094245Y-114833118D01*
X186102573Y-114862411D01*
X186105669Y-114875366D01*
X186107901Y-114886736D01*
X186109409Y-114898019D01*
X186110335Y-114910715D01*
X186110820Y-114926326D01*
X186111004Y-114946351D01*
X186111020Y-114952337D01*
X186110963Y-114973841D01*
X186110623Y-114990446D01*
X186109881Y-115003547D01*
X186108618Y-115014540D01*
X186106714Y-115024820D01*
X186104050Y-115035783D01*
X186103803Y-115036718D01*
X186089116Y-115081024D01*
X186069505Y-115121405D01*
X186044975Y-115157854D01*
X186015529Y-115190368D01*
X185981170Y-115218941D01*
X185941904Y-115243568D01*
X185934714Y-115247376D01*
X185919248Y-115254897D01*
X185902523Y-115262291D01*
X185887395Y-115268316D01*
X185882820Y-115269935D01*
X185859247Y-115277865D01*
X185857203Y-115341802D01*
X185855210Y-115387518D01*
X185852290Y-115427504D01*
X185848352Y-115462269D01*
X185843308Y-115492327D01*
X185837067Y-115518186D01*
X185829542Y-115540358D01*
X185820641Y-115559354D01*
X185818413Y-115563287D01*
X185808276Y-115576996D01*
X185794211Y-115591287D01*
X185778153Y-115604445D01*
X185762038Y-115614755D01*
X185758078Y-115616757D01*
X185744236Y-115622323D01*
X185726249Y-115628167D01*
X185706212Y-115633724D01*
X185686218Y-115638425D01*
X185668363Y-115641705D01*
X185663482Y-115642357D01*
X185654183Y-115643823D01*
X185648095Y-115645496D01*
X185646715Y-115646530D01*
X185647157Y-115650398D01*
X185648350Y-115659047D01*
X185650090Y-115671037D01*
X185651419Y-115679945D01*
X185654093Y-115703488D01*
X185655662Y-115730083D01*
X185656142Y-115757980D01*
X185655544Y-115785426D01*
X185653883Y-115810668D01*
X185651172Y-115831954D01*
X185650198Y-115837102D01*
X185638229Y-115879665D01*
X185620674Y-115919700D01*
X185597853Y-115956862D01*
X185570087Y-115990808D01*
X185537696Y-116021194D01*
X185501000Y-116047676D01*
X185460320Y-116069909D01*
X185417473Y-116087051D01*
X185404444Y-116091266D01*
X185393373Y-116094574D01*
X185385807Y-116096528D01*
X185383625Y-116096864D01*
X185381080Y-116095360D01*
X185379654Y-116090117D01*
X185379108Y-116080034D01*
X185379081Y-116075861D01*
X185378976Y-116068908D01*
X185378674Y-116056291D01*
X185378194Y-116038640D01*
X185377555Y-116016586D01*
X185376775Y-115990760D01*
X185375874Y-115961790D01*
X185374871Y-115930307D01*
X185373785Y-115896941D01*
X185372800Y-115867264D01*
X185371469Y-115827481D01*
X185370045Y-115784802D01*
X185368569Y-115740511D01*
X185367084Y-115695890D01*
X185365632Y-115652221D01*
X185364258Y-115610787D01*
X185363002Y-115572870D01*
X185361908Y-115539753D01*
X185361746Y-115534833D01*
X185359060Y-115454786D01*
X185356420Y-115378927D01*
X185353832Y-115307436D01*
X185351304Y-115240496D01*
X185348844Y-115178286D01*
X185346461Y-115120988D01*
X185344161Y-115068783D01*
X185341954Y-115021852D01*
X185339846Y-114980377D01*
X185337846Y-114944538D01*
X185335962Y-114914517D01*
X185334201Y-114890494D01*
X185333142Y-114878344D01*
X185323372Y-114797515D01*
X185309450Y-114718314D01*
X185291116Y-114639721D01*
X185268108Y-114560713D01*
X185240166Y-114480270D01*
X185215088Y-114416622D01*
X185199362Y-114376741D01*
X185186954Y-114340869D01*
X185177618Y-114307820D01*
X185171109Y-114276412D01*
X185167178Y-114245462D01*
X185165582Y-114213784D01*
X185166042Y-114180922D01*
X185169130Y-114140080D01*
X185174931Y-114104687D01*
X185183564Y-114074457D01*
X185195147Y-114049102D01*
X185209796Y-114028335D01*
X185227631Y-114011869D01*
X185238156Y-114004938D01*
X185246645Y-114000689D01*
X185259272Y-113995233D01*
X185274191Y-113989336D01*
X185286676Y-113984768D01*
X185323163Y-113970040D01*
X185353780Y-113953521D01*
X185378735Y-113935060D01*
X185398236Y-113914507D01*
X185410442Y-113895731D01*
X185418718Y-113878389D01*
X185424328Y-113861670D01*
X185427687Y-113843659D01*
X185429213Y-113822440D01*
X185429422Y-113808597D01*
X185429459Y-113773175D01*
X185808721Y-113773175D01*
X185872238Y-113773196D01*
G37*
G36*
X185393328Y-111105530D02*
G01*
X185405317Y-111109365D01*
X185419605Y-111114515D01*
X185435041Y-111120562D01*
X185450472Y-111127088D01*
X185464749Y-111133679D01*
X185466130Y-111134355D01*
X185507669Y-111158003D01*
X185544546Y-111185595D01*
X185576577Y-111216897D01*
X185603576Y-111251680D01*
X185625357Y-111289712D01*
X185641735Y-111330760D01*
X185650584Y-111364458D01*
X185652866Y-111376413D01*
X185654440Y-111387534D01*
X185655376Y-111399238D01*
X185655747Y-111412942D01*
X185655625Y-111430063D01*
X185655081Y-111452021D01*
X185655063Y-111452634D01*
X185654257Y-111473083D01*
X185653104Y-111493136D01*
X185651719Y-111511229D01*
X185650220Y-111525801D01*
X185649052Y-111533681D01*
X185644760Y-111556478D01*
X185654396Y-111557950D01*
X185663026Y-111559122D01*
X185674724Y-111560534D01*
X185682307Y-111561378D01*
X185717181Y-111567610D01*
X185748555Y-111578320D01*
X185776054Y-111593236D01*
X185799302Y-111612090D01*
X185817922Y-111634609D01*
X185831539Y-111660524D01*
X185835402Y-111671458D01*
X185840547Y-111691287D01*
X185845599Y-111717022D01*
X185850500Y-111748275D01*
X185855193Y-111784655D01*
X185859619Y-111825772D01*
X185861798Y-111848923D01*
X185868693Y-111925626D01*
X185897740Y-111935983D01*
X185939575Y-111954010D01*
X185977332Y-111976584D01*
X186010845Y-112003323D01*
X186039951Y-112033843D01*
X186064487Y-112067759D01*
X186084290Y-112104687D01*
X186099195Y-112144245D01*
X186109040Y-112186049D01*
X186113661Y-112229714D01*
X186112893Y-112274857D01*
X186106575Y-112321095D01*
X186094541Y-112368043D01*
X186088929Y-112384629D01*
X186078387Y-112410581D01*
X186064875Y-112438814D01*
X186049630Y-112466919D01*
X186033886Y-112492488D01*
X186032541Y-112494502D01*
X186025341Y-112505758D01*
X186020063Y-112515094D01*
X186017344Y-112521312D01*
X186017294Y-112523159D01*
X186020748Y-112525684D01*
X186028345Y-112530967D01*
X186038996Y-112538259D01*
X186051613Y-112546812D01*
X186052888Y-112547672D01*
X186084363Y-112570013D01*
X186111240Y-112591757D01*
X186134916Y-112614235D01*
X186156789Y-112638781D01*
X186178253Y-112666726D01*
X186179540Y-112668515D01*
X186203228Y-112706225D01*
X186223481Y-112748012D01*
X186239767Y-112792363D01*
X186251555Y-112837766D01*
X186258313Y-112882710D01*
X186259238Y-112895121D01*
X186260075Y-112909827D01*
X186260869Y-112923678D01*
X186261490Y-112934397D01*
X186261656Y-112937213D01*
X186261914Y-112946619D01*
X186261900Y-112959652D01*
X186261619Y-112973648D01*
X186261577Y-112974997D01*
X186260679Y-112993174D01*
X186259080Y-113015474D01*
X186256862Y-113041261D01*
X186254105Y-113069897D01*
X186250891Y-113100747D01*
X186247301Y-113133174D01*
X186243417Y-113166540D01*
X186239320Y-113200209D01*
X186235091Y-113233545D01*
X186230811Y-113265910D01*
X186226562Y-113296668D01*
X186222426Y-113325182D01*
X186218482Y-113350816D01*
X186214813Y-113372932D01*
X186211501Y-113390894D01*
X186208625Y-113404065D01*
X186206269Y-113411809D01*
X186205643Y-113413028D01*
X186197807Y-113422143D01*
X186187804Y-113427819D01*
X186174194Y-113430659D01*
X186162066Y-113431279D01*
X186150758Y-113431344D01*
X186134228Y-113431342D01*
X186112970Y-113431275D01*
X186087477Y-113431150D01*
X186058244Y-113430971D01*
X186025765Y-113430744D01*
X185990534Y-113430473D01*
X185953045Y-113430164D01*
X185913791Y-113429821D01*
X185873266Y-113429450D01*
X185831965Y-113429055D01*
X185790382Y-113428642D01*
X185749010Y-113428215D01*
X185708343Y-113427780D01*
X185668875Y-113427342D01*
X185631101Y-113426906D01*
X185595514Y-113426476D01*
X185562609Y-113426058D01*
X185532878Y-113425657D01*
X185506817Y-113425278D01*
X185484918Y-113424925D01*
X185467677Y-113424605D01*
X185455587Y-113424321D01*
X185449141Y-113424079D01*
X185448351Y-113424012D01*
X185434182Y-113422044D01*
X185431752Y-113400033D01*
X185427633Y-113368522D01*
X185422672Y-113342386D01*
X185416532Y-113320724D01*
X185408878Y-113302636D01*
X185399372Y-113287221D01*
X185387680Y-113273576D01*
X185382839Y-113268894D01*
X185369676Y-113257767D01*
X185355283Y-113247922D01*
X185338452Y-113238701D01*
X185317972Y-113229445D01*
X185292634Y-113219495D01*
X185290919Y-113218857D01*
X185266258Y-113209012D01*
X185246610Y-113199475D01*
X185230776Y-113189526D01*
X185217554Y-113178449D01*
X185209787Y-113170297D01*
X185194630Y-113149050D01*
X185182659Y-113123257D01*
X185173813Y-113092686D01*
X185168033Y-113057103D01*
X185165259Y-113016276D01*
X185164974Y-112996561D01*
X185165567Y-112968528D01*
X185167537Y-112942786D01*
X185171175Y-112918067D01*
X185176770Y-112893101D01*
X185184611Y-112866621D01*
X185194989Y-112837355D01*
X185208191Y-112804037D01*
X185209754Y-112800248D01*
X185243888Y-112711006D01*
X185272957Y-112620238D01*
X185297156Y-112527194D01*
X185316677Y-112431118D01*
X185331714Y-112331259D01*
X185333284Y-112318508D01*
X185335206Y-112302215D01*
X185337006Y-112286225D01*
X185338697Y-112270244D01*
X185340290Y-112253979D01*
X185341798Y-112237137D01*
X185343233Y-112219424D01*
X185344609Y-112200549D01*
X185345936Y-112180217D01*
X185347229Y-112158137D01*
X185348498Y-112134014D01*
X185349758Y-112107555D01*
X185351019Y-112078469D01*
X185352295Y-112046461D01*
X185353597Y-112011239D01*
X185354939Y-111972510D01*
X185356333Y-111929980D01*
X185357791Y-111883357D01*
X185359325Y-111832347D01*
X185360948Y-111776658D01*
X185362673Y-111715997D01*
X185364511Y-111650070D01*
X185366476Y-111578584D01*
X185368580Y-111501247D01*
X185369720Y-111459094D01*
X185370993Y-111412417D01*
X185372245Y-111367512D01*
X185373461Y-111324778D01*
X185374630Y-111284616D01*
X185375739Y-111247424D01*
X185376776Y-111213604D01*
X185377727Y-111183554D01*
X185378582Y-111157674D01*
X185379326Y-111136364D01*
X185379948Y-111120023D01*
X185380435Y-111109051D01*
X185380774Y-111103849D01*
X185380849Y-111103468D01*
X185384788Y-111103425D01*
X185393328Y-111105530D01*
G37*
G36*
X186833398Y-112361618D02*
G01*
X186878809Y-112371682D01*
X186924145Y-112387497D01*
X186969043Y-112409135D01*
X187013142Y-112436669D01*
X187025083Y-112445286D01*
X187074476Y-112485484D01*
X187121438Y-112530868D01*
X187166085Y-112581587D01*
X187208529Y-112637789D01*
X187248886Y-112699622D01*
X187287269Y-112767236D01*
X187315379Y-112822972D01*
X187346989Y-112893416D01*
X187374634Y-112964926D01*
X187398494Y-113038213D01*
X187418750Y-113113983D01*
X187435583Y-113192946D01*
X187449172Y-113275809D01*
X187459698Y-113363283D01*
X187463521Y-113404785D01*
X187465705Y-113430374D01*
X187467767Y-113453375D01*
X187469822Y-113474770D01*
X187471985Y-113495541D01*
X187474370Y-113516668D01*
X187477094Y-113539134D01*
X187480270Y-113563919D01*
X187484014Y-113592006D01*
X187488442Y-113624376D01*
X187493581Y-113661398D01*
X187498324Y-113694754D01*
X187502535Y-113722707D01*
X187506398Y-113746112D01*
X187510093Y-113765825D01*
X187513801Y-113782700D01*
X187517704Y-113797591D01*
X187521983Y-113811353D01*
X187526819Y-113824842D01*
X187529989Y-113832969D01*
X187546304Y-113867007D01*
X187566210Y-113896907D01*
X187589270Y-113922328D01*
X187615046Y-113942929D01*
X187643103Y-113958370D01*
X187673002Y-113968310D01*
X187704307Y-113972408D01*
X187708956Y-113972497D01*
X187732371Y-113971325D01*
X187754249Y-113967196D01*
X187776895Y-113959565D01*
X187792506Y-113952755D01*
X187814061Y-113941607D01*
X187833879Y-113928839D01*
X187852543Y-113913830D01*
X187870638Y-113895954D01*
X187888749Y-113874588D01*
X187907460Y-113849108D01*
X187927354Y-113818890D01*
X187945215Y-113789713D01*
X187952407Y-113777884D01*
X187958449Y-113768373D01*
X187962614Y-113762294D01*
X187964107Y-113760652D01*
X187965818Y-113763361D01*
X187970032Y-113771104D01*
X187976439Y-113783279D01*
X187984728Y-113799285D01*
X187994589Y-113818523D01*
X188005711Y-113840392D01*
X188017783Y-113864291D01*
X188021455Y-113871589D01*
X188035010Y-113898449D01*
X188048803Y-113925581D01*
X188062320Y-113951989D01*
X188075050Y-113976677D01*
X188086478Y-113998652D01*
X188096093Y-114016918D01*
X188103003Y-114029788D01*
X188117120Y-114055698D01*
X188128493Y-114076726D01*
X188137417Y-114093506D01*
X188144186Y-114106673D01*
X188149095Y-114116861D01*
X188152437Y-114124704D01*
X188154508Y-114130836D01*
X188155602Y-114135892D01*
X188156013Y-114140505D01*
X188156050Y-114144055D01*
X188155066Y-114155371D01*
X188152753Y-114165739D01*
X188151793Y-114168328D01*
X188147613Y-114175745D01*
X188140029Y-114187095D01*
X188129707Y-114201504D01*
X188117311Y-114218098D01*
X188103504Y-114236003D01*
X188088953Y-114254344D01*
X188074320Y-114272248D01*
X188060271Y-114288839D01*
X188059655Y-114289550D01*
X188027057Y-114324865D01*
X187995179Y-114354537D01*
X187963272Y-114379046D01*
X187930588Y-114398872D01*
X187896378Y-114414494D01*
X187859893Y-114426395D01*
X187838161Y-114431618D01*
X187817182Y-114435005D01*
X187791922Y-114437383D01*
X187764299Y-114438717D01*
X187736232Y-114438968D01*
X187709640Y-114438098D01*
X187686441Y-114436070D01*
X187677581Y-114434763D01*
X187623247Y-114423139D01*
X187572629Y-114407522D01*
X187524314Y-114387343D01*
X187476886Y-114362034D01*
X187442600Y-114340387D01*
X187387382Y-114299731D01*
X187336840Y-114254899D01*
X187290965Y-114205875D01*
X187249744Y-114152641D01*
X187213167Y-114095181D01*
X187181223Y-114033476D01*
X187153901Y-113967509D01*
X187131189Y-113897264D01*
X187114179Y-113828007D01*
X187109859Y-113806887D01*
X187106050Y-113786617D01*
X187102673Y-113766471D01*
X187099651Y-113745722D01*
X187096906Y-113723643D01*
X187094361Y-113699509D01*
X187091938Y-113672591D01*
X187089559Y-113642164D01*
X187087147Y-113607501D01*
X187084623Y-113567875D01*
X187082390Y-113530730D01*
X187079123Y-113478972D01*
X187075702Y-113432452D01*
X187072020Y-113390109D01*
X187067970Y-113350885D01*
X187063445Y-113313720D01*
X187058336Y-113277553D01*
X187053986Y-113250007D01*
X187042721Y-113188187D01*
X187029496Y-113127126D01*
X187014560Y-113067647D01*
X186998160Y-113010575D01*
X186980543Y-112956732D01*
X186961959Y-112906942D01*
X186942654Y-112862029D01*
X186928519Y-112833309D01*
X186910961Y-112800803D01*
X186895016Y-112773760D01*
X186880162Y-112751719D01*
X186865875Y-112734218D01*
X186851632Y-112720796D01*
X186836908Y-112710992D01*
X186821181Y-112704346D01*
X186803927Y-112700395D01*
X186784624Y-112698680D01*
X186775499Y-112698514D01*
X186758850Y-112698808D01*
X186746660Y-112699905D01*
X186737115Y-112702058D01*
X186729843Y-112704853D01*
X186718540Y-112710745D01*
X186709971Y-112717519D01*
X186703775Y-112726097D01*
X186699588Y-112737404D01*
X186697050Y-112752361D01*
X186695797Y-112771891D01*
X186695473Y-112792376D01*
X186696240Y-112819034D01*
X186699131Y-112841186D01*
X186704751Y-112860438D01*
X186713705Y-112878396D01*
X186726599Y-112896666D01*
X186741179Y-112913720D01*
X186768712Y-112946888D01*
X186790661Y-112979721D01*
X186807566Y-113013363D01*
X186819965Y-113048958D01*
X186828397Y-113087647D01*
X186830727Y-113103823D01*
X186833066Y-113134027D01*
X186832949Y-113166150D01*
X186830572Y-113199013D01*
X186826132Y-113231437D01*
X186819824Y-113262243D01*
X186811843Y-113290252D01*
X186802387Y-113314284D01*
X186792945Y-113331288D01*
X186776985Y-113350082D01*
X186757507Y-113364116D01*
X186734352Y-113373430D01*
X186707359Y-113378065D01*
X186676371Y-113378059D01*
X186641226Y-113373454D01*
X186632128Y-113371663D01*
X186590025Y-113359729D01*
X186549848Y-113342090D01*
X186512362Y-113319215D01*
X186478331Y-113291573D01*
X186448523Y-113259634D01*
X186447651Y-113258551D01*
X186423009Y-113222838D01*
X186402971Y-113183120D01*
X186387746Y-113139901D01*
X186377543Y-113093688D01*
X186376565Y-113087265D01*
X186375204Y-113073917D01*
X186374123Y-113055400D01*
X186373322Y-113032836D01*
X186372798Y-113007349D01*
X186372553Y-112980059D01*
X186372585Y-112952090D01*
X186372893Y-112924563D01*
X186373478Y-112898601D01*
X186374337Y-112875326D01*
X186375472Y-112855861D01*
X186376700Y-112842755D01*
X186385247Y-112784498D01*
X186396258Y-112729063D01*
X186409538Y-112677151D01*
X186424892Y-112629465D01*
X186442126Y-112586706D01*
X186454671Y-112561082D01*
X186480951Y-112517682D01*
X186510772Y-112479299D01*
X186543772Y-112446005D01*
X186579588Y-112417874D01*
X186617860Y-112394979D01*
X186658227Y-112377394D01*
X186700325Y-112365192D01*
X186743794Y-112358446D01*
X186788272Y-112357230D01*
X186833398Y-112361618D01*
G37*
D14*
%TO.C,C5*%
X122909420Y-57020000D02*
X123190580Y-57020000D01*
X122909420Y-58040000D02*
X123190580Y-58040000D01*
%TO.C,R3*%
X151077500Y-73103492D02*
X151077500Y-73578008D01*
X152122500Y-73103492D02*
X152122500Y-73578008D01*
%TO.C,D4*%
X136550000Y-80450000D02*
X136550000Y-79800000D01*
X136550000Y-80450000D02*
X136550000Y-82125000D01*
X139850000Y-80450000D02*
X139850000Y-79800000D01*
X139850000Y-80450000D02*
X139850000Y-81100000D01*
D17*
%TO.C,J2*%
X117780000Y-47080000D02*
X117780000Y-47430000D01*
X117780000Y-50670000D02*
X117780000Y-49990000D01*
X126720000Y-47080000D02*
X117780000Y-47080000D01*
X126720000Y-47430000D02*
X126720000Y-47080000D01*
X126720000Y-50670000D02*
X126720000Y-49990000D01*
X125325000Y-54520000D02*
G75*
G02*
X125125000Y-54520000I-100000J0D01*
G01*
X125125000Y-54520000D02*
G75*
G02*
X125325000Y-54520000I100000J0D01*
G01*
D14*
%TO.C,U1*%
X141520000Y-104300000D02*
X141520000Y-124620000D01*
X149160000Y-102930000D02*
X149160000Y-105670000D01*
X149160000Y-105670000D02*
X174760000Y-105670000D01*
X149160000Y-123250000D02*
X149160000Y-125990000D01*
X149160000Y-125990000D02*
X174760000Y-125990000D01*
X174760000Y-102930000D02*
X149160000Y-102930000D01*
X174760000Y-105670000D02*
X174760000Y-102930000D01*
X174760000Y-123250000D02*
X149160000Y-123250000D01*
X174760000Y-125990000D02*
X174760000Y-123250000D01*
X177200000Y-101640000D02*
X144180000Y-101640000D01*
X177200000Y-127280000D02*
X144180000Y-127280000D01*
X178240000Y-101510000D02*
X179990000Y-101510000D01*
X179860000Y-104300000D02*
X179860000Y-124620000D01*
X179990000Y-101510000D02*
X179990000Y-103260000D01*
X141520000Y-104300000D02*
G75*
G02*
X144180000Y-101640000I2660000J0D01*
G01*
X144180000Y-127280000D02*
G75*
G02*
X141520000Y-124620000I0J2660000D01*
G01*
X177200000Y-101640000D02*
G75*
G02*
X179860000Y-104300000I0J-2660000D01*
G01*
X179860000Y-124620000D02*
G75*
G02*
X177200000Y-127280000I-2660000J0D01*
G01*
D17*
%TO.C,U3*%
X135399999Y-60500833D02*
X136799999Y-60500833D01*
X135800001Y-62400835D02*
X136799999Y-62400835D01*
D15*
%TO.C,Q4*%
X141479750Y-85695599D02*
X141479750Y-89645950D01*
X141479750Y-89645950D02*
X146115250Y-89645950D01*
X146115250Y-89645950D02*
X146115250Y-91423950D01*
X146115250Y-91423950D02*
X147766250Y-91423950D01*
X147766250Y-89645950D02*
X152401750Y-89645950D01*
X147766250Y-91423950D02*
X147766250Y-89645950D01*
X152401750Y-89645950D02*
X152401750Y-85695599D01*
%TO.C,Q1*%
X163679750Y-62305699D02*
X163679750Y-66256050D01*
X163679750Y-66256050D02*
X168315250Y-66256050D01*
X168315250Y-66256050D02*
X168315250Y-68034050D01*
X168315250Y-68034050D02*
X169966250Y-68034050D01*
X169966250Y-66256050D02*
X174601750Y-66256050D01*
X169966250Y-68034050D02*
X169966250Y-66256050D01*
X174601750Y-66256050D02*
X174601750Y-62305699D01*
D14*
%TO.C,R15*%
X134877500Y-57862742D02*
X134877500Y-58337258D01*
X135922500Y-57862742D02*
X135922500Y-58337258D01*
%TO.C,R9*%
X136903641Y-105770000D02*
X136596359Y-105770000D01*
X136903641Y-106530000D02*
X136596359Y-106530000D01*
%TO.C,C8*%
X133165580Y-61540834D02*
X132884420Y-61540834D01*
X133165580Y-62560834D02*
X132884420Y-62560834D01*
%TO.C,LS1*%
X127250000Y-124450000D02*
X135150000Y-124450000D01*
X135150000Y-128450000D01*
X127250000Y-128450000D01*
X127250000Y-124450000D01*
%TO.C,R12*%
X126237258Y-82377500D02*
X125762742Y-82377500D01*
X126237258Y-83422500D02*
X125762742Y-83422500D01*
D18*
%TO.C,U4*%
X114730000Y-101423000D02*
X135050000Y-101423000D01*
X114730000Y-121743000D02*
X114730000Y-101423000D01*
X135050000Y-101423000D02*
X135050000Y-121743000D01*
X135050000Y-121743000D02*
X114730000Y-121743000D01*
D17*
X116100000Y-122383000D02*
G75*
G02*
X115900000Y-122383000I-100000J0D01*
G01*
X115900000Y-122383000D02*
G75*
G02*
X116100000Y-122383000I100000J0D01*
G01*
D14*
%TO.C,C1*%
X127765566Y-75841414D02*
X127765566Y-75560254D01*
X128785566Y-75841414D02*
X128785566Y-75560254D01*
%TO.C,R16*%
X133177500Y-58288092D02*
X133177500Y-57813576D01*
X134222500Y-58288092D02*
X134222500Y-57813576D01*
%TO.C,C9*%
X141590000Y-61410254D02*
X141590000Y-61691414D01*
X142610000Y-61410254D02*
X142610000Y-61691414D01*
%TO.C,D1*%
X183850000Y-80830000D02*
X183850000Y-80180000D01*
X183850000Y-80830000D02*
X183850000Y-82505000D01*
X187150000Y-80830000D02*
X187150000Y-80180000D01*
X187150000Y-80830000D02*
X187150000Y-81480000D01*
D15*
%TO.C,LED1*%
X137706000Y-51013200D02*
X137706000Y-51521200D01*
X138214000Y-51013200D02*
X137706000Y-51267200D01*
X138214000Y-51013200D02*
X138214000Y-51521200D01*
X138214000Y-51521200D02*
X137706000Y-51267200D01*
X138595000Y-44155200D02*
X138595000Y-48171085D01*
X138595000Y-49283315D02*
X138595000Y-50168889D01*
X138595000Y-52365511D02*
X138595000Y-52791200D01*
X138595000Y-52791200D02*
X143167000Y-52791200D01*
X139255400Y-44155200D02*
X139255400Y-42707400D01*
X142506600Y-44155200D02*
X142506600Y-42707400D01*
X143167000Y-44155200D02*
X138595000Y-44155200D01*
X143167000Y-48171085D02*
X143167000Y-44155200D01*
X143167000Y-50711085D02*
X143167000Y-49283315D01*
X143167000Y-52791200D02*
X143167000Y-51823315D01*
X139255400Y-42834400D02*
G75*
G02*
X142506600Y-42834400I1625600J0D01*
G01*
D14*
%TO.C,D3*%
X158090750Y-68840750D02*
X158090750Y-68190750D01*
X158090750Y-68840750D02*
X158090750Y-70515750D01*
X161390750Y-68840750D02*
X161390750Y-68190750D01*
X161390750Y-68840750D02*
X161390750Y-69490750D01*
D15*
%TO.C,D14*%
X114121300Y-49094500D02*
X114121300Y-49409460D01*
X114121300Y-50430540D02*
X114121300Y-50745500D01*
X114121300Y-50745500D02*
X116178700Y-50745500D01*
X116178700Y-49094500D02*
X114121300Y-49094500D01*
X116178700Y-49409460D02*
X116178700Y-49094500D01*
X116178700Y-50745500D02*
X116178700Y-50430540D01*
D14*
%TO.C,R17*%
X146062742Y-50827500D02*
X146537258Y-50827500D01*
X146062742Y-51872500D02*
X146537258Y-51872500D01*
%TO.C,D2*%
X173020750Y-69240750D02*
X173020750Y-68590750D01*
X173020750Y-69240750D02*
X173020750Y-69890750D01*
X176320750Y-69240750D02*
X176320750Y-67565750D01*
X176320750Y-69240750D02*
X176320750Y-69890750D01*
D17*
%TO.C,Q10*%
X115625000Y-71850000D02*
X116375000Y-71850000D01*
X116725000Y-72000000D02*
X117475000Y-72000000D01*
X116725000Y-74000000D02*
X116725000Y-72000000D01*
X117475000Y-72000000D02*
X117475000Y-74000000D01*
X117475000Y-74000000D02*
X116725000Y-74000000D01*
D14*
%TO.C,C4*%
X122909420Y-55170000D02*
X123190580Y-55170000D01*
X122909420Y-56190000D02*
X123190580Y-56190000D01*
%TO.C,C6*%
X122809420Y-65750000D02*
X123090580Y-65750000D01*
X122809420Y-66770000D02*
X123090580Y-66770000D01*
%TO.C,C3*%
X122490000Y-75190580D02*
X122490000Y-74909420D01*
X123510000Y-75190580D02*
X123510000Y-74909420D01*
%TO.C,R11*%
X129753066Y-75913092D02*
X129753066Y-75438576D01*
X130798066Y-75913092D02*
X130798066Y-75438576D01*
D15*
%TO.C,D12*%
X129131300Y-47114500D02*
X129131300Y-47429460D01*
X129131300Y-48450540D02*
X129131300Y-48765500D01*
X129131300Y-48765500D02*
X131188700Y-48765500D01*
X131188700Y-47114500D02*
X129131300Y-47114500D01*
X131188700Y-47429460D02*
X131188700Y-47114500D01*
X131188700Y-48765500D02*
X131188700Y-48450540D01*
D14*
%TO.C,C7*%
X139390000Y-61410254D02*
X139390000Y-61691414D01*
X140410000Y-61410254D02*
X140410000Y-61691414D01*
D17*
%TO.C,L1*%
X135150000Y-64000000D02*
X135350000Y-64000000D01*
X135150000Y-67200000D02*
X135350000Y-67200000D01*
D19*
%TO.C,J1*%
X168974850Y-79223350D02*
G75*
G02*
X168212850Y-79223350I-381000J0D01*
G01*
X168212850Y-79223350D02*
G75*
G02*
X168974850Y-79223350I381000J0D01*
G01*
%TD*%
M02*
