%TF.GenerationSoftware,KiCad,Pcbnew,8.0.0*%
%TF.CreationDate,2025-02-07T11:41:03-03:30*%
%TF.ProjectId,H_Bridges,485f4272-6964-4676-9573-2e6b69636164,rev?*%
%TF.SameCoordinates,Original*%
%TF.FileFunction,Soldermask,Bot*%
%TF.FilePolarity,Negative*%
%FSLAX46Y46*%
G04 Gerber Fmt 4.6, Leading zero omitted, Abs format (unit mm)*
G04 Created by KiCad (PCBNEW 8.0.0) date 2025-02-07 11:41:03*
%MOMM*%
%LPD*%
G01*
G04 APERTURE LIST*
G04 Aperture macros list*
%AMRoundRect*
0 Rectangle with rounded corners*
0 $1 Rounding radius*
0 $2 $3 $4 $5 $6 $7 $8 $9 X,Y pos of 4 corners*
0 Add a 4 corners polygon primitive as box body*
4,1,4,$2,$3,$4,$5,$6,$7,$8,$9,$2,$3,0*
0 Add four circle primitives for the rounded corners*
1,1,$1+$1,$2,$3*
1,1,$1+$1,$4,$5*
1,1,$1+$1,$6,$7*
1,1,$1+$1,$8,$9*
0 Add four rect primitives between the rounded corners*
20,1,$1+$1,$2,$3,$4,$5,0*
20,1,$1+$1,$4,$5,$6,$7,0*
20,1,$1+$1,$6,$7,$8,$9,0*
20,1,$1+$1,$8,$9,$2,$3,0*%
G04 Aperture macros list end*
%ADD10C,3.400000*%
%ADD11C,6.000000*%
%ADD12C,3.200000*%
%ADD13O,7.084000X3.644000*%
%ADD14C,0.854000*%
%ADD15O,1.104000X1.904000*%
%ADD16O,1.104000X2.604000*%
%ADD17R,1.900000X2.100000*%
%ADD18O,1.900000X2.100000*%
%ADD19C,1.524000*%
%ADD20RoundRect,0.102000X0.654000X-0.654000X0.654000X0.654000X-0.654000X0.654000X-0.654000X-0.654000X0*%
%ADD21C,1.512000*%
%ADD22R,1.651000X1.651000*%
%ADD23C,1.651000*%
%ADD24RoundRect,0.150000X0.150000X-0.350000X0.150000X0.350000X-0.150000X0.350000X-0.150000X-0.350000X0*%
%ADD25RoundRect,0.200000X0.275000X-0.200000X0.275000X0.200000X-0.275000X0.200000X-0.275000X-0.200000X0*%
%ADD26RoundRect,0.200000X-0.200000X-0.275000X0.200000X-0.275000X0.200000X0.275000X-0.200000X0.275000X0*%
%ADD27C,1.270000*%
%ADD28R,0.812800X0.355600*%
%ADD29R,1.244600X4.064000*%
%ADD30R,11.531600X8.559800*%
%ADD31RoundRect,0.150000X-0.150000X0.350000X-0.150000X-0.350000X0.150000X-0.350000X0.150000X0.350000X0*%
%ADD32RoundRect,0.200000X-0.275000X0.200000X-0.275000X-0.200000X0.275000X-0.200000X0.275000X0.200000X0*%
G04 APERTURE END LIST*
D10*
%TO.C,H4*%
X187300000Y-124200000D03*
D11*
X187300000Y-124200000D03*
%TD*%
D10*
%TO.C,H1*%
X187300000Y-52250000D03*
D11*
X187300000Y-52250000D03*
%TD*%
D10*
%TO.C,H3*%
X85700000Y-124200000D03*
D11*
X85700000Y-124200000D03*
%TD*%
D12*
%TO.C,BT1*%
X101700000Y-116170000D03*
X101700000Y-60560000D03*
D13*
X101700000Y-124450000D03*
X101700000Y-51550000D03*
%TD*%
D10*
%TO.C,H2*%
X85700000Y-52250000D03*
D11*
X85700000Y-52250000D03*
%TD*%
D14*
%TO.C,J2*%
X125225000Y-53180000D03*
X124375000Y-53180000D03*
X123525000Y-53180000D03*
X122675000Y-53180000D03*
X121825000Y-53180000D03*
X120975000Y-53180000D03*
X120125000Y-53180000D03*
X119275000Y-53180000D03*
X119275000Y-51830000D03*
X120125000Y-51830000D03*
X120975000Y-51830000D03*
X121825000Y-51830000D03*
X122675000Y-51830000D03*
X123525000Y-51830000D03*
X124375000Y-51830000D03*
X125225000Y-51830000D03*
D15*
X126575000Y-48820000D03*
X117925000Y-48820000D03*
D16*
X126575000Y-52200000D03*
X117925000Y-52200000D03*
%TD*%
D17*
%TO.C,U1*%
X173390000Y-104300000D03*
D18*
X170850000Y-104300000D03*
X168310000Y-104300000D03*
X165770000Y-104300000D03*
X163230000Y-104300000D03*
X160690000Y-104300000D03*
X158150000Y-104300000D03*
X155610000Y-104300000D03*
X153070000Y-104300000D03*
X150530000Y-104300000D03*
X150530000Y-124620000D03*
X153070000Y-124620000D03*
X155610000Y-124620000D03*
X158150000Y-124620000D03*
X160690000Y-124620000D03*
X163230000Y-124620000D03*
X165770000Y-124620000D03*
X168310000Y-124620000D03*
X170850000Y-124620000D03*
X173390000Y-124620000D03*
%TD*%
D19*
%TO.C,LS1*%
X129250000Y-126450000D03*
X133250000Y-126450000D03*
%TD*%
D20*
%TO.C,U4*%
X116000000Y-120600000D03*
D21*
X118540000Y-120600000D03*
X121080000Y-120600000D03*
X123620000Y-120600000D03*
X126160000Y-120600000D03*
X128700000Y-120600000D03*
X131240000Y-120600000D03*
X133780000Y-120600000D03*
X133780000Y-102566000D03*
X131240000Y-102566000D03*
X128700000Y-102566000D03*
X126160000Y-102566000D03*
X123620000Y-102566000D03*
X121080000Y-102566000D03*
X118540000Y-102566000D03*
X116000000Y-102566000D03*
%TD*%
D22*
%TO.C,LED1*%
X139611000Y-51267200D03*
D23*
X142151000Y-51267200D03*
X139611000Y-48727200D03*
X142151000Y-48727200D03*
%TD*%
D24*
%TO.C,D9*%
X186580000Y-84100000D03*
X184520000Y-84100000D03*
X185550000Y-81900000D03*
%TD*%
D25*
%TO.C,R6*%
X150100000Y-97475000D03*
X150100000Y-95825000D03*
%TD*%
%TO.C,R5*%
X156650000Y-73675000D03*
X156650000Y-72025000D03*
%TD*%
D26*
%TO.C,R13*%
X128877600Y-52910000D03*
X130527600Y-52910000D03*
%TD*%
D27*
%TO.C,J1*%
X164735849Y-79223350D03*
X162735850Y-79223350D03*
X160735849Y-79223350D03*
X158735851Y-79223350D03*
%TD*%
D25*
%TO.C,R8*%
X179250000Y-97537700D03*
X179250000Y-95887700D03*
%TD*%
D28*
%TO.C,D13*%
X128982400Y-50760000D03*
X131217600Y-50760000D03*
%TD*%
D29*
%TO.C,Q6*%
X150090000Y-92626200D03*
D30*
X147600800Y-81107300D03*
D29*
X145010000Y-92626200D03*
%TD*%
D31*
%TO.C,D7*%
X137270000Y-83400000D03*
X139330000Y-83400000D03*
X138300000Y-85600000D03*
%TD*%
D29*
%TO.C,Q8*%
X179190000Y-92574000D03*
D30*
X176700800Y-81055100D03*
D29*
X174110000Y-92574000D03*
%TD*%
D24*
%TO.C,D8*%
X164470750Y-69710750D03*
X162410750Y-69710750D03*
X163440750Y-67510750D03*
%TD*%
D32*
%TO.C,R7*%
X171700000Y-72425000D03*
X171700000Y-74075000D03*
%TD*%
D29*
%TO.C,Q5*%
X156680750Y-68591950D03*
D30*
X154191550Y-57073050D03*
D29*
X151600750Y-68591950D03*
%TD*%
%TO.C,Q7*%
X171690000Y-69174000D03*
D30*
X169200800Y-57655100D03*
D29*
X166610000Y-69174000D03*
%TD*%
D24*
%TO.C,D6*%
X148870750Y-69740750D03*
X146810750Y-69740750D03*
X147840750Y-67540750D03*
%TD*%
M02*
