%TF.GenerationSoftware,KiCad,Pcbnew,8.0.0*%
%TF.CreationDate,2025-02-07T12:08:42-03:30*%
%TF.ProjectId,H_Bridges,485f4272-6964-4676-9573-2e6b69636164,rev?*%
%TF.SameCoordinates,Original*%
%TF.FileFunction,Soldermask,Top*%
%TF.FilePolarity,Negative*%
%FSLAX46Y46*%
G04 Gerber Fmt 4.6, Leading zero omitted, Abs format (unit mm)*
G04 Created by KiCad (PCBNEW 8.0.0) date 2025-02-07 12:08:42*
%MOMM*%
%LPD*%
G01*
G04 APERTURE LIST*
G04 Aperture macros list*
%AMRoundRect*
0 Rectangle with rounded corners*
0 $1 Rounding radius*
0 $2 $3 $4 $5 $6 $7 $8 $9 X,Y pos of 4 corners*
0 Add a 4 corners polygon primitive as box body*
4,1,4,$2,$3,$4,$5,$6,$7,$8,$9,$2,$3,0*
0 Add four circle primitives for the rounded corners*
1,1,$1+$1,$2,$3*
1,1,$1+$1,$4,$5*
1,1,$1+$1,$6,$7*
1,1,$1+$1,$8,$9*
0 Add four rect primitives between the rounded corners*
20,1,$1+$1,$2,$3,$4,$5,0*
20,1,$1+$1,$4,$5,$6,$7,0*
20,1,$1+$1,$6,$7,$8,$9,0*
20,1,$1+$1,$8,$9,$2,$3,0*%
G04 Aperture macros list end*
%ADD10RoundRect,0.200000X0.275000X-0.200000X0.275000X0.200000X-0.275000X0.200000X-0.275000X-0.200000X0*%
%ADD11R,1.244600X4.064000*%
%ADD12R,11.531600X8.559800*%
%ADD13R,1.358900X0.279400*%
%ADD14C,3.400000*%
%ADD15C,6.000000*%
%ADD16R,0.500000X0.750000*%
%ADD17RoundRect,0.200000X-0.275000X0.200000X-0.275000X-0.200000X0.275000X-0.200000X0.275000X0.200000X0*%
%ADD18R,2.082800X3.429000*%
%ADD19R,0.711200X1.524000*%
%ADD20RoundRect,0.135000X0.135000X0.185000X-0.135000X0.185000X-0.135000X-0.185000X0.135000X-0.185000X0*%
%ADD21RoundRect,0.225000X0.225000X0.250000X-0.225000X0.250000X-0.225000X-0.250000X0.225000X-0.250000X0*%
%ADD22C,3.200000*%
%ADD23O,7.084000X3.644000*%
%ADD24RoundRect,0.225000X-0.225000X-0.250000X0.225000X-0.250000X0.225000X0.250000X-0.225000X0.250000X0*%
%ADD25RoundRect,0.150000X0.150000X-0.350000X0.150000X0.350000X-0.150000X0.350000X-0.150000X-0.350000X0*%
%ADD26C,0.854000*%
%ADD27O,1.104000X1.904000*%
%ADD28O,1.104000X2.604000*%
%ADD29R,1.900000X2.100000*%
%ADD30O,1.900000X2.100000*%
%ADD31R,0.670001X0.299999*%
%ADD32C,1.524000*%
%ADD33RoundRect,0.200000X0.200000X0.275000X-0.200000X0.275000X-0.200000X-0.275000X0.200000X-0.275000X0*%
%ADD34RoundRect,0.102000X0.654000X-0.654000X0.654000X0.654000X-0.654000X0.654000X-0.654000X-0.654000X0*%
%ADD35C,1.512000*%
%ADD36RoundRect,0.225000X0.250000X-0.225000X0.250000X0.225000X-0.250000X0.225000X-0.250000X-0.225000X0*%
%ADD37RoundRect,0.225000X-0.250000X0.225000X-0.250000X-0.225000X0.250000X-0.225000X0.250000X0.225000X0*%
%ADD38R,3.429000X2.082800*%
%ADD39R,1.524000X0.711200*%
%ADD40R,1.651000X1.651000*%
%ADD41C,1.651000*%
%ADD42R,0.812800X0.355600*%
%ADD43RoundRect,0.200000X-0.200000X-0.275000X0.200000X-0.275000X0.200000X0.275000X-0.200000X0.275000X0*%
%ADD44RoundRect,0.102000X-0.735000X0.600000X-0.735000X-0.600000X0.735000X-0.600000X0.735000X0.600000X0*%
%ADD45RoundRect,0.150000X-0.150000X0.350000X-0.150000X-0.350000X0.150000X-0.350000X0.150000X0.350000X0*%
%ADD46R,0.750000X0.500000*%
%ADD47RoundRect,0.102000X-0.750000X-1.900000X0.750000X-1.900000X0.750000X1.900000X-0.750000X1.900000X0*%
%ADD48C,1.270000*%
G04 APERTURE END LIST*
D10*
%TO.C,R1*%
X166640750Y-74165750D03*
X166640750Y-72515750D03*
%TD*%
D11*
%TO.C,Q3*%
X151600750Y-69177050D03*
D12*
X154089950Y-57658150D03*
D11*
X156680750Y-69177050D03*
%TD*%
D13*
%TO.C,U2*%
X126392350Y-79500001D03*
X126392350Y-78999999D03*
X126392350Y-78500000D03*
X126392350Y-78000001D03*
X126392350Y-77499999D03*
X121985450Y-77499999D03*
X121985450Y-78000001D03*
X121985450Y-78500000D03*
X121985450Y-78999999D03*
X121985450Y-79500001D03*
%TD*%
D14*
%TO.C,H4*%
X187300000Y-124200000D03*
D15*
X187300000Y-124200000D03*
%TD*%
D16*
%TO.C,Q9*%
X130600000Y-72450000D03*
X131900000Y-72450000D03*
X131250000Y-70250000D03*
%TD*%
D14*
%TO.C,H1*%
X187300000Y-52250000D03*
D15*
X187300000Y-52250000D03*
%TD*%
D10*
%TO.C,R4*%
X144440750Y-97465750D03*
X144440750Y-95815750D03*
%TD*%
%TO.C,R2*%
X174100000Y-97475000D03*
X174100000Y-95825000D03*
%TD*%
D17*
%TO.C,R14*%
X116300000Y-51745000D03*
X116300000Y-53395000D03*
%TD*%
D18*
%TO.C,D10*%
X115997500Y-67647500D03*
D19*
X115997500Y-70327200D03*
%TD*%
D11*
%TO.C,Q2*%
X174100750Y-92566950D03*
D12*
X176589950Y-81048050D03*
D11*
X179180750Y-92566950D03*
%TD*%
D20*
%TO.C,R10*%
X137310000Y-107300000D03*
X136290000Y-107300000D03*
%TD*%
D14*
%TO.C,H3*%
X85700000Y-124200000D03*
D15*
X85700000Y-124200000D03*
%TD*%
D21*
%TO.C,C2*%
X126775000Y-81150000D03*
X125225000Y-81150000D03*
%TD*%
D22*
%TO.C,BT1*%
X101700000Y-116170000D03*
X101700000Y-60560000D03*
D23*
X101700000Y-124450000D03*
X101700000Y-51550000D03*
%TD*%
D14*
%TO.C,H2*%
X85700000Y-52250000D03*
D15*
X85700000Y-52250000D03*
%TD*%
D24*
%TO.C,C5*%
X122275000Y-57530000D03*
X123825000Y-57530000D03*
%TD*%
D17*
%TO.C,R3*%
X151600000Y-72515750D03*
X151600000Y-74165750D03*
%TD*%
D25*
%TO.C,D4*%
X137170000Y-81550000D03*
X139230000Y-81550000D03*
X138200000Y-79350000D03*
%TD*%
D26*
%TO.C,J2*%
X125225000Y-53180000D03*
X124375000Y-53180000D03*
X123525000Y-53180000D03*
X122675000Y-53180000D03*
X121825000Y-53180000D03*
X120975000Y-53180000D03*
X120125000Y-53180000D03*
X119275000Y-53180000D03*
X119275000Y-51830000D03*
X120125000Y-51830000D03*
X120975000Y-51830000D03*
X121825000Y-51830000D03*
X122675000Y-51830000D03*
X123525000Y-51830000D03*
X124375000Y-51830000D03*
X125225000Y-51830000D03*
D27*
X126575000Y-48820000D03*
X117925000Y-48820000D03*
D28*
X126575000Y-52200000D03*
X117925000Y-52200000D03*
%TD*%
D29*
%TO.C,U1*%
X173390000Y-104300000D03*
D30*
X170850000Y-104300000D03*
X168310000Y-104300000D03*
X165770000Y-104300000D03*
X163230000Y-104300000D03*
X160690000Y-104300000D03*
X158150000Y-104300000D03*
X155610000Y-104300000D03*
X153070000Y-104300000D03*
X150530000Y-104300000D03*
X150530000Y-124620000D03*
X153070000Y-124620000D03*
X155610000Y-124620000D03*
X158150000Y-124620000D03*
X160690000Y-124620000D03*
X163230000Y-124620000D03*
X165770000Y-124620000D03*
X168310000Y-124620000D03*
X170850000Y-124620000D03*
X173390000Y-124620000D03*
%TD*%
D31*
%TO.C,U3*%
X135559999Y-60950832D03*
X135559999Y-61450831D03*
X135559999Y-61950833D03*
X137040001Y-61950833D03*
X137040001Y-61450831D03*
X137040001Y-60950832D03*
%TD*%
D11*
%TO.C,Q4*%
X144400750Y-92566950D03*
D12*
X146889950Y-81048050D03*
D11*
X149480750Y-92566950D03*
%TD*%
%TO.C,Q1*%
X166600750Y-69177050D03*
D12*
X169089950Y-57658150D03*
D11*
X171680750Y-69177050D03*
%TD*%
D17*
%TO.C,R15*%
X135400000Y-57275000D03*
X135400000Y-58925000D03*
%TD*%
D20*
%TO.C,R9*%
X137260000Y-106150000D03*
X136240000Y-106150000D03*
%TD*%
D21*
%TO.C,C8*%
X133800000Y-62050834D03*
X132250000Y-62050834D03*
%TD*%
D32*
%TO.C,LS1*%
X129250000Y-126450000D03*
X133250000Y-126450000D03*
%TD*%
D33*
%TO.C,R12*%
X126825000Y-82900000D03*
X125175000Y-82900000D03*
%TD*%
D34*
%TO.C,U4*%
X116000000Y-120600000D03*
D35*
X118540000Y-120600000D03*
X121080000Y-120600000D03*
X123620000Y-120600000D03*
X126160000Y-120600000D03*
X128700000Y-120600000D03*
X131240000Y-120600000D03*
X133780000Y-120600000D03*
X133780000Y-102566000D03*
X131240000Y-102566000D03*
X128700000Y-102566000D03*
X126160000Y-102566000D03*
X123620000Y-102566000D03*
X121080000Y-102566000D03*
X118540000Y-102566000D03*
X116000000Y-102566000D03*
%TD*%
D36*
%TO.C,C1*%
X128275566Y-76475834D03*
X128275566Y-74925834D03*
%TD*%
D10*
%TO.C,R16*%
X133700000Y-58875834D03*
X133700000Y-57225834D03*
%TD*%
D37*
%TO.C,C9*%
X142100000Y-60775834D03*
X142100000Y-62325834D03*
%TD*%
D25*
%TO.C,D1*%
X184470000Y-81930000D03*
X186530000Y-81930000D03*
X185500000Y-79730000D03*
%TD*%
D38*
%TO.C,D11*%
X126720700Y-69450000D03*
D39*
X124041000Y-69450000D03*
%TD*%
D40*
%TO.C,LED1*%
X139611000Y-51267200D03*
D41*
X142151000Y-51267200D03*
X139611000Y-48727200D03*
X142151000Y-48727200D03*
%TD*%
D25*
%TO.C,D3*%
X158710750Y-69940750D03*
X160770750Y-69940750D03*
X159740750Y-67740750D03*
%TD*%
D42*
%TO.C,D14*%
X116267600Y-49920000D03*
X114032400Y-49920000D03*
%TD*%
D43*
%TO.C,R17*%
X145475000Y-51350000D03*
X147125000Y-51350000D03*
%TD*%
D44*
%TO.C,FB1*%
X122200000Y-62050000D03*
X122200000Y-63770000D03*
%TD*%
D45*
%TO.C,D2*%
X175700750Y-68140750D03*
X173640750Y-68140750D03*
X174670750Y-70340750D03*
%TD*%
D46*
%TO.C,Q10*%
X116000000Y-72350000D03*
X116000000Y-73650000D03*
X118200000Y-73000000D03*
%TD*%
D24*
%TO.C,C4*%
X122275000Y-55680000D03*
X123825000Y-55680000D03*
%TD*%
%TO.C,C6*%
X122175000Y-66260000D03*
X123725000Y-66260000D03*
%TD*%
D36*
%TO.C,C3*%
X123000000Y-75825000D03*
X123000000Y-74275000D03*
%TD*%
D10*
%TO.C,R11*%
X130275566Y-76500834D03*
X130275566Y-74850834D03*
%TD*%
D42*
%TO.C,D12*%
X129042400Y-47940000D03*
X131277600Y-47940000D03*
%TD*%
D37*
%TO.C,C7*%
X139900000Y-60775834D03*
X139900000Y-62325834D03*
%TD*%
D47*
%TO.C,L1*%
X134100000Y-65600000D03*
X136400000Y-65600000D03*
%TD*%
D48*
%TO.C,J1*%
X158735851Y-79223350D03*
X160735849Y-79223350D03*
X162735850Y-79223350D03*
X164735849Y-79223350D03*
%TD*%
M02*
