%TF.GenerationSoftware,KiCad,Pcbnew,8.0.0*%
%TF.CreationDate,2025-02-07T11:41:03-03:30*%
%TF.ProjectId,H_Bridges,485f4272-6964-4676-9573-2e6b69636164,rev?*%
%TF.SameCoordinates,Original*%
%TF.FileFunction,Copper,L3,Inr*%
%TF.FilePolarity,Positive*%
%FSLAX46Y46*%
G04 Gerber Fmt 4.6, Leading zero omitted, Abs format (unit mm)*
G04 Created by KiCad (PCBNEW 8.0.0) date 2025-02-07 11:41:03*
%MOMM*%
%LPD*%
G01*
G04 APERTURE LIST*
%TA.AperFunction,ComponentPad*%
%ADD10C,3.400000*%
%TD*%
%TA.AperFunction,ComponentPad*%
%ADD11O,6.880000X3.440000*%
%TD*%
%TA.AperFunction,ComponentPad*%
%ADD12C,0.650000*%
%TD*%
%TA.AperFunction,ComponentPad*%
%ADD13O,0.900000X1.700000*%
%TD*%
%TA.AperFunction,ComponentPad*%
%ADD14O,0.900000X2.400000*%
%TD*%
%TA.AperFunction,ComponentPad*%
%ADD15R,1.900000X2.100000*%
%TD*%
%TA.AperFunction,ComponentPad*%
%ADD16O,1.900000X2.100000*%
%TD*%
%TA.AperFunction,ComponentPad*%
%ADD17C,1.524000*%
%TD*%
%TA.AperFunction,ComponentPad*%
%ADD18R,1.308000X1.308000*%
%TD*%
%TA.AperFunction,ComponentPad*%
%ADD19C,1.308000*%
%TD*%
%TA.AperFunction,ComponentPad*%
%ADD20R,1.651000X1.651000*%
%TD*%
%TA.AperFunction,ComponentPad*%
%ADD21C,1.651000*%
%TD*%
%TA.AperFunction,ComponentPad*%
%ADD22C,1.270000*%
%TD*%
%TA.AperFunction,ViaPad*%
%ADD23C,0.600000*%
%TD*%
%TA.AperFunction,Conductor*%
%ADD24C,0.200000*%
%TD*%
%TA.AperFunction,Conductor*%
%ADD25C,0.400000*%
%TD*%
G04 APERTURE END LIST*
D10*
%TO.N,unconnected-(H4-Pad1)*%
%TO.C,H4*%
X187300000Y-124200000D03*
%TD*%
%TO.N,unconnected-(H1-Pad1)*%
%TO.C,H1*%
X187300000Y-52250000D03*
%TD*%
%TO.N,unconnected-(H3-Pad1)*%
%TO.C,H3*%
X85700000Y-124200000D03*
%TD*%
D11*
%TO.N,GND*%
%TO.C,BT1*%
X101700000Y-124450000D03*
%TO.N,Net-(D10-K)*%
X101700000Y-51550000D03*
%TD*%
D10*
%TO.N,unconnected-(H2-Pad1)*%
%TO.C,H2*%
X85700000Y-52250000D03*
%TD*%
D12*
%TO.N,GND*%
%TO.C,J2*%
X125225000Y-53180000D03*
%TO.N,/Charger/VBUS*%
X124375000Y-53180000D03*
%TO.N,/Charger/CC1*%
X123525000Y-53180000D03*
%TO.N,/Charger/DP*%
X122675000Y-53180000D03*
%TO.N,/Charger/DN*%
X121825000Y-53180000D03*
%TO.N,unconnected-(J2-SBU1-PadA8)*%
X120975000Y-53180000D03*
%TO.N,/Charger/VBUS*%
X120125000Y-53180000D03*
%TO.N,GND*%
X119275000Y-53180000D03*
X119275000Y-51830000D03*
%TO.N,/Charger/VBUS*%
X120125000Y-51830000D03*
%TO.N,/Charger/CC2*%
X120975000Y-51830000D03*
%TO.N,/Charger/DP*%
X121825000Y-51830000D03*
%TO.N,/Charger/DN*%
X122675000Y-51830000D03*
%TO.N,unconnected-(J2-SBU2-PadB8)*%
X123525000Y-51830000D03*
%TO.N,/Charger/VBUS*%
X124375000Y-51830000D03*
%TO.N,GND*%
X125225000Y-51830000D03*
D13*
X126575000Y-48820000D03*
X117925000Y-48820000D03*
D14*
X126575000Y-52200000D03*
X117925000Y-52200000D03*
%TD*%
D15*
%TO.N,unconnected-(U1-RESET_5V-Pad1)*%
%TO.C,U1*%
X173390000Y-104300000D03*
D16*
%TO.N,unconnected-(U1-ADC-Pad2)*%
X170850000Y-104300000D03*
%TO.N,unconnected-(U1-CH_PD-Pad3)*%
X168310000Y-104300000D03*
%TO.N,/P2*%
X165770000Y-104300000D03*
%TO.N,/P1*%
X163230000Y-104300000D03*
%TO.N,/P3*%
X160690000Y-104300000D03*
%TO.N,/P4*%
X158150000Y-104300000D03*
%TO.N,unconnected-(U1-VIN-Pad8)*%
X155610000Y-104300000D03*
%TO.N,+5V*%
X153070000Y-104300000D03*
%TO.N,GND*%
X150530000Y-104300000D03*
X150530000Y-124620000D03*
%TO.N,unconnected-(U1-LDO_EN-Pad12)*%
X153070000Y-124620000D03*
%TO.N,+3V3*%
X155610000Y-124620000D03*
%TO.N,unconnected-(U1-GPIO15-Pad14)*%
X158150000Y-124620000D03*
%TO.N,unconnected-(U1-GPIO2-Pad15)*%
X160690000Y-124620000D03*
%TO.N,unconnected-(U1-GPIO0-Pad16)*%
X163230000Y-124620000D03*
%TO.N,unconnected-(U1-GPIO4-Pad17)*%
X165770000Y-124620000D03*
%TO.N,unconnected-(U1-GPIO5-Pad18)*%
X168310000Y-124620000D03*
%TO.N,/MP3_TX*%
X170850000Y-124620000D03*
%TO.N,/MP3_RX*%
X173390000Y-124620000D03*
%TD*%
D17*
%TO.N,/SPK+*%
%TO.C,LS1*%
X129250000Y-126450000D03*
%TO.N,/SPK-*%
X133250000Y-126450000D03*
%TD*%
D18*
%TO.N,+3V3*%
%TO.C,U4*%
X116000000Y-120600000D03*
D19*
%TO.N,Net-(U4-RX)*%
X118540000Y-120600000D03*
%TO.N,Net-(U4-TX)*%
X121080000Y-120600000D03*
%TO.N,unconnected-(U4-DAC_R-Pad4)*%
X123620000Y-120600000D03*
%TO.N,unconnected-(U4-DAC_L-Pad5)*%
X126160000Y-120600000D03*
%TO.N,/SPK+*%
X128700000Y-120600000D03*
%TO.N,GND*%
X131240000Y-120600000D03*
%TO.N,/SPK-*%
X133780000Y-120600000D03*
%TO.N,unconnected-(U4-IO1-Pad9)*%
X133780000Y-102566000D03*
%TO.N,GND*%
X131240000Y-102566000D03*
%TO.N,unconnected-(U4-IO2-Pad11)*%
X128700000Y-102566000D03*
%TO.N,unconnected-(U4-ADKEY1-Pad12)*%
X126160000Y-102566000D03*
%TO.N,unconnected-(U4-ADKEY2-Pad13)*%
X123620000Y-102566000D03*
%TO.N,unconnected-(U4-USB+-Pad14)*%
X121080000Y-102566000D03*
%TO.N,unconnected-(U4-USB--Pad15)*%
X118540000Y-102566000D03*
%TO.N,unconnected-(U4-BUSY-Pad16)*%
X116000000Y-102566000D03*
%TD*%
D20*
%TO.N,GND*%
%TO.C,LED1*%
X139611000Y-51267200D03*
D21*
%TO.N,Net-(LED1-Pad2)*%
X142151000Y-51267200D03*
%TO.N,Net-(U2-\u002ACHG)*%
X139611000Y-48727200D03*
%TO.N,VDD*%
X142151000Y-48727200D03*
%TD*%
D22*
%TO.N,/Coil_A+*%
%TO.C,J1*%
X164735849Y-79223350D03*
%TO.N,/Coil_B-*%
X162735850Y-79223350D03*
%TO.N,/Coil_A-*%
X160735849Y-79223350D03*
%TO.N,/Coil_B+*%
X158735851Y-79223350D03*
%TD*%
D23*
%TO.N,GND*%
X139600000Y-53450000D03*
X145600000Y-95650000D03*
X175400000Y-95700000D03*
X132180000Y-50790000D03*
X186600000Y-85200000D03*
X135930000Y-83400000D03*
X131627600Y-52910000D03*
%TO.N,Net-(D10-K)*%
X123600000Y-78000000D03*
X129350000Y-72450000D03*
%TO.N,VDD*%
X123800000Y-63750000D03*
%TO.N,+5V*%
X168392860Y-52800000D03*
X150950000Y-52800000D03*
X165964290Y-52800000D03*
X153378570Y-52800000D03*
X144150000Y-58214285D03*
X173250000Y-52800000D03*
X144150000Y-60642855D03*
X170821430Y-52800000D03*
X144150000Y-57000000D03*
X154592855Y-52800000D03*
X186550000Y-78200000D03*
X152164285Y-52800000D03*
X155807140Y-52800000D03*
X167178575Y-52800000D03*
X157021425Y-52800000D03*
X160800000Y-71300000D03*
X169607145Y-52800000D03*
X164750000Y-52800000D03*
X144150000Y-59428570D03*
X172035715Y-52800000D03*
X149735710Y-52800000D03*
X158235710Y-52800000D03*
X162400000Y-71200000D03*
X146800000Y-70950000D03*
%TO.N,Net-(Q10-S)*%
X119250000Y-77700000D03*
X120350000Y-79599999D03*
%TO.N,/P1*%
X166650000Y-88100000D03*
%TO.N,/P3*%
X156650000Y-74850000D03*
%TO.N,/P4*%
X171700000Y-75100000D03*
X161750000Y-95250000D03*
%TO.N,Net-(U2-\u002ACHG)*%
X124900000Y-78400000D03*
%TD*%
D24*
%TO.N,Net-(Q10-S)*%
X120250001Y-79500000D02*
X120350000Y-79599999D01*
X119250000Y-79000000D02*
X119750000Y-79500000D01*
X119750000Y-79500000D02*
X120250001Y-79500000D01*
X119250000Y-77700000D02*
X119250000Y-79000000D01*
D25*
%TO.N,/P3*%
X156650000Y-74850000D02*
X156650000Y-87200000D01*
X160661200Y-91211200D02*
X160661200Y-104280000D01*
X156650000Y-87200000D02*
X160661200Y-91211200D01*
%TO.N,/P4*%
X167350000Y-91700000D02*
X163800000Y-95250000D01*
X167350000Y-79450000D02*
X167350000Y-91700000D01*
X171700000Y-75100000D02*
X167350000Y-79450000D01*
X163800000Y-95250000D02*
X161750000Y-95250000D01*
%TD*%
%TA.AperFunction,Conductor*%
%TO.N,+3V3*%
G36*
X161576823Y-118999868D02*
G01*
X161643841Y-119019624D01*
X161689539Y-119072477D01*
X161700688Y-119123175D01*
X161723653Y-123234021D01*
X161704343Y-123301170D01*
X161651796Y-123347219D01*
X161582694Y-123357549D01*
X161526769Y-123335032D01*
X161450228Y-123279421D01*
X161246803Y-123175770D01*
X161029660Y-123105215D01*
X160804162Y-123069500D01*
X160804157Y-123069500D01*
X160575843Y-123069500D01*
X160575838Y-123069500D01*
X160350339Y-123105215D01*
X160133196Y-123175770D01*
X159929771Y-123279421D01*
X159745061Y-123413622D01*
X159583623Y-123575060D01*
X159583616Y-123575069D01*
X159520317Y-123662191D01*
X159464987Y-123704857D01*
X159395373Y-123710835D01*
X159333579Y-123678228D01*
X159319683Y-123662191D01*
X159256617Y-123575391D01*
X159256379Y-123575063D01*
X159094937Y-123413621D01*
X158910228Y-123279421D01*
X158706803Y-123175770D01*
X158489660Y-123105215D01*
X158264162Y-123069500D01*
X158264157Y-123069500D01*
X158035843Y-123069500D01*
X158035838Y-123069500D01*
X157810339Y-123105215D01*
X157593196Y-123175770D01*
X157389771Y-123279421D01*
X157205061Y-123413622D01*
X157043622Y-123575061D01*
X156999834Y-123635329D01*
X156980319Y-123662191D01*
X156980009Y-123662617D01*
X156924678Y-123705282D01*
X156855065Y-123711261D01*
X156793270Y-123678655D01*
X156779373Y-123662616D01*
X156716000Y-123575391D01*
X156715995Y-123575385D01*
X156554614Y-123414004D01*
X156369966Y-123279849D01*
X156166602Y-123176229D01*
X155949541Y-123105703D01*
X155860000Y-123091521D01*
X155860000Y-124175439D01*
X155806853Y-124144755D01*
X155677143Y-124110000D01*
X155542857Y-124110000D01*
X155413147Y-124144755D01*
X155360000Y-124175439D01*
X155360000Y-123091521D01*
X155359999Y-123091521D01*
X155270458Y-123105703D01*
X155053397Y-123176229D01*
X154850033Y-123279849D01*
X154665385Y-123414004D01*
X154504003Y-123575386D01*
X154440626Y-123662617D01*
X154385295Y-123705283D01*
X154315682Y-123711261D01*
X154253887Y-123678655D01*
X154239990Y-123662616D01*
X154239681Y-123662191D01*
X154176379Y-123575063D01*
X154014937Y-123413621D01*
X153830228Y-123279421D01*
X153626803Y-123175770D01*
X153409660Y-123105215D01*
X153184162Y-123069500D01*
X153184157Y-123069500D01*
X152955843Y-123069500D01*
X152955838Y-123069500D01*
X152730339Y-123105215D01*
X152513196Y-123175770D01*
X152309771Y-123279421D01*
X152125061Y-123413622D01*
X151963623Y-123575060D01*
X151963616Y-123575069D01*
X151900317Y-123662191D01*
X151844987Y-123704857D01*
X151775373Y-123710835D01*
X151713579Y-123678228D01*
X151699683Y-123662191D01*
X151636617Y-123575391D01*
X151636379Y-123575063D01*
X151474937Y-123413621D01*
X151290228Y-123279421D01*
X151086803Y-123175770D01*
X150869660Y-123105215D01*
X150644162Y-123069500D01*
X150644157Y-123069500D01*
X150415843Y-123069500D01*
X150415838Y-123069500D01*
X150190339Y-123105215D01*
X149973196Y-123175770D01*
X149769771Y-123279421D01*
X149585061Y-123413622D01*
X149423622Y-123575061D01*
X149289421Y-123759771D01*
X149185770Y-123963196D01*
X149115215Y-124180339D01*
X149079500Y-124405837D01*
X149079500Y-124834162D01*
X149115215Y-125059660D01*
X149185770Y-125276803D01*
X149288882Y-125479170D01*
X149289421Y-125480228D01*
X149423621Y-125664937D01*
X149585063Y-125826379D01*
X149769772Y-125960579D01*
X149865884Y-126009550D01*
X149973196Y-126064229D01*
X149973198Y-126064229D01*
X149973201Y-126064231D01*
X150089592Y-126102049D01*
X150190339Y-126134784D01*
X150415838Y-126170500D01*
X150415843Y-126170500D01*
X150644162Y-126170500D01*
X150869660Y-126134784D01*
X150871165Y-126134295D01*
X151086799Y-126064231D01*
X151290228Y-125960579D01*
X151474937Y-125826379D01*
X151636379Y-125664937D01*
X151699682Y-125577807D01*
X151755012Y-125535143D01*
X151824626Y-125529164D01*
X151886421Y-125561770D01*
X151900315Y-125577804D01*
X151963621Y-125664937D01*
X152125063Y-125826379D01*
X152309772Y-125960579D01*
X152405884Y-126009550D01*
X152513196Y-126064229D01*
X152513198Y-126064229D01*
X152513201Y-126064231D01*
X152629592Y-126102049D01*
X152730339Y-126134784D01*
X152955838Y-126170500D01*
X152955843Y-126170500D01*
X153184162Y-126170500D01*
X153409660Y-126134784D01*
X153411165Y-126134295D01*
X153626799Y-126064231D01*
X153830228Y-125960579D01*
X154014937Y-125826379D01*
X154176379Y-125664937D01*
X154239992Y-125577380D01*
X154295319Y-125534717D01*
X154364933Y-125528738D01*
X154426728Y-125561343D01*
X154440626Y-125577382D01*
X154504004Y-125664613D01*
X154504004Y-125664614D01*
X154665385Y-125825995D01*
X154850033Y-125960150D01*
X155053395Y-126063769D01*
X155270455Y-126134295D01*
X155360000Y-126148478D01*
X155360000Y-125064560D01*
X155413147Y-125095245D01*
X155542857Y-125130000D01*
X155677143Y-125130000D01*
X155806853Y-125095245D01*
X155860000Y-125064560D01*
X155860000Y-126148477D01*
X155949544Y-126134295D01*
X156166604Y-126063769D01*
X156369966Y-125960150D01*
X156554614Y-125825995D01*
X156715995Y-125664614D01*
X156716000Y-125664608D01*
X156779373Y-125577383D01*
X156834702Y-125534717D01*
X156904316Y-125528738D01*
X156966111Y-125561343D01*
X156980003Y-125577375D01*
X157043621Y-125664937D01*
X157205063Y-125826379D01*
X157389772Y-125960579D01*
X157485884Y-126009550D01*
X157593196Y-126064229D01*
X157593198Y-126064229D01*
X157593201Y-126064231D01*
X157709592Y-126102049D01*
X157810339Y-126134784D01*
X158035838Y-126170500D01*
X158035843Y-126170500D01*
X158264162Y-126170500D01*
X158489660Y-126134784D01*
X158491165Y-126134295D01*
X158706799Y-126064231D01*
X158910228Y-125960579D01*
X159094937Y-125826379D01*
X159256379Y-125664937D01*
X159319682Y-125577807D01*
X159375012Y-125535143D01*
X159444626Y-125529164D01*
X159506421Y-125561770D01*
X159520315Y-125577804D01*
X159583621Y-125664937D01*
X159745063Y-125826379D01*
X159929772Y-125960579D01*
X160025884Y-126009550D01*
X160133196Y-126064229D01*
X160133198Y-126064229D01*
X160133201Y-126064231D01*
X160249592Y-126102049D01*
X160350339Y-126134784D01*
X160575838Y-126170500D01*
X160575843Y-126170500D01*
X160804162Y-126170500D01*
X161029660Y-126134784D01*
X161031165Y-126134295D01*
X161246799Y-126064231D01*
X161450228Y-125960579D01*
X161542186Y-125893766D01*
X161607989Y-125870287D01*
X161676043Y-125886112D01*
X161724739Y-125936217D01*
X161739068Y-125993392D01*
X161749302Y-127825173D01*
X161729992Y-127892322D01*
X161677445Y-127938371D01*
X161625172Y-127949866D01*
X133583779Y-127919939D01*
X133516760Y-127900183D01*
X133471062Y-127847330D01*
X133461192Y-127778161D01*
X133490285Y-127714636D01*
X133549103Y-127676925D01*
X133551738Y-127676186D01*
X133683450Y-127640894D01*
X133883662Y-127547534D01*
X134064620Y-127420826D01*
X134220826Y-127264620D01*
X134347534Y-127083662D01*
X134440894Y-126883450D01*
X134498070Y-126670068D01*
X134517323Y-126450000D01*
X134498070Y-126229932D01*
X134440894Y-126016550D01*
X134347534Y-125816339D01*
X134220826Y-125635380D01*
X134064620Y-125479174D01*
X134064616Y-125479171D01*
X134064615Y-125479170D01*
X133883666Y-125352468D01*
X133883662Y-125352466D01*
X133721401Y-125276803D01*
X133683450Y-125259106D01*
X133683447Y-125259105D01*
X133683445Y-125259104D01*
X133470070Y-125201930D01*
X133470062Y-125201929D01*
X133250002Y-125182677D01*
X133249998Y-125182677D01*
X133029937Y-125201929D01*
X133029929Y-125201930D01*
X132816554Y-125259104D01*
X132816548Y-125259107D01*
X132616340Y-125352465D01*
X132616338Y-125352466D01*
X132435377Y-125479175D01*
X132279175Y-125635377D01*
X132152466Y-125816338D01*
X132152465Y-125816340D01*
X132059107Y-126016548D01*
X132059104Y-126016554D01*
X132001930Y-126229929D01*
X132001929Y-126229937D01*
X131982677Y-126449997D01*
X131982677Y-126450002D01*
X132001929Y-126670062D01*
X132001930Y-126670070D01*
X132059104Y-126883445D01*
X132059105Y-126883447D01*
X132059106Y-126883450D01*
X132152466Y-127083662D01*
X132152468Y-127083666D01*
X132279170Y-127264615D01*
X132279175Y-127264621D01*
X132435378Y-127420824D01*
X132435384Y-127420829D01*
X132616333Y-127547531D01*
X132616335Y-127547532D01*
X132616338Y-127547534D01*
X132816550Y-127640894D01*
X132945511Y-127675449D01*
X133005172Y-127711814D01*
X133035701Y-127774661D01*
X133027406Y-127844036D01*
X132982921Y-127897914D01*
X132916369Y-127919189D01*
X132913286Y-127919224D01*
X129599647Y-127915687D01*
X129532628Y-127895931D01*
X129486930Y-127843078D01*
X129477060Y-127773909D01*
X129506153Y-127710384D01*
X129564971Y-127672673D01*
X129567617Y-127671931D01*
X129651877Y-127649353D01*
X129683440Y-127640897D01*
X129683441Y-127640896D01*
X129683450Y-127640894D01*
X129883662Y-127547534D01*
X130064620Y-127420826D01*
X130220826Y-127264620D01*
X130347534Y-127083662D01*
X130440894Y-126883450D01*
X130498070Y-126670068D01*
X130517323Y-126450000D01*
X130498070Y-126229932D01*
X130440894Y-126016550D01*
X130347534Y-125816339D01*
X130220826Y-125635380D01*
X130064620Y-125479174D01*
X130064616Y-125479171D01*
X130064615Y-125479170D01*
X129883666Y-125352468D01*
X129883662Y-125352466D01*
X129721401Y-125276803D01*
X129683450Y-125259106D01*
X129683447Y-125259105D01*
X129683445Y-125259104D01*
X129470070Y-125201930D01*
X129470062Y-125201929D01*
X129250002Y-125182677D01*
X129249998Y-125182677D01*
X129029937Y-125201929D01*
X129029929Y-125201930D01*
X128816554Y-125259104D01*
X128816548Y-125259107D01*
X128616340Y-125352465D01*
X128616338Y-125352466D01*
X128435377Y-125479175D01*
X128279175Y-125635377D01*
X128152466Y-125816338D01*
X128152465Y-125816340D01*
X128059107Y-126016548D01*
X128059104Y-126016554D01*
X128001930Y-126229929D01*
X128001929Y-126229937D01*
X127982677Y-126449997D01*
X127982677Y-126450002D01*
X128001929Y-126670062D01*
X128001930Y-126670070D01*
X128059104Y-126883445D01*
X128059105Y-126883447D01*
X128059106Y-126883450D01*
X128152466Y-127083662D01*
X128152468Y-127083666D01*
X128279170Y-127264615D01*
X128279175Y-127264621D01*
X128435378Y-127420824D01*
X128435384Y-127420829D01*
X128616333Y-127547531D01*
X128616335Y-127547532D01*
X128616338Y-127547534D01*
X128816550Y-127640894D01*
X128816556Y-127640895D01*
X128816557Y-127640896D01*
X128929515Y-127671163D01*
X128989176Y-127707528D01*
X129019705Y-127770375D01*
X129011410Y-127839750D01*
X128966925Y-127893628D01*
X128900373Y-127914903D01*
X128897290Y-127914938D01*
X115022159Y-127900130D01*
X114955140Y-127880374D01*
X114909442Y-127827521D01*
X114898303Y-127777854D01*
X114850012Y-124300864D01*
X114850000Y-124299142D01*
X114850000Y-121754997D01*
X114869685Y-121687958D01*
X114922489Y-121642203D01*
X114991647Y-121632259D01*
X115048312Y-121655731D01*
X115103910Y-121697352D01*
X115103913Y-121697354D01*
X115238620Y-121747596D01*
X115238627Y-121747598D01*
X115298155Y-121753999D01*
X115298172Y-121754000D01*
X115750000Y-121754000D01*
X115750000Y-120915686D01*
X115754394Y-120920080D01*
X115845606Y-120972741D01*
X115947339Y-121000000D01*
X116052661Y-121000000D01*
X116154394Y-120972741D01*
X116245606Y-120920080D01*
X116250000Y-120915686D01*
X116250000Y-121754000D01*
X116701828Y-121754000D01*
X116701844Y-121753999D01*
X116761372Y-121747598D01*
X116761379Y-121747596D01*
X116896086Y-121697354D01*
X116896093Y-121697350D01*
X117011187Y-121611190D01*
X117011190Y-121611187D01*
X117097350Y-121496093D01*
X117097354Y-121496086D01*
X117147596Y-121361379D01*
X117147598Y-121361372D01*
X117153999Y-121301844D01*
X117154000Y-121301827D01*
X117154000Y-120833653D01*
X117173685Y-120766614D01*
X117226489Y-120720859D01*
X117295647Y-120710915D01*
X117359203Y-120739940D01*
X117396977Y-120798718D01*
X117399888Y-120810866D01*
X117400296Y-120813048D01*
X117458846Y-121018835D01*
X117458849Y-121018840D01*
X117554219Y-121210370D01*
X117683159Y-121381114D01*
X117841278Y-121525258D01*
X117841283Y-121525261D01*
X117841286Y-121525263D01*
X118023186Y-121637891D01*
X118023187Y-121637891D01*
X118023190Y-121637893D01*
X118222703Y-121715185D01*
X118433020Y-121754500D01*
X118433022Y-121754500D01*
X118646978Y-121754500D01*
X118646980Y-121754500D01*
X118857297Y-121715185D01*
X119056810Y-121637893D01*
X119238722Y-121525258D01*
X119396841Y-121381114D01*
X119525781Y-121210370D01*
X119621151Y-121018840D01*
X119621151Y-121018837D01*
X119621153Y-121018835D01*
X119679703Y-120813050D01*
X119679704Y-120813047D01*
X119686479Y-120739940D01*
X119686529Y-120739394D01*
X119712315Y-120674457D01*
X119769116Y-120633770D01*
X119838897Y-120630250D01*
X119899503Y-120665015D01*
X119931693Y-120727028D01*
X119933471Y-120739395D01*
X119940295Y-120813047D01*
X119940296Y-120813050D01*
X119998846Y-121018835D01*
X119998849Y-121018840D01*
X120094219Y-121210370D01*
X120223159Y-121381114D01*
X120381278Y-121525258D01*
X120381283Y-121525261D01*
X120381286Y-121525263D01*
X120563186Y-121637891D01*
X120563187Y-121637891D01*
X120563190Y-121637893D01*
X120762703Y-121715185D01*
X120973020Y-121754500D01*
X120973022Y-121754500D01*
X121186978Y-121754500D01*
X121186980Y-121754500D01*
X121397297Y-121715185D01*
X121596810Y-121637893D01*
X121778722Y-121525258D01*
X121936841Y-121381114D01*
X122065781Y-121210370D01*
X122161151Y-121018840D01*
X122161151Y-121018837D01*
X122161153Y-121018835D01*
X122219703Y-120813050D01*
X122219704Y-120813047D01*
X122226479Y-120739940D01*
X122226529Y-120739394D01*
X122252315Y-120674457D01*
X122309116Y-120633770D01*
X122378897Y-120630250D01*
X122439503Y-120665015D01*
X122471693Y-120727028D01*
X122473471Y-120739395D01*
X122480295Y-120813047D01*
X122480296Y-120813050D01*
X122538846Y-121018835D01*
X122538849Y-121018840D01*
X122634219Y-121210370D01*
X122763159Y-121381114D01*
X122921278Y-121525258D01*
X122921283Y-121525261D01*
X122921286Y-121525263D01*
X123103186Y-121637891D01*
X123103187Y-121637891D01*
X123103190Y-121637893D01*
X123302703Y-121715185D01*
X123513020Y-121754500D01*
X123513022Y-121754500D01*
X123726978Y-121754500D01*
X123726980Y-121754500D01*
X123937297Y-121715185D01*
X124136810Y-121637893D01*
X124318722Y-121525258D01*
X124476841Y-121381114D01*
X124605781Y-121210370D01*
X124701151Y-121018840D01*
X124701151Y-121018837D01*
X124701153Y-121018835D01*
X124759703Y-120813050D01*
X124759704Y-120813047D01*
X124766479Y-120739940D01*
X124766529Y-120739394D01*
X124792315Y-120674457D01*
X124849116Y-120633770D01*
X124918897Y-120630250D01*
X124979503Y-120665015D01*
X125011693Y-120727028D01*
X125013471Y-120739395D01*
X125020295Y-120813047D01*
X125020296Y-120813050D01*
X125078846Y-121018835D01*
X125078849Y-121018840D01*
X125174219Y-121210370D01*
X125303159Y-121381114D01*
X125461278Y-121525258D01*
X125461283Y-121525261D01*
X125461286Y-121525263D01*
X125643186Y-121637891D01*
X125643187Y-121637891D01*
X125643190Y-121637893D01*
X125842703Y-121715185D01*
X126053020Y-121754500D01*
X126053022Y-121754500D01*
X126266978Y-121754500D01*
X126266980Y-121754500D01*
X126477297Y-121715185D01*
X126676810Y-121637893D01*
X126858722Y-121525258D01*
X127016841Y-121381114D01*
X127145781Y-121210370D01*
X127241151Y-121018840D01*
X127241151Y-121018837D01*
X127241153Y-121018835D01*
X127299703Y-120813050D01*
X127299704Y-120813047D01*
X127306479Y-120739940D01*
X127306529Y-120739394D01*
X127332315Y-120674457D01*
X127389116Y-120633770D01*
X127458897Y-120630250D01*
X127519503Y-120665015D01*
X127551693Y-120727028D01*
X127553471Y-120739395D01*
X127560295Y-120813047D01*
X127560296Y-120813050D01*
X127618846Y-121018835D01*
X127618849Y-121018840D01*
X127714219Y-121210370D01*
X127843159Y-121381114D01*
X128001278Y-121525258D01*
X128001283Y-121525261D01*
X128001286Y-121525263D01*
X128183186Y-121637891D01*
X128183187Y-121637891D01*
X128183190Y-121637893D01*
X128382703Y-121715185D01*
X128593020Y-121754500D01*
X128593022Y-121754500D01*
X128806978Y-121754500D01*
X128806980Y-121754500D01*
X129017297Y-121715185D01*
X129216810Y-121637893D01*
X129398722Y-121525258D01*
X129556841Y-121381114D01*
X129685781Y-121210370D01*
X129781151Y-121018840D01*
X129781151Y-121018837D01*
X129781153Y-121018835D01*
X129839703Y-120813050D01*
X129839704Y-120813047D01*
X129846479Y-120739940D01*
X129846529Y-120739394D01*
X129872315Y-120674457D01*
X129929116Y-120633770D01*
X129998897Y-120630250D01*
X130059503Y-120665015D01*
X130091693Y-120727028D01*
X130093471Y-120739395D01*
X130100295Y-120813047D01*
X130100296Y-120813050D01*
X130158846Y-121018835D01*
X130158849Y-121018840D01*
X130254219Y-121210370D01*
X130383159Y-121381114D01*
X130541278Y-121525258D01*
X130541283Y-121525261D01*
X130541286Y-121525263D01*
X130723186Y-121637891D01*
X130723187Y-121637891D01*
X130723190Y-121637893D01*
X130922703Y-121715185D01*
X131133020Y-121754500D01*
X131133022Y-121754500D01*
X131346978Y-121754500D01*
X131346980Y-121754500D01*
X131557297Y-121715185D01*
X131756810Y-121637893D01*
X131938722Y-121525258D01*
X132096841Y-121381114D01*
X132225781Y-121210370D01*
X132321151Y-121018840D01*
X132321151Y-121018837D01*
X132321153Y-121018835D01*
X132379703Y-120813050D01*
X132379704Y-120813047D01*
X132386479Y-120739940D01*
X132386529Y-120739394D01*
X132412315Y-120674457D01*
X132469116Y-120633770D01*
X132538897Y-120630250D01*
X132599503Y-120665015D01*
X132631693Y-120727028D01*
X132633471Y-120739395D01*
X132640295Y-120813047D01*
X132640296Y-120813050D01*
X132698846Y-121018835D01*
X132698849Y-121018840D01*
X132794219Y-121210370D01*
X132923159Y-121381114D01*
X133081278Y-121525258D01*
X133081283Y-121525261D01*
X133081286Y-121525263D01*
X133263186Y-121637891D01*
X133263187Y-121637891D01*
X133263190Y-121637893D01*
X133462703Y-121715185D01*
X133673020Y-121754500D01*
X133673022Y-121754500D01*
X133886978Y-121754500D01*
X133886980Y-121754500D01*
X134097297Y-121715185D01*
X134296810Y-121637893D01*
X134478722Y-121525258D01*
X134636841Y-121381114D01*
X134765781Y-121210370D01*
X134861151Y-121018840D01*
X134861151Y-121018837D01*
X134861153Y-121018835D01*
X134919703Y-120813050D01*
X134919704Y-120813047D01*
X134926479Y-120739940D01*
X134939446Y-120600000D01*
X134919704Y-120386952D01*
X134889251Y-120279920D01*
X134861153Y-120181164D01*
X134861150Y-120181158D01*
X134765781Y-119989630D01*
X134636841Y-119818886D01*
X134478722Y-119674742D01*
X134478716Y-119674738D01*
X134478713Y-119674736D01*
X134296813Y-119562108D01*
X134296807Y-119562106D01*
X134097297Y-119484815D01*
X133886980Y-119445500D01*
X133673020Y-119445500D01*
X133462703Y-119484815D01*
X133412074Y-119504429D01*
X133263192Y-119562106D01*
X133263186Y-119562108D01*
X133081286Y-119674736D01*
X133081283Y-119674738D01*
X133081279Y-119674740D01*
X133081278Y-119674742D01*
X133049287Y-119703906D01*
X132923158Y-119818887D01*
X132794219Y-119989629D01*
X132698849Y-120181158D01*
X132698846Y-120181164D01*
X132640296Y-120386949D01*
X132640295Y-120386952D01*
X132633471Y-120460604D01*
X132607685Y-120525542D01*
X132550884Y-120566229D01*
X132481103Y-120569749D01*
X132420497Y-120534984D01*
X132388307Y-120472971D01*
X132386529Y-120460604D01*
X132379704Y-120386952D01*
X132379703Y-120386949D01*
X132321153Y-120181164D01*
X132321150Y-120181158D01*
X132225781Y-119989630D01*
X132096841Y-119818886D01*
X131938722Y-119674742D01*
X131938716Y-119674738D01*
X131938713Y-119674736D01*
X131756813Y-119562108D01*
X131756807Y-119562106D01*
X131557297Y-119484815D01*
X131346980Y-119445500D01*
X131133020Y-119445500D01*
X130922703Y-119484815D01*
X130872074Y-119504429D01*
X130723192Y-119562106D01*
X130723186Y-119562108D01*
X130541286Y-119674736D01*
X130541283Y-119674738D01*
X130541279Y-119674740D01*
X130541278Y-119674742D01*
X130509287Y-119703906D01*
X130383158Y-119818887D01*
X130254219Y-119989629D01*
X130158849Y-120181158D01*
X130158846Y-120181164D01*
X130100296Y-120386949D01*
X130100295Y-120386952D01*
X130093471Y-120460604D01*
X130067685Y-120525542D01*
X130010884Y-120566229D01*
X129941103Y-120569749D01*
X129880497Y-120534984D01*
X129848307Y-120472971D01*
X129846529Y-120460604D01*
X129839704Y-120386952D01*
X129839703Y-120386949D01*
X129781153Y-120181164D01*
X129781150Y-120181158D01*
X129685781Y-119989630D01*
X129556841Y-119818886D01*
X129398722Y-119674742D01*
X129398716Y-119674738D01*
X129398713Y-119674736D01*
X129216813Y-119562108D01*
X129216807Y-119562106D01*
X129017297Y-119484815D01*
X128806980Y-119445500D01*
X128593020Y-119445500D01*
X128382703Y-119484815D01*
X128332074Y-119504429D01*
X128183192Y-119562106D01*
X128183186Y-119562108D01*
X128001286Y-119674736D01*
X128001283Y-119674738D01*
X128001279Y-119674740D01*
X128001278Y-119674742D01*
X127969287Y-119703906D01*
X127843158Y-119818887D01*
X127714219Y-119989629D01*
X127618849Y-120181158D01*
X127618846Y-120181164D01*
X127560296Y-120386949D01*
X127560295Y-120386952D01*
X127553471Y-120460604D01*
X127527685Y-120525542D01*
X127470884Y-120566229D01*
X127401103Y-120569749D01*
X127340497Y-120534984D01*
X127308307Y-120472971D01*
X127306529Y-120460604D01*
X127299704Y-120386952D01*
X127299703Y-120386949D01*
X127241153Y-120181164D01*
X127241150Y-120181158D01*
X127145781Y-119989630D01*
X127016841Y-119818886D01*
X126858722Y-119674742D01*
X126858716Y-119674738D01*
X126858713Y-119674736D01*
X126676813Y-119562108D01*
X126676807Y-119562106D01*
X126477297Y-119484815D01*
X126266980Y-119445500D01*
X126053020Y-119445500D01*
X125842703Y-119484815D01*
X125792074Y-119504429D01*
X125643192Y-119562106D01*
X125643186Y-119562108D01*
X125461286Y-119674736D01*
X125461283Y-119674738D01*
X125461279Y-119674740D01*
X125461278Y-119674742D01*
X125429287Y-119703906D01*
X125303158Y-119818887D01*
X125174219Y-119989629D01*
X125078849Y-120181158D01*
X125078846Y-120181164D01*
X125020296Y-120386949D01*
X125020295Y-120386952D01*
X125013471Y-120460604D01*
X124987685Y-120525542D01*
X124930884Y-120566229D01*
X124861103Y-120569749D01*
X124800497Y-120534984D01*
X124768307Y-120472971D01*
X124766529Y-120460604D01*
X124759704Y-120386952D01*
X124759703Y-120386949D01*
X124701153Y-120181164D01*
X124701150Y-120181158D01*
X124605781Y-119989630D01*
X124476841Y-119818886D01*
X124318722Y-119674742D01*
X124318716Y-119674738D01*
X124318713Y-119674736D01*
X124136813Y-119562108D01*
X124136807Y-119562106D01*
X123937297Y-119484815D01*
X123726980Y-119445500D01*
X123513020Y-119445500D01*
X123302703Y-119484815D01*
X123252074Y-119504429D01*
X123103192Y-119562106D01*
X123103186Y-119562108D01*
X122921286Y-119674736D01*
X122921283Y-119674738D01*
X122921279Y-119674740D01*
X122921278Y-119674742D01*
X122889287Y-119703906D01*
X122763158Y-119818887D01*
X122634219Y-119989629D01*
X122538849Y-120181158D01*
X122538846Y-120181164D01*
X122480296Y-120386949D01*
X122480295Y-120386952D01*
X122473471Y-120460604D01*
X122447685Y-120525542D01*
X122390884Y-120566229D01*
X122321103Y-120569749D01*
X122260497Y-120534984D01*
X122228307Y-120472971D01*
X122226529Y-120460604D01*
X122219704Y-120386952D01*
X122219703Y-120386949D01*
X122161153Y-120181164D01*
X122161150Y-120181158D01*
X122065781Y-119989630D01*
X121936841Y-119818886D01*
X121778722Y-119674742D01*
X121778716Y-119674738D01*
X121778713Y-119674736D01*
X121596813Y-119562108D01*
X121596807Y-119562106D01*
X121397297Y-119484815D01*
X121186980Y-119445500D01*
X120973020Y-119445500D01*
X120762703Y-119484815D01*
X120712074Y-119504429D01*
X120563192Y-119562106D01*
X120563186Y-119562108D01*
X120381286Y-119674736D01*
X120381283Y-119674738D01*
X120381279Y-119674740D01*
X120381278Y-119674742D01*
X120349287Y-119703906D01*
X120223158Y-119818887D01*
X120094219Y-119989629D01*
X119998849Y-120181158D01*
X119998846Y-120181164D01*
X119940296Y-120386949D01*
X119940295Y-120386952D01*
X119933471Y-120460604D01*
X119907685Y-120525542D01*
X119850884Y-120566229D01*
X119781103Y-120569749D01*
X119720497Y-120534984D01*
X119688307Y-120472971D01*
X119686529Y-120460604D01*
X119679704Y-120386952D01*
X119679703Y-120386949D01*
X119621153Y-120181164D01*
X119621150Y-120181158D01*
X119525781Y-119989630D01*
X119396841Y-119818886D01*
X119238722Y-119674742D01*
X119238716Y-119674738D01*
X119238713Y-119674736D01*
X119056813Y-119562108D01*
X119056807Y-119562106D01*
X118857297Y-119484815D01*
X118646980Y-119445500D01*
X118433020Y-119445500D01*
X118222703Y-119484815D01*
X118172074Y-119504429D01*
X118023192Y-119562106D01*
X118023186Y-119562108D01*
X117841286Y-119674736D01*
X117841283Y-119674738D01*
X117841279Y-119674740D01*
X117841278Y-119674742D01*
X117809287Y-119703906D01*
X117683158Y-119818887D01*
X117554219Y-119989629D01*
X117458849Y-120181158D01*
X117458846Y-120181164D01*
X117400297Y-120386946D01*
X117399888Y-120389136D01*
X117399403Y-120390089D01*
X117398727Y-120392466D01*
X117398261Y-120392333D01*
X117368218Y-120451415D01*
X117307904Y-120486686D01*
X117238096Y-120483750D01*
X117180957Y-120443539D01*
X117154629Y-120378819D01*
X117154000Y-120366346D01*
X117154000Y-119898172D01*
X117153999Y-119898155D01*
X117147598Y-119838627D01*
X117147596Y-119838620D01*
X117097354Y-119703913D01*
X117097350Y-119703906D01*
X117011190Y-119588812D01*
X117011187Y-119588809D01*
X116896093Y-119502649D01*
X116896086Y-119502645D01*
X116761379Y-119452403D01*
X116761372Y-119452401D01*
X116701844Y-119446000D01*
X116250000Y-119446000D01*
X116250000Y-120284314D01*
X116245606Y-120279920D01*
X116154394Y-120227259D01*
X116052661Y-120200000D01*
X115947339Y-120200000D01*
X115845606Y-120227259D01*
X115754394Y-120279920D01*
X115750000Y-120284314D01*
X115750000Y-119446000D01*
X115298155Y-119446000D01*
X115238627Y-119452401D01*
X115238620Y-119452403D01*
X115103913Y-119502645D01*
X115103910Y-119502647D01*
X115048311Y-119544269D01*
X114982847Y-119568686D01*
X114914574Y-119553834D01*
X114865168Y-119504429D01*
X114850000Y-119445002D01*
X114850000Y-119074132D01*
X114869685Y-119007093D01*
X114922489Y-118961338D01*
X114974129Y-118950132D01*
X161576823Y-118999868D01*
G37*
%TD.AperFunction*%
%TD*%
%TA.AperFunction,Conductor*%
%TO.N,+5V*%
G36*
X187492906Y-47969865D02*
G01*
X187538828Y-48022523D01*
X187550198Y-48074193D01*
X187553167Y-49928778D01*
X187533590Y-49995849D01*
X187480859Y-50041689D01*
X187421058Y-50052712D01*
X187300000Y-50044778D01*
X187012161Y-50063644D01*
X187012155Y-50063645D01*
X187012150Y-50063646D01*
X186729254Y-50119917D01*
X186729239Y-50119921D01*
X186456094Y-50212642D01*
X186197393Y-50340219D01*
X186197386Y-50340223D01*
X185957547Y-50500478D01*
X185740672Y-50690672D01*
X185550478Y-50907547D01*
X185390223Y-51147386D01*
X185390219Y-51147393D01*
X185262642Y-51406094D01*
X185169921Y-51679239D01*
X185169917Y-51679254D01*
X185113646Y-51962150D01*
X185113644Y-51962162D01*
X185094778Y-52250000D01*
X185113644Y-52537837D01*
X185113646Y-52537849D01*
X185169917Y-52820745D01*
X185169921Y-52820760D01*
X185262642Y-53093905D01*
X185390219Y-53352606D01*
X185390223Y-53352613D01*
X185550478Y-53592452D01*
X185740672Y-53809327D01*
X185957546Y-53999520D01*
X186197389Y-54159778D01*
X186456098Y-54287359D01*
X186729247Y-54380081D01*
X187012161Y-54436356D01*
X187300000Y-54455222D01*
X187428490Y-54446800D01*
X187496673Y-54462057D01*
X187545784Y-54511755D01*
X187560600Y-54570335D01*
X187609215Y-84930453D01*
X187589638Y-84997524D01*
X187536907Y-85043364D01*
X187467765Y-85053418D01*
X187404162Y-85024495D01*
X187368174Y-84971607D01*
X187325789Y-84850478D01*
X187229816Y-84697738D01*
X187102262Y-84570184D01*
X186949523Y-84474211D01*
X186779254Y-84414631D01*
X186779249Y-84414630D01*
X186600004Y-84394435D01*
X186599996Y-84394435D01*
X186420750Y-84414630D01*
X186420745Y-84414631D01*
X186250476Y-84474211D01*
X186097737Y-84570184D01*
X185970184Y-84697737D01*
X185874211Y-84850476D01*
X185814631Y-85020745D01*
X185814630Y-85020750D01*
X185794435Y-85199996D01*
X185794435Y-85200003D01*
X185814630Y-85379249D01*
X185814631Y-85379254D01*
X185874211Y-85549523D01*
X185970184Y-85702262D01*
X186097738Y-85829816D01*
X186250478Y-85925789D01*
X186420745Y-85985368D01*
X186420750Y-85985369D01*
X186599996Y-86005565D01*
X186600000Y-86005565D01*
X186600004Y-86005565D01*
X186779249Y-85985369D01*
X186779252Y-85985368D01*
X186779255Y-85985368D01*
X186949522Y-85925789D01*
X187102262Y-85829816D01*
X187229816Y-85702262D01*
X187325789Y-85549522D01*
X187369033Y-85425937D01*
X187409754Y-85369163D01*
X187474706Y-85343415D01*
X187543268Y-85356871D01*
X187593671Y-85405258D01*
X187610074Y-85466694D01*
X187649800Y-110275547D01*
X187630223Y-110342618D01*
X187577492Y-110388458D01*
X187525547Y-110399746D01*
X143673429Y-110310251D01*
X143606430Y-110290429D01*
X143560783Y-110237532D01*
X143549682Y-110186572D01*
X143535095Y-104514162D01*
X149079500Y-104514162D01*
X149115215Y-104739660D01*
X149185770Y-104956803D01*
X149289421Y-105160228D01*
X149423621Y-105344937D01*
X149585063Y-105506379D01*
X149769772Y-105640579D01*
X149865884Y-105689550D01*
X149973196Y-105744229D01*
X149973198Y-105744229D01*
X149973201Y-105744231D01*
X150089592Y-105782049D01*
X150190339Y-105814784D01*
X150415838Y-105850500D01*
X150415843Y-105850500D01*
X150644162Y-105850500D01*
X150869660Y-105814784D01*
X150871165Y-105814295D01*
X151086799Y-105744231D01*
X151290228Y-105640579D01*
X151474937Y-105506379D01*
X151636379Y-105344937D01*
X151699992Y-105257380D01*
X151755319Y-105214717D01*
X151824933Y-105208738D01*
X151886728Y-105241343D01*
X151900626Y-105257382D01*
X151964004Y-105344613D01*
X151964004Y-105344614D01*
X152125385Y-105505995D01*
X152310033Y-105640150D01*
X152513395Y-105743769D01*
X152730455Y-105814295D01*
X152820000Y-105828478D01*
X152820000Y-104744560D01*
X152873147Y-104775245D01*
X153002857Y-104810000D01*
X153137143Y-104810000D01*
X153266853Y-104775245D01*
X153320000Y-104744560D01*
X153320000Y-105828477D01*
X153409544Y-105814295D01*
X153626604Y-105743769D01*
X153829966Y-105640150D01*
X154014614Y-105505995D01*
X154175995Y-105344614D01*
X154176000Y-105344608D01*
X154239373Y-105257383D01*
X154294702Y-105214717D01*
X154364316Y-105208738D01*
X154426111Y-105241343D01*
X154440003Y-105257375D01*
X154503621Y-105344937D01*
X154665063Y-105506379D01*
X154849772Y-105640579D01*
X154945884Y-105689550D01*
X155053196Y-105744229D01*
X155053198Y-105744229D01*
X155053201Y-105744231D01*
X155169592Y-105782049D01*
X155270339Y-105814784D01*
X155495838Y-105850500D01*
X155495843Y-105850500D01*
X155724162Y-105850500D01*
X155949660Y-105814784D01*
X155951165Y-105814295D01*
X156166799Y-105744231D01*
X156370228Y-105640579D01*
X156554937Y-105506379D01*
X156716379Y-105344937D01*
X156779682Y-105257807D01*
X156835012Y-105215143D01*
X156904626Y-105209164D01*
X156966421Y-105241770D01*
X156980315Y-105257804D01*
X157043621Y-105344937D01*
X157205063Y-105506379D01*
X157389772Y-105640579D01*
X157485884Y-105689550D01*
X157593196Y-105744229D01*
X157593198Y-105744229D01*
X157593201Y-105744231D01*
X157709592Y-105782049D01*
X157810339Y-105814784D01*
X158035838Y-105850500D01*
X158035843Y-105850500D01*
X158264162Y-105850500D01*
X158489660Y-105814784D01*
X158491165Y-105814295D01*
X158706799Y-105744231D01*
X158910228Y-105640579D01*
X159094937Y-105506379D01*
X159256379Y-105344937D01*
X159319682Y-105257807D01*
X159375012Y-105215143D01*
X159444626Y-105209164D01*
X159506421Y-105241770D01*
X159520315Y-105257804D01*
X159583621Y-105344937D01*
X159745063Y-105506379D01*
X159929772Y-105640579D01*
X160025884Y-105689550D01*
X160133196Y-105744229D01*
X160133198Y-105744229D01*
X160133201Y-105744231D01*
X160249592Y-105782049D01*
X160350339Y-105814784D01*
X160575838Y-105850500D01*
X160575843Y-105850500D01*
X160804162Y-105850500D01*
X161029660Y-105814784D01*
X161031165Y-105814295D01*
X161246799Y-105744231D01*
X161450228Y-105640579D01*
X161634937Y-105506379D01*
X161796379Y-105344937D01*
X161859682Y-105257807D01*
X161915012Y-105215143D01*
X161984626Y-105209164D01*
X162046421Y-105241770D01*
X162060315Y-105257804D01*
X162123621Y-105344937D01*
X162285063Y-105506379D01*
X162469772Y-105640579D01*
X162565884Y-105689550D01*
X162673196Y-105744229D01*
X162673198Y-105744229D01*
X162673201Y-105744231D01*
X162789592Y-105782049D01*
X162890339Y-105814784D01*
X163115838Y-105850500D01*
X163115843Y-105850500D01*
X163344162Y-105850500D01*
X163569660Y-105814784D01*
X163571165Y-105814295D01*
X163786799Y-105744231D01*
X163990228Y-105640579D01*
X164174937Y-105506379D01*
X164336379Y-105344937D01*
X164399682Y-105257807D01*
X164455012Y-105215143D01*
X164524626Y-105209164D01*
X164586421Y-105241770D01*
X164600315Y-105257804D01*
X164663621Y-105344937D01*
X164825063Y-105506379D01*
X165009772Y-105640579D01*
X165105884Y-105689550D01*
X165213196Y-105744229D01*
X165213198Y-105744229D01*
X165213201Y-105744231D01*
X165329592Y-105782049D01*
X165430339Y-105814784D01*
X165655838Y-105850500D01*
X165655843Y-105850500D01*
X165884162Y-105850500D01*
X166109660Y-105814784D01*
X166111165Y-105814295D01*
X166326799Y-105744231D01*
X166530228Y-105640579D01*
X166714937Y-105506379D01*
X166876379Y-105344937D01*
X166939682Y-105257807D01*
X166995012Y-105215143D01*
X167064626Y-105209164D01*
X167126421Y-105241770D01*
X167140315Y-105257804D01*
X167203621Y-105344937D01*
X167365063Y-105506379D01*
X167549772Y-105640579D01*
X167645884Y-105689550D01*
X167753196Y-105744229D01*
X167753198Y-105744229D01*
X167753201Y-105744231D01*
X167869592Y-105782049D01*
X167970339Y-105814784D01*
X168195838Y-105850500D01*
X168195843Y-105850500D01*
X168424162Y-105850500D01*
X168649660Y-105814784D01*
X168651165Y-105814295D01*
X168866799Y-105744231D01*
X169070228Y-105640579D01*
X169254937Y-105506379D01*
X169416379Y-105344937D01*
X169479682Y-105257807D01*
X169535012Y-105215143D01*
X169604626Y-105209164D01*
X169666421Y-105241770D01*
X169680315Y-105257804D01*
X169743621Y-105344937D01*
X169905063Y-105506379D01*
X170089772Y-105640579D01*
X170185884Y-105689550D01*
X170293196Y-105744229D01*
X170293198Y-105744229D01*
X170293201Y-105744231D01*
X170409592Y-105782049D01*
X170510339Y-105814784D01*
X170735838Y-105850500D01*
X170735843Y-105850500D01*
X170964162Y-105850500D01*
X171189660Y-105814784D01*
X171191165Y-105814295D01*
X171406799Y-105744231D01*
X171610228Y-105640579D01*
X171794937Y-105506379D01*
X171794940Y-105506375D01*
X171796034Y-105505581D01*
X171861840Y-105482101D01*
X171929894Y-105497926D01*
X171978589Y-105548031D01*
X171985102Y-105562566D01*
X171996202Y-105592328D01*
X171996206Y-105592335D01*
X172082452Y-105707544D01*
X172082455Y-105707547D01*
X172197664Y-105793793D01*
X172197671Y-105793797D01*
X172332517Y-105844091D01*
X172332516Y-105844091D01*
X172339444Y-105844835D01*
X172392127Y-105850500D01*
X174387872Y-105850499D01*
X174447483Y-105844091D01*
X174582331Y-105793796D01*
X174697546Y-105707546D01*
X174783796Y-105592331D01*
X174834091Y-105457483D01*
X174840500Y-105397873D01*
X174840499Y-103202128D01*
X174834091Y-103142517D01*
X174824866Y-103117784D01*
X174783797Y-103007671D01*
X174783793Y-103007664D01*
X174697547Y-102892455D01*
X174697544Y-102892452D01*
X174582335Y-102806206D01*
X174582328Y-102806202D01*
X174447482Y-102755908D01*
X174447483Y-102755908D01*
X174387883Y-102749501D01*
X174387881Y-102749500D01*
X174387873Y-102749500D01*
X174387864Y-102749500D01*
X172392129Y-102749500D01*
X172392123Y-102749501D01*
X172332516Y-102755908D01*
X172197671Y-102806202D01*
X172197664Y-102806206D01*
X172082455Y-102892452D01*
X172082452Y-102892455D01*
X171996206Y-103007664D01*
X171996203Y-103007669D01*
X171985102Y-103037434D01*
X171943230Y-103093367D01*
X171877766Y-103117784D01*
X171809493Y-103102932D01*
X171796034Y-103094418D01*
X171610228Y-102959421D01*
X171406803Y-102855770D01*
X171189660Y-102785215D01*
X170964162Y-102749500D01*
X170964157Y-102749500D01*
X170735843Y-102749500D01*
X170735838Y-102749500D01*
X170510339Y-102785215D01*
X170293196Y-102855770D01*
X170089771Y-102959421D01*
X169905061Y-103093622D01*
X169743623Y-103255060D01*
X169743616Y-103255069D01*
X169680317Y-103342191D01*
X169624987Y-103384857D01*
X169555373Y-103390835D01*
X169493579Y-103358228D01*
X169479683Y-103342191D01*
X169416617Y-103255391D01*
X169416379Y-103255063D01*
X169254937Y-103093621D01*
X169070228Y-102959421D01*
X169033700Y-102940809D01*
X168866803Y-102855770D01*
X168649660Y-102785215D01*
X168424162Y-102749500D01*
X168424157Y-102749500D01*
X168195843Y-102749500D01*
X168195838Y-102749500D01*
X167970339Y-102785215D01*
X167753196Y-102855770D01*
X167549771Y-102959421D01*
X167365061Y-103093622D01*
X167203623Y-103255060D01*
X167203616Y-103255069D01*
X167140317Y-103342191D01*
X167084987Y-103384857D01*
X167015373Y-103390835D01*
X166953579Y-103358228D01*
X166939683Y-103342191D01*
X166876617Y-103255391D01*
X166876379Y-103255063D01*
X166714937Y-103093621D01*
X166530228Y-102959421D01*
X166493700Y-102940809D01*
X166326803Y-102855770D01*
X166109660Y-102785215D01*
X165884162Y-102749500D01*
X165884157Y-102749500D01*
X165655843Y-102749500D01*
X165655838Y-102749500D01*
X165430339Y-102785215D01*
X165213196Y-102855770D01*
X165009771Y-102959421D01*
X164825061Y-103093622D01*
X164663623Y-103255060D01*
X164663616Y-103255069D01*
X164600317Y-103342191D01*
X164544987Y-103384857D01*
X164475373Y-103390835D01*
X164413579Y-103358228D01*
X164399683Y-103342191D01*
X164336617Y-103255391D01*
X164336379Y-103255063D01*
X164174937Y-103093621D01*
X163990228Y-102959421D01*
X163953700Y-102940809D01*
X163786803Y-102855770D01*
X163569660Y-102785215D01*
X163344162Y-102749500D01*
X163344157Y-102749500D01*
X163115843Y-102749500D01*
X163115838Y-102749500D01*
X162890339Y-102785215D01*
X162673196Y-102855770D01*
X162469771Y-102959421D01*
X162285061Y-103093622D01*
X162123623Y-103255060D01*
X162123616Y-103255069D01*
X162060317Y-103342191D01*
X162004987Y-103384857D01*
X161935373Y-103390835D01*
X161873579Y-103358228D01*
X161859683Y-103342191D01*
X161796617Y-103255391D01*
X161796379Y-103255063D01*
X161634937Y-103093621D01*
X161450228Y-102959421D01*
X161450217Y-102959415D01*
X161450215Y-102959414D01*
X161429404Y-102948810D01*
X161378609Y-102900835D01*
X161361700Y-102838326D01*
X161361700Y-96136982D01*
X161381385Y-96069943D01*
X161434189Y-96024188D01*
X161503347Y-96014244D01*
X161526655Y-96019941D01*
X161570737Y-96035366D01*
X161570743Y-96035367D01*
X161570745Y-96035368D01*
X161570746Y-96035368D01*
X161570750Y-96035369D01*
X161749996Y-96055565D01*
X161750000Y-96055565D01*
X161750004Y-96055565D01*
X161929249Y-96035369D01*
X161929252Y-96035368D01*
X161929255Y-96035368D01*
X162099522Y-95975789D01*
X162100488Y-95975181D01*
X162109523Y-95969506D01*
X162175494Y-95950500D01*
X163868996Y-95950500D01*
X163960040Y-95932389D01*
X164004328Y-95923580D01*
X164068069Y-95897177D01*
X164131807Y-95870777D01*
X164131808Y-95870776D01*
X164131811Y-95870775D01*
X164246543Y-95794114D01*
X164340654Y-95700003D01*
X174594435Y-95700003D01*
X174614630Y-95879249D01*
X174614631Y-95879254D01*
X174674211Y-96049523D01*
X174687042Y-96069943D01*
X174770184Y-96202262D01*
X174897738Y-96329816D01*
X175050478Y-96425789D01*
X175135573Y-96455565D01*
X175220745Y-96485368D01*
X175220750Y-96485369D01*
X175399996Y-96505565D01*
X175400000Y-96505565D01*
X175400004Y-96505565D01*
X175579249Y-96485369D01*
X175579252Y-96485368D01*
X175579255Y-96485368D01*
X175749522Y-96425789D01*
X175902262Y-96329816D01*
X176029816Y-96202262D01*
X176125789Y-96049522D01*
X176185368Y-95879255D01*
X176185369Y-95879249D01*
X176205565Y-95700003D01*
X176205565Y-95699996D01*
X176185369Y-95520750D01*
X176185368Y-95520745D01*
X176125788Y-95350476D01*
X176029815Y-95197737D01*
X175902262Y-95070184D01*
X175749523Y-94974211D01*
X175579254Y-94914631D01*
X175579249Y-94914630D01*
X175400004Y-94894435D01*
X175399996Y-94894435D01*
X175220750Y-94914630D01*
X175220745Y-94914631D01*
X175050476Y-94974211D01*
X174897737Y-95070184D01*
X174770184Y-95197737D01*
X174674211Y-95350476D01*
X174614631Y-95520745D01*
X174614630Y-95520750D01*
X174594435Y-95699996D01*
X174594435Y-95700003D01*
X164340654Y-95700003D01*
X167894114Y-92146543D01*
X167970775Y-92031811D01*
X168023580Y-91904329D01*
X168037972Y-91831974D01*
X168050500Y-91768993D01*
X168050500Y-79791518D01*
X168070185Y-79724479D01*
X168086814Y-79703842D01*
X171899290Y-75891365D01*
X171946013Y-75862007D01*
X172049522Y-75825789D01*
X172202262Y-75729816D01*
X172329816Y-75602262D01*
X172425789Y-75449522D01*
X172485368Y-75279255D01*
X172489817Y-75239769D01*
X172505565Y-75100003D01*
X172505565Y-75099996D01*
X172485369Y-74920750D01*
X172485368Y-74920745D01*
X172425788Y-74750476D01*
X172386582Y-74688080D01*
X172329816Y-74597738D01*
X172202262Y-74470184D01*
X172049523Y-74374211D01*
X171879254Y-74314631D01*
X171879249Y-74314630D01*
X171700004Y-74294435D01*
X171699996Y-74294435D01*
X171520750Y-74314630D01*
X171520745Y-74314631D01*
X171350476Y-74374211D01*
X171197737Y-74470184D01*
X171070184Y-74597737D01*
X170974212Y-74750475D01*
X170974211Y-74750476D01*
X170937992Y-74853984D01*
X170908632Y-74900709D01*
X166805887Y-79003455D01*
X166805882Y-79003461D01*
X166798967Y-79013809D01*
X166798968Y-79013810D01*
X166729228Y-79118182D01*
X166729221Y-79118195D01*
X166676421Y-79245667D01*
X166676418Y-79245677D01*
X166649500Y-79381004D01*
X166649500Y-87183677D01*
X166629815Y-87250716D01*
X166577011Y-87296471D01*
X166539384Y-87306897D01*
X166470750Y-87314630D01*
X166300478Y-87374210D01*
X166147737Y-87470184D01*
X166020184Y-87597737D01*
X165924211Y-87750476D01*
X165864631Y-87920745D01*
X165864630Y-87920750D01*
X165844435Y-88099996D01*
X165844435Y-88100003D01*
X165864630Y-88279249D01*
X165864631Y-88279254D01*
X165924211Y-88449523D01*
X166020184Y-88602262D01*
X166147738Y-88729816D01*
X166300478Y-88825789D01*
X166470745Y-88885368D01*
X166539384Y-88893101D01*
X166603796Y-88920166D01*
X166643352Y-88977760D01*
X166649500Y-89016321D01*
X166649500Y-91358481D01*
X166629815Y-91425520D01*
X166613181Y-91446162D01*
X163546162Y-94513181D01*
X163484839Y-94546666D01*
X163458481Y-94549500D01*
X162175494Y-94549500D01*
X162109523Y-94530494D01*
X162099525Y-94524212D01*
X161929254Y-94464631D01*
X161929249Y-94464630D01*
X161750004Y-94444435D01*
X161749996Y-94444435D01*
X161570750Y-94464630D01*
X161570738Y-94464633D01*
X161526653Y-94480059D01*
X161456874Y-94483620D01*
X161396247Y-94448890D01*
X161364021Y-94386896D01*
X161361700Y-94363017D01*
X161361700Y-91142204D01*
X161334781Y-91006877D01*
X161334780Y-91006876D01*
X161334780Y-91006872D01*
X161334778Y-91006867D01*
X161281978Y-90879395D01*
X161281971Y-90879382D01*
X161205315Y-90764659D01*
X161205314Y-90764658D01*
X161107742Y-90667086D01*
X157386819Y-86946162D01*
X157353334Y-86884839D01*
X157350500Y-86858481D01*
X157350500Y-79261609D01*
X157361219Y-79225103D01*
X157358302Y-79219484D01*
X157588856Y-79219484D01*
X157593477Y-79226674D01*
X157597971Y-79250168D01*
X157614902Y-79432887D01*
X157614902Y-79432889D01*
X157614903Y-79432892D01*
X157672492Y-79635297D01*
X157766293Y-79823675D01*
X157893109Y-79991607D01*
X157893112Y-79991610D01*
X158048627Y-80133380D01*
X158048629Y-80133382D01*
X158227543Y-80244161D01*
X158227549Y-80244164D01*
X158269119Y-80260268D01*
X158423775Y-80320182D01*
X158630631Y-80358850D01*
X158630633Y-80358850D01*
X158841069Y-80358850D01*
X158841071Y-80358850D01*
X159047927Y-80320182D01*
X159244155Y-80244163D01*
X159423074Y-80133381D01*
X159578591Y-79991609D01*
X159636897Y-79914400D01*
X159693004Y-79872764D01*
X159762716Y-79868072D01*
X159823898Y-79901815D01*
X159834804Y-79914401D01*
X159893107Y-79991607D01*
X159893109Y-79991610D01*
X160048625Y-80133380D01*
X160048627Y-80133382D01*
X160227541Y-80244161D01*
X160227547Y-80244164D01*
X160269117Y-80260268D01*
X160423773Y-80320182D01*
X160630629Y-80358850D01*
X160630631Y-80358850D01*
X160841067Y-80358850D01*
X160841069Y-80358850D01*
X161047925Y-80320182D01*
X161244153Y-80244163D01*
X161423072Y-80133381D01*
X161578589Y-79991609D01*
X161636897Y-79914396D01*
X161693003Y-79872763D01*
X161762715Y-79868070D01*
X161823897Y-79901812D01*
X161834802Y-79914397D01*
X161834805Y-79914401D01*
X161893111Y-79991611D01*
X162048626Y-80133380D01*
X162048628Y-80133382D01*
X162227542Y-80244161D01*
X162227548Y-80244164D01*
X162269118Y-80260268D01*
X162423774Y-80320182D01*
X162630630Y-80358850D01*
X162630632Y-80358850D01*
X162841068Y-80358850D01*
X162841070Y-80358850D01*
X163047926Y-80320182D01*
X163244154Y-80244163D01*
X163423073Y-80133381D01*
X163578590Y-79991609D01*
X163636896Y-79914400D01*
X163693003Y-79872764D01*
X163762715Y-79868072D01*
X163823897Y-79901815D01*
X163834803Y-79914400D01*
X163893107Y-79991607D01*
X163893110Y-79991610D01*
X164048625Y-80133380D01*
X164048627Y-80133382D01*
X164227541Y-80244161D01*
X164227547Y-80244164D01*
X164269117Y-80260268D01*
X164423773Y-80320182D01*
X164630629Y-80358850D01*
X164630631Y-80358850D01*
X164841067Y-80358850D01*
X164841069Y-80358850D01*
X165047925Y-80320182D01*
X165244153Y-80244163D01*
X165423072Y-80133381D01*
X165578589Y-79991609D01*
X165705407Y-79823675D01*
X165799208Y-79635297D01*
X165856797Y-79432892D01*
X165876214Y-79223350D01*
X165856797Y-79013808D01*
X165799208Y-78811403D01*
X165705407Y-78623025D01*
X165578589Y-78455091D01*
X165423072Y-78313319D01*
X165423070Y-78313317D01*
X165244156Y-78202538D01*
X165244150Y-78202535D01*
X165089497Y-78142623D01*
X165047925Y-78126518D01*
X164841069Y-78087850D01*
X164630629Y-78087850D01*
X164423773Y-78126518D01*
X164423770Y-78126518D01*
X164423770Y-78126519D01*
X164227547Y-78202535D01*
X164227541Y-78202538D01*
X164048627Y-78313317D01*
X164048625Y-78313319D01*
X163893109Y-78455089D01*
X163834802Y-78532300D01*
X163778693Y-78573935D01*
X163708981Y-78578626D01*
X163647799Y-78544883D01*
X163636895Y-78532299D01*
X163578588Y-78455089D01*
X163423073Y-78313319D01*
X163423071Y-78313317D01*
X163244157Y-78202538D01*
X163244151Y-78202535D01*
X163089498Y-78142623D01*
X163047926Y-78126518D01*
X162841070Y-78087850D01*
X162630630Y-78087850D01*
X162423774Y-78126518D01*
X162423771Y-78126518D01*
X162423771Y-78126519D01*
X162227548Y-78202535D01*
X162227542Y-78202538D01*
X162048628Y-78313317D01*
X162048626Y-78313319D01*
X161893111Y-78455089D01*
X161834803Y-78532301D01*
X161778693Y-78573937D01*
X161708981Y-78578628D01*
X161647800Y-78544886D01*
X161636895Y-78532301D01*
X161636894Y-78532300D01*
X161578589Y-78455091D01*
X161578587Y-78455088D01*
X161423072Y-78313319D01*
X161423070Y-78313317D01*
X161244156Y-78202538D01*
X161244150Y-78202535D01*
X161089497Y-78142623D01*
X161047925Y-78126518D01*
X160841069Y-78087850D01*
X160630629Y-78087850D01*
X160423773Y-78126518D01*
X160423770Y-78126518D01*
X160423770Y-78126519D01*
X160227547Y-78202535D01*
X160227541Y-78202538D01*
X160048627Y-78313317D01*
X160048625Y-78313319D01*
X159893110Y-78455089D01*
X159834804Y-78532299D01*
X159778695Y-78573935D01*
X159708983Y-78578626D01*
X159647801Y-78544884D01*
X159636896Y-78532299D01*
X159578589Y-78455089D01*
X159423074Y-78313319D01*
X159423072Y-78313317D01*
X159244158Y-78202538D01*
X159244152Y-78202535D01*
X159089499Y-78142623D01*
X159047927Y-78126518D01*
X158841071Y-78087850D01*
X158630631Y-78087850D01*
X158423775Y-78126518D01*
X158423772Y-78126518D01*
X158423772Y-78126519D01*
X158227549Y-78202535D01*
X158227543Y-78202538D01*
X158048629Y-78313317D01*
X158048627Y-78313319D01*
X157893112Y-78455089D01*
X157766293Y-78623024D01*
X157672493Y-78811399D01*
X157672492Y-78811403D01*
X157614903Y-79013808D01*
X157614903Y-79013809D01*
X157614903Y-79013810D01*
X157597971Y-79196531D01*
X157588856Y-79219484D01*
X157358302Y-79219484D01*
X157352807Y-79208898D01*
X157350500Y-79185090D01*
X157350500Y-75275493D01*
X157369508Y-75209519D01*
X157375787Y-75199525D01*
X157375786Y-75199525D01*
X157375789Y-75199522D01*
X157435368Y-75029255D01*
X157435369Y-75029249D01*
X157455565Y-74850003D01*
X157455565Y-74849996D01*
X157435369Y-74670750D01*
X157435368Y-74670745D01*
X157375788Y-74500476D01*
X157279815Y-74347737D01*
X157152262Y-74220184D01*
X156999523Y-74124211D01*
X156829254Y-74064631D01*
X156829249Y-74064630D01*
X156650004Y-74044435D01*
X156649996Y-74044435D01*
X156470750Y-74064630D01*
X156470745Y-74064631D01*
X156300476Y-74124211D01*
X156147737Y-74220184D01*
X156020184Y-74347737D01*
X155924211Y-74500476D01*
X155864631Y-74670745D01*
X155864630Y-74670750D01*
X155844435Y-74849996D01*
X155844435Y-74850003D01*
X155864630Y-75029249D01*
X155864631Y-75029254D01*
X155924212Y-75199525D01*
X155930492Y-75209519D01*
X155949500Y-75275493D01*
X155949500Y-87131006D01*
X155949500Y-87268994D01*
X155949500Y-87268996D01*
X155949499Y-87268996D01*
X155976418Y-87404322D01*
X155976421Y-87404332D01*
X156029222Y-87531807D01*
X156105887Y-87646545D01*
X156105888Y-87646546D01*
X159924381Y-91465037D01*
X159957866Y-91526360D01*
X159960700Y-91552718D01*
X159960700Y-102873770D01*
X159941015Y-102940809D01*
X159909588Y-102974085D01*
X159745063Y-103093621D01*
X159745061Y-103093623D01*
X159745060Y-103093623D01*
X159583623Y-103255060D01*
X159583616Y-103255069D01*
X159520317Y-103342191D01*
X159464987Y-103384857D01*
X159395373Y-103390835D01*
X159333579Y-103358228D01*
X159319683Y-103342191D01*
X159256617Y-103255391D01*
X159256379Y-103255063D01*
X159094937Y-103093621D01*
X158910228Y-102959421D01*
X158873700Y-102940809D01*
X158706803Y-102855770D01*
X158489660Y-102785215D01*
X158264162Y-102749500D01*
X158264157Y-102749500D01*
X158035843Y-102749500D01*
X158035838Y-102749500D01*
X157810339Y-102785215D01*
X157593196Y-102855770D01*
X157389771Y-102959421D01*
X157205061Y-103093622D01*
X157043623Y-103255060D01*
X157043616Y-103255069D01*
X156980317Y-103342191D01*
X156924987Y-103384857D01*
X156855373Y-103390835D01*
X156793579Y-103358228D01*
X156779683Y-103342191D01*
X156716617Y-103255391D01*
X156716379Y-103255063D01*
X156554937Y-103093621D01*
X156370228Y-102959421D01*
X156333700Y-102940809D01*
X156166803Y-102855770D01*
X155949660Y-102785215D01*
X155724162Y-102749500D01*
X155724157Y-102749500D01*
X155495843Y-102749500D01*
X155495838Y-102749500D01*
X155270339Y-102785215D01*
X155053196Y-102855770D01*
X154849771Y-102959421D01*
X154665061Y-103093622D01*
X154503622Y-103255061D01*
X154459834Y-103315329D01*
X154440319Y-103342191D01*
X154440009Y-103342617D01*
X154384678Y-103385282D01*
X154315065Y-103391261D01*
X154253270Y-103358655D01*
X154239373Y-103342616D01*
X154176000Y-103255391D01*
X154175995Y-103255385D01*
X154014614Y-103094004D01*
X153829966Y-102959849D01*
X153626602Y-102856229D01*
X153409541Y-102785703D01*
X153320000Y-102771521D01*
X153320000Y-103855439D01*
X153266853Y-103824755D01*
X153137143Y-103790000D01*
X153002857Y-103790000D01*
X152873147Y-103824755D01*
X152820000Y-103855439D01*
X152820000Y-102771521D01*
X152819999Y-102771521D01*
X152730458Y-102785703D01*
X152513397Y-102856229D01*
X152310033Y-102959849D01*
X152125385Y-103094004D01*
X151964003Y-103255386D01*
X151900626Y-103342617D01*
X151845295Y-103385283D01*
X151775682Y-103391261D01*
X151713887Y-103358655D01*
X151699990Y-103342616D01*
X151699681Y-103342191D01*
X151636379Y-103255063D01*
X151474937Y-103093621D01*
X151290228Y-102959421D01*
X151253700Y-102940809D01*
X151086803Y-102855770D01*
X150869660Y-102785215D01*
X150644162Y-102749500D01*
X150644157Y-102749500D01*
X150415843Y-102749500D01*
X150415838Y-102749500D01*
X150190339Y-102785215D01*
X149973196Y-102855770D01*
X149769771Y-102959421D01*
X149585061Y-103093622D01*
X149423622Y-103255061D01*
X149289421Y-103439771D01*
X149185770Y-103643196D01*
X149115215Y-103860339D01*
X149079500Y-104085837D01*
X149079500Y-104514162D01*
X143535095Y-104514162D01*
X143512301Y-95650003D01*
X144794435Y-95650003D01*
X144814630Y-95829249D01*
X144814631Y-95829254D01*
X144874211Y-95999523D01*
X144909425Y-96055565D01*
X144970184Y-96152262D01*
X145097738Y-96279816D01*
X145250478Y-96375789D01*
X145393367Y-96425788D01*
X145420745Y-96435368D01*
X145420750Y-96435369D01*
X145599996Y-96455565D01*
X145600000Y-96455565D01*
X145600004Y-96455565D01*
X145779249Y-96435369D01*
X145779252Y-96435368D01*
X145779255Y-96435368D01*
X145949522Y-96375789D01*
X146102262Y-96279816D01*
X146229816Y-96152262D01*
X146325789Y-95999522D01*
X146385368Y-95829255D01*
X146385369Y-95829249D01*
X146405565Y-95650003D01*
X146405565Y-95649996D01*
X146385369Y-95470750D01*
X146385368Y-95470745D01*
X146325788Y-95300476D01*
X146229815Y-95147737D01*
X146102262Y-95020184D01*
X145949523Y-94924211D01*
X145779254Y-94864631D01*
X145779249Y-94864630D01*
X145600004Y-94844435D01*
X145599996Y-94844435D01*
X145420750Y-94864630D01*
X145420745Y-94864631D01*
X145250476Y-94924211D01*
X145097737Y-95020184D01*
X144970184Y-95147737D01*
X144874211Y-95300476D01*
X144814631Y-95470745D01*
X144814630Y-95470750D01*
X144794435Y-95649996D01*
X144794435Y-95650003D01*
X143512301Y-95650003D01*
X143399406Y-51747994D01*
X143403631Y-51715586D01*
X143413367Y-51679254D01*
X143461843Y-51498337D01*
X143482065Y-51267200D01*
X143461843Y-51036063D01*
X143401792Y-50811949D01*
X143401790Y-50811945D01*
X143401135Y-50809500D01*
X143396911Y-50777736D01*
X143392928Y-49228980D01*
X143400409Y-49186250D01*
X143401789Y-49182457D01*
X143401792Y-49182451D01*
X143461843Y-48958337D01*
X143482065Y-48727200D01*
X143461843Y-48496063D01*
X143401792Y-48271949D01*
X143399944Y-48266872D01*
X143400683Y-48266602D01*
X143390334Y-48220208D01*
X143390318Y-48213919D01*
X143409832Y-48146832D01*
X143462519Y-48100943D01*
X143513924Y-48089607D01*
X187425807Y-47950393D01*
X187492906Y-47969865D01*
G37*
%TD.AperFunction*%
%TD*%
M02*
