%TF.GenerationSoftware,KiCad,Pcbnew,8.0.0*%
%TF.CreationDate,2025-02-07T11:41:03-03:30*%
%TF.ProjectId,H_Bridges,485f4272-6964-4676-9573-2e6b69636164,rev?*%
%TF.SameCoordinates,Original*%
%TF.FileFunction,Copper,L1,Top*%
%TF.FilePolarity,Positive*%
%FSLAX46Y46*%
G04 Gerber Fmt 4.6, Leading zero omitted, Abs format (unit mm)*
G04 Created by KiCad (PCBNEW 8.0.0) date 2025-02-07 11:41:03*
%MOMM*%
%LPD*%
G01*
G04 APERTURE LIST*
G04 Aperture macros list*
%AMRoundRect*
0 Rectangle with rounded corners*
0 $1 Rounding radius*
0 $2 $3 $4 $5 $6 $7 $8 $9 X,Y pos of 4 corners*
0 Add a 4 corners polygon primitive as box body*
4,1,4,$2,$3,$4,$5,$6,$7,$8,$9,$2,$3,0*
0 Add four circle primitives for the rounded corners*
1,1,$1+$1,$2,$3*
1,1,$1+$1,$4,$5*
1,1,$1+$1,$6,$7*
1,1,$1+$1,$8,$9*
0 Add four rect primitives between the rounded corners*
20,1,$1+$1,$2,$3,$4,$5,0*
20,1,$1+$1,$4,$5,$6,$7,0*
20,1,$1+$1,$6,$7,$8,$9,0*
20,1,$1+$1,$8,$9,$2,$3,0*%
G04 Aperture macros list end*
%TA.AperFunction,Conductor*%
%ADD10C,0.200000*%
%TD*%
%TA.AperFunction,SMDPad,CuDef*%
%ADD11RoundRect,0.200000X0.275000X-0.200000X0.275000X0.200000X-0.275000X0.200000X-0.275000X-0.200000X0*%
%TD*%
%TA.AperFunction,SMDPad,CuDef*%
%ADD12R,1.244600X4.064000*%
%TD*%
%TA.AperFunction,SMDPad,CuDef*%
%ADD13R,11.531600X8.559800*%
%TD*%
%TA.AperFunction,SMDPad,CuDef*%
%ADD14R,1.358900X0.279400*%
%TD*%
%TA.AperFunction,ComponentPad*%
%ADD15C,3.400000*%
%TD*%
%TA.AperFunction,ConnectorPad*%
%ADD16C,6.000000*%
%TD*%
%TA.AperFunction,SMDPad,CuDef*%
%ADD17R,0.500000X0.750000*%
%TD*%
%TA.AperFunction,SMDPad,CuDef*%
%ADD18RoundRect,0.200000X-0.275000X0.200000X-0.275000X-0.200000X0.275000X-0.200000X0.275000X0.200000X0*%
%TD*%
%TA.AperFunction,SMDPad,CuDef*%
%ADD19R,2.082800X3.429000*%
%TD*%
%TA.AperFunction,SMDPad,CuDef*%
%ADD20R,0.711200X1.524000*%
%TD*%
%TA.AperFunction,SMDPad,CuDef*%
%ADD21RoundRect,0.135000X0.135000X0.185000X-0.135000X0.185000X-0.135000X-0.185000X0.135000X-0.185000X0*%
%TD*%
%TA.AperFunction,SMDPad,CuDef*%
%ADD22RoundRect,0.225000X0.225000X0.250000X-0.225000X0.250000X-0.225000X-0.250000X0.225000X-0.250000X0*%
%TD*%
%TA.AperFunction,ComponentPad*%
%ADD23O,6.880000X3.440000*%
%TD*%
%TA.AperFunction,SMDPad,CuDef*%
%ADD24RoundRect,0.225000X-0.225000X-0.250000X0.225000X-0.250000X0.225000X0.250000X-0.225000X0.250000X0*%
%TD*%
%TA.AperFunction,SMDPad,CuDef*%
%ADD25RoundRect,0.150000X0.150000X-0.350000X0.150000X0.350000X-0.150000X0.350000X-0.150000X-0.350000X0*%
%TD*%
%TA.AperFunction,ComponentPad*%
%ADD26C,0.650000*%
%TD*%
%TA.AperFunction,ComponentPad*%
%ADD27O,0.900000X1.700000*%
%TD*%
%TA.AperFunction,ComponentPad*%
%ADD28O,0.900000X2.400000*%
%TD*%
%TA.AperFunction,ComponentPad*%
%ADD29R,1.900000X2.100000*%
%TD*%
%TA.AperFunction,ComponentPad*%
%ADD30O,1.900000X2.100000*%
%TD*%
%TA.AperFunction,SMDPad,CuDef*%
%ADD31R,0.670001X0.299999*%
%TD*%
%TA.AperFunction,ComponentPad*%
%ADD32C,1.524000*%
%TD*%
%TA.AperFunction,SMDPad,CuDef*%
%ADD33RoundRect,0.200000X0.200000X0.275000X-0.200000X0.275000X-0.200000X-0.275000X0.200000X-0.275000X0*%
%TD*%
%TA.AperFunction,ComponentPad*%
%ADD34R,1.308000X1.308000*%
%TD*%
%TA.AperFunction,ComponentPad*%
%ADD35C,1.308000*%
%TD*%
%TA.AperFunction,SMDPad,CuDef*%
%ADD36RoundRect,0.225000X0.250000X-0.225000X0.250000X0.225000X-0.250000X0.225000X-0.250000X-0.225000X0*%
%TD*%
%TA.AperFunction,SMDPad,CuDef*%
%ADD37RoundRect,0.225000X-0.250000X0.225000X-0.250000X-0.225000X0.250000X-0.225000X0.250000X0.225000X0*%
%TD*%
%TA.AperFunction,SMDPad,CuDef*%
%ADD38R,3.429000X2.082800*%
%TD*%
%TA.AperFunction,SMDPad,CuDef*%
%ADD39R,1.524000X0.711200*%
%TD*%
%TA.AperFunction,ComponentPad*%
%ADD40R,1.651000X1.651000*%
%TD*%
%TA.AperFunction,ComponentPad*%
%ADD41C,1.651000*%
%TD*%
%TA.AperFunction,SMDPad,CuDef*%
%ADD42R,0.812800X0.355600*%
%TD*%
%TA.AperFunction,SMDPad,CuDef*%
%ADD43RoundRect,0.200000X-0.200000X-0.275000X0.200000X-0.275000X0.200000X0.275000X-0.200000X0.275000X0*%
%TD*%
%TA.AperFunction,SMDPad,CuDef*%
%ADD44R,1.470000X1.200000*%
%TD*%
%TA.AperFunction,SMDPad,CuDef*%
%ADD45RoundRect,0.150000X-0.150000X0.350000X-0.150000X-0.350000X0.150000X-0.350000X0.150000X0.350000X0*%
%TD*%
%TA.AperFunction,SMDPad,CuDef*%
%ADD46R,0.750000X0.500000*%
%TD*%
%TA.AperFunction,SMDPad,CuDef*%
%ADD47R,1.500000X3.800000*%
%TD*%
%TA.AperFunction,ComponentPad*%
%ADD48C,1.270000*%
%TD*%
%TA.AperFunction,ViaPad*%
%ADD49C,0.600000*%
%TD*%
%TA.AperFunction,Conductor*%
%ADD50C,0.500000*%
%TD*%
%TA.AperFunction,Conductor*%
%ADD51C,0.300000*%
%TD*%
%TA.AperFunction,Conductor*%
%ADD52C,2.000000*%
%TD*%
%TA.AperFunction,Conductor*%
%ADD53C,0.450000*%
%TD*%
%TA.AperFunction,Conductor*%
%ADD54C,0.600000*%
%TD*%
%TA.AperFunction,Conductor*%
%ADD55C,0.400000*%
%TD*%
%TA.AperFunction,Conductor*%
%ADD56C,1.000000*%
%TD*%
G04 APERTURE END LIST*
D10*
%TO.N,/Charger/VBUS*%
X120250000Y-53970000D02*
X121850000Y-54370000D01*
X122650000Y-54370000D01*
X124300000Y-54070000D01*
X124300000Y-52820000D01*
X124450000Y-52820000D01*
X124450000Y-54120000D01*
X122650000Y-54770000D01*
X122650000Y-57820000D01*
X122650000Y-57870000D01*
X121900000Y-57870000D01*
X121900000Y-57580000D01*
X121900000Y-54770000D01*
X120000000Y-54170000D01*
X120000000Y-52770000D01*
X120250000Y-52770000D01*
X120250000Y-53970000D01*
%TA.AperFunction,Conductor*%
G36*
X120250000Y-53970000D02*
G01*
X121850000Y-54370000D01*
X122650000Y-54370000D01*
X124300000Y-54070000D01*
X124300000Y-52820000D01*
X124450000Y-52820000D01*
X124450000Y-54120000D01*
X122650000Y-54770000D01*
X122650000Y-57820000D01*
X122650000Y-57870000D01*
X121900000Y-57870000D01*
X121900000Y-57580000D01*
X121900000Y-54770000D01*
X120000000Y-54170000D01*
X120000000Y-52770000D01*
X120250000Y-52770000D01*
X120250000Y-53970000D01*
G37*
%TD.AperFunction*%
X122640000Y-60530000D02*
X123100000Y-61360000D01*
X123100000Y-62710000D01*
X121300000Y-62710000D01*
X121300000Y-61360000D01*
X121900000Y-60560000D01*
X121890000Y-57570000D01*
X122640000Y-57570000D01*
X122640000Y-60530000D01*
%TA.AperFunction,Conductor*%
G36*
X122640000Y-60530000D02*
G01*
X123100000Y-61360000D01*
X123100000Y-62710000D01*
X121300000Y-62710000D01*
X121300000Y-61360000D01*
X121900000Y-60560000D01*
X121890000Y-57570000D01*
X122640000Y-57570000D01*
X122640000Y-60530000D01*
G37*
%TD.AperFunction*%
%TO.N,+5V*%
X144550000Y-61050000D02*
X136500000Y-61050000D01*
X136500000Y-57750000D01*
X135000000Y-57750000D01*
X135000000Y-56450000D01*
X144550000Y-56450000D01*
X144550000Y-61050000D01*
%TA.AperFunction,Conductor*%
G36*
X144550000Y-61050000D02*
G01*
X136500000Y-61050000D01*
X136500000Y-57750000D01*
X135000000Y-57750000D01*
X135000000Y-56450000D01*
X144550000Y-56450000D01*
X144550000Y-61050000D01*
G37*
%TD.AperFunction*%
%TO.N,VCC*%
X135900000Y-62400000D02*
X135000000Y-62400000D01*
X135000000Y-67400000D01*
X133450000Y-67400000D01*
X133450000Y-61400000D01*
X135900000Y-61400000D01*
X135900000Y-62400000D01*
%TA.AperFunction,Conductor*%
G36*
X135900000Y-62400000D02*
G01*
X135000000Y-62400000D01*
X135000000Y-67400000D01*
X133450000Y-67400000D01*
X133450000Y-61400000D01*
X135900000Y-61400000D01*
X135900000Y-62400000D01*
G37*
%TD.AperFunction*%
%TO.N,VDD*%
X123100000Y-64310000D02*
X122600000Y-65360000D01*
X122600000Y-66710000D01*
X121750000Y-66710000D01*
X121750000Y-65360000D01*
X121300000Y-64360000D01*
X121300000Y-63160000D01*
X123100000Y-63160000D01*
X123100000Y-64310000D01*
%TA.AperFunction,Conductor*%
G36*
X123100000Y-64310000D02*
G01*
X122600000Y-65360000D01*
X122600000Y-66710000D01*
X121750000Y-66710000D01*
X121750000Y-65360000D01*
X121300000Y-64360000D01*
X121300000Y-63160000D01*
X123100000Y-63160000D01*
X123100000Y-64310000D01*
G37*
%TD.AperFunction*%
%TO.N,VCC*%
X135000000Y-67400000D02*
X134450000Y-68150000D01*
X134000000Y-68150000D01*
X133450000Y-67400000D01*
X133450000Y-63000000D01*
X135000000Y-63000000D01*
X135000000Y-67400000D01*
%TA.AperFunction,Conductor*%
G36*
X135000000Y-67400000D02*
G01*
X134450000Y-68150000D01*
X134000000Y-68150000D01*
X133450000Y-67400000D01*
X133450000Y-63000000D01*
X135000000Y-63000000D01*
X135000000Y-67400000D01*
G37*
%TD.AperFunction*%
%TO.N,+5V*%
X148900000Y-52550000D02*
X159500000Y-52550000D01*
X159500000Y-56950000D01*
X148900000Y-56950000D01*
X148900000Y-52550000D01*
%TA.AperFunction,Conductor*%
G36*
X148900000Y-52550000D02*
G01*
X159500000Y-52550000D01*
X159500000Y-56950000D01*
X148900000Y-56950000D01*
X148900000Y-52550000D01*
G37*
%TD.AperFunction*%
%TO.N,Net-(U3-FB)*%
X135900000Y-61000000D02*
X135000000Y-61000000D01*
X135000000Y-59200000D01*
X133200000Y-59200000D01*
X133200000Y-58550000D01*
X135900000Y-58550000D01*
X135900000Y-61000000D01*
%TA.AperFunction,Conductor*%
G36*
X135900000Y-61000000D02*
G01*
X135000000Y-61000000D01*
X135000000Y-59200000D01*
X133200000Y-59200000D01*
X133200000Y-58550000D01*
X135900000Y-58550000D01*
X135900000Y-61000000D01*
G37*
%TD.AperFunction*%
%TO.N,VDD*%
X130800000Y-79950000D02*
X130500000Y-79950000D01*
X130200000Y-79850000D01*
X130200000Y-79800000D01*
X130500000Y-79700000D01*
X130800000Y-79700000D01*
X130800000Y-79950000D01*
%TA.AperFunction,Conductor*%
G36*
X130800000Y-79950000D02*
G01*
X130500000Y-79950000D01*
X130200000Y-79850000D01*
X130200000Y-79800000D01*
X130500000Y-79700000D01*
X130800000Y-79700000D01*
X130800000Y-79950000D01*
G37*
%TD.AperFunction*%
%TO.N,+5V*%
X163850000Y-52250000D02*
X174450000Y-52250000D01*
X174450000Y-56650000D01*
X163850000Y-56650000D01*
X163850000Y-52250000D01*
%TA.AperFunction,Conductor*%
G36*
X163850000Y-52250000D02*
G01*
X174450000Y-52250000D01*
X174450000Y-56650000D01*
X163850000Y-56650000D01*
X163850000Y-52250000D01*
G37*
%TD.AperFunction*%
%TD*%
D11*
%TO.P,R1,1*%
%TO.N,/P1*%
X166640750Y-74165750D03*
%TO.P,R1,2*%
%TO.N,Net-(Q1-Pad1)*%
X166640750Y-72515750D03*
%TD*%
D12*
%TO.P,Q3,1*%
%TO.N,Net-(Q3-Pad1)*%
X151600750Y-69177050D03*
D13*
%TO.P,Q3,2*%
%TO.N,+5V*%
X154089950Y-57658150D03*
D12*
%TO.P,Q3,3*%
%TO.N,/Coil_A-*%
X156680750Y-69177050D03*
%TD*%
D14*
%TO.P,U2,1,IN*%
%TO.N,VDD*%
X126392350Y-79500001D03*
%TO.P,U2,2,\u002ACHG*%
%TO.N,Net-(U2-\u002ACHG)*%
X126392350Y-78999999D03*
%TO.P,U2,3,EN/OK*%
%TO.N,unconnected-(U2-EN{slash}OK-Pad3)*%
X126392350Y-78500000D03*
%TO.P,U2,4,ISET*%
%TO.N,Net-(U2-ISET)*%
X126392350Y-78000001D03*
%TO.P,U2,5,CT*%
%TO.N,Net-(U2-CT)*%
X126392350Y-77499999D03*
%TO.P,U2,6,RSTRT*%
%TO.N,GND*%
X121985450Y-77499999D03*
%TO.P,U2,7,BATT*%
%TO.N,Net-(D10-K)*%
X121985450Y-78000001D03*
%TO.P,U2,8,GND*%
%TO.N,GND*%
X121985450Y-78500000D03*
%TO.P,U2,9,DRV*%
%TO.N,Net-(Q10-G)*%
X121985450Y-78999999D03*
%TO.P,U2,10,CS*%
%TO.N,Net-(Q10-S)*%
X121985450Y-79500001D03*
%TD*%
D15*
%TO.P,H4,1*%
%TO.N,unconnected-(H4-Pad1)*%
X187300000Y-124200000D03*
D16*
X187300000Y-124200000D03*
%TD*%
D17*
%TO.P,Q9,1,D*%
%TO.N,Net-(D10-K)*%
X130600000Y-72450000D03*
%TO.P,Q9,2,G*%
%TO.N,VDD*%
X131900000Y-72450000D03*
%TO.P,Q9,3,S*%
%TO.N,VCC*%
X131250000Y-70250000D03*
%TD*%
D15*
%TO.P,H1,1*%
%TO.N,unconnected-(H1-Pad1)*%
X187300000Y-52250000D03*
D16*
X187300000Y-52250000D03*
%TD*%
D11*
%TO.P,R4,1*%
%TO.N,/P1*%
X144440750Y-97465750D03*
%TO.P,R4,2*%
%TO.N,Net-(Q4-Pad1)*%
X144440750Y-95815750D03*
%TD*%
%TO.P,R2,1*%
%TO.N,/P2*%
X174100000Y-97475000D03*
%TO.P,R2,2*%
%TO.N,Net-(Q2-Pad1)*%
X174100000Y-95825000D03*
%TD*%
D18*
%TO.P,R14,1*%
%TO.N,/Charger/CC2*%
X116300000Y-51745000D03*
%TO.P,R14,2*%
%TO.N,GND*%
X116300000Y-53395000D03*
%TD*%
D19*
%TO.P,D10,1,K*%
%TO.N,Net-(D10-K)*%
X115997500Y-67647500D03*
D20*
%TO.P,D10,2,A*%
%TO.N,Net-(D10-A)*%
X115997500Y-70327200D03*
%TD*%
D12*
%TO.P,Q2,1*%
%TO.N,Net-(Q2-Pad1)*%
X174100750Y-92566950D03*
D13*
%TO.P,Q2,2*%
%TO.N,/Coil_A+*%
X176589950Y-81048050D03*
D12*
%TO.P,Q2,3*%
%TO.N,GND*%
X179180750Y-92566950D03*
%TD*%
D21*
%TO.P,R10,1*%
%TO.N,/MP3_TX*%
X137310000Y-107300000D03*
%TO.P,R10,2*%
%TO.N,Net-(U4-TX)*%
X136290000Y-107300000D03*
%TD*%
D15*
%TO.P,H3,1*%
%TO.N,unconnected-(H3-Pad1)*%
X85700000Y-124200000D03*
D16*
X85700000Y-124200000D03*
%TD*%
D22*
%TO.P,C2,1*%
%TO.N,VDD*%
X126775000Y-81150000D03*
%TO.P,C2,2*%
%TO.N,Net-(Q10-G)*%
X125225000Y-81150000D03*
%TD*%
D23*
%TO.P,BT1,N*%
%TO.N,GND*%
X101700000Y-124450000D03*
%TO.P,BT1,P*%
%TO.N,Net-(D10-K)*%
X101700000Y-51550000D03*
%TD*%
D15*
%TO.P,H2,1*%
%TO.N,unconnected-(H2-Pad1)*%
X85700000Y-52250000D03*
D16*
X85700000Y-52250000D03*
%TD*%
D24*
%TO.P,C5,1*%
%TO.N,/Charger/VBUS*%
X122275000Y-57530000D03*
%TO.P,C5,2*%
%TO.N,GND*%
X123825000Y-57530000D03*
%TD*%
D18*
%TO.P,R3,1*%
%TO.N,Net-(Q3-Pad1)*%
X151600000Y-72515750D03*
%TO.P,R3,2*%
%TO.N,/P2*%
X151600000Y-74165750D03*
%TD*%
D25*
%TO.P,D4,1,A*%
%TO.N,GND*%
X137170000Y-81550000D03*
%TO.P,D4,2,C*%
%TO.N,/Coil_A-*%
X139230000Y-81550000D03*
%TO.P,D4,3*%
%TO.N,N/C*%
X138200000Y-79350000D03*
%TD*%
D26*
%TO.P,J2,A1,GND*%
%TO.N,GND*%
X125225000Y-53180000D03*
%TO.P,J2,A4,VBUS*%
%TO.N,/Charger/VBUS*%
X124375000Y-53180000D03*
%TO.P,J2,A5,CC1*%
%TO.N,/Charger/CC1*%
X123525000Y-53180000D03*
%TO.P,J2,A6,DP1*%
%TO.N,/Charger/DP*%
X122675000Y-53180000D03*
%TO.P,J2,A7,DN1*%
%TO.N,/Charger/DN*%
X121825000Y-53180000D03*
%TO.P,J2,A8,SBU1*%
%TO.N,unconnected-(J2-SBU1-PadA8)*%
X120975000Y-53180000D03*
%TO.P,J2,A9,VBUS*%
%TO.N,/Charger/VBUS*%
X120125000Y-53180000D03*
%TO.P,J2,A12,GND*%
%TO.N,GND*%
X119275000Y-53180000D03*
%TO.P,J2,B1,GND*%
X119275000Y-51830000D03*
%TO.P,J2,B4,VBUS*%
%TO.N,/Charger/VBUS*%
X120125000Y-51830000D03*
%TO.P,J2,B5,CC2*%
%TO.N,/Charger/CC2*%
X120975000Y-51830000D03*
%TO.P,J2,B6,DP2*%
%TO.N,/Charger/DP*%
X121825000Y-51830000D03*
%TO.P,J2,B7,DN2*%
%TO.N,/Charger/DN*%
X122675000Y-51830000D03*
%TO.P,J2,B8,SBU2*%
%TO.N,unconnected-(J2-SBU2-PadB8)*%
X123525000Y-51830000D03*
%TO.P,J2,B9,VBUS*%
%TO.N,/Charger/VBUS*%
X124375000Y-51830000D03*
%TO.P,J2,B12,GND*%
%TO.N,GND*%
X125225000Y-51830000D03*
D27*
%TO.P,J2,S1,SHELL*%
X126575000Y-48820000D03*
%TO.P,J2,S2,SHELL*%
X117925000Y-48820000D03*
D28*
%TO.P,J2,S3,SHELL*%
X126575000Y-52200000D03*
%TO.P,J2,S4,SHELL*%
X117925000Y-52200000D03*
%TD*%
D29*
%TO.P,U1,1,RESET_5V*%
%TO.N,unconnected-(U1-RESET_5V-Pad1)*%
X173390000Y-104300000D03*
D30*
%TO.P,U1,2,ADC*%
%TO.N,unconnected-(U1-ADC-Pad2)*%
X170850000Y-104300000D03*
%TO.P,U1,3,CH_PD*%
%TO.N,unconnected-(U1-CH_PD-Pad3)*%
X168310000Y-104300000D03*
%TO.P,U1,4,GPIO16*%
%TO.N,/P2*%
X165770000Y-104300000D03*
%TO.P,U1,5,GPIO14*%
%TO.N,/P1*%
X163230000Y-104300000D03*
%TO.P,U1,6,GPIO12*%
%TO.N,/P3*%
X160690000Y-104300000D03*
%TO.P,U1,7,GPIO13*%
%TO.N,/P4*%
X158150000Y-104300000D03*
%TO.P,U1,8,VIN*%
%TO.N,unconnected-(U1-VIN-Pad8)*%
X155610000Y-104300000D03*
%TO.P,U1,9,VBAT*%
%TO.N,+5V*%
X153070000Y-104300000D03*
%TO.P,U1,10,GND*%
%TO.N,GND*%
X150530000Y-104300000D03*
%TO.P,U1,11,GND*%
X150530000Y-124620000D03*
%TO.P,U1,12,LDO_EN*%
%TO.N,unconnected-(U1-LDO_EN-Pad12)*%
X153070000Y-124620000D03*
%TO.P,U1,13,3.3V*%
%TO.N,+3V3*%
X155610000Y-124620000D03*
%TO.P,U1,14,GPIO15*%
%TO.N,unconnected-(U1-GPIO15-Pad14)*%
X158150000Y-124620000D03*
%TO.P,U1,15,GPIO2*%
%TO.N,unconnected-(U1-GPIO2-Pad15)*%
X160690000Y-124620000D03*
%TO.P,U1,16,GPIO0*%
%TO.N,unconnected-(U1-GPIO0-Pad16)*%
X163230000Y-124620000D03*
%TO.P,U1,17,GPIO4*%
%TO.N,unconnected-(U1-GPIO4-Pad17)*%
X165770000Y-124620000D03*
%TO.P,U1,18,GPIO5*%
%TO.N,unconnected-(U1-GPIO5-Pad18)*%
X168310000Y-124620000D03*
%TO.P,U1,19,RXD*%
%TO.N,/MP3_TX*%
X170850000Y-124620000D03*
%TO.P,U1,20,TXD*%
%TO.N,/MP3_RX*%
X173390000Y-124620000D03*
%TD*%
D31*
%TO.P,U3,1,FB*%
%TO.N,Net-(U3-FB)*%
X135559999Y-60950832D03*
%TO.P,U3,2,EN*%
%TO.N,VCC*%
X135559999Y-61450831D03*
%TO.P,U3,3,VIN*%
X135559999Y-61950833D03*
%TO.P,U3,4,GND*%
%TO.N,GND*%
X137040001Y-61950833D03*
%TO.P,U3,5,SW*%
%TO.N,Net-(U3-SW)*%
X137040001Y-61450831D03*
%TO.P,U3,6,VOUT*%
%TO.N,+5V*%
X137040001Y-60950832D03*
%TD*%
D12*
%TO.P,Q4,1*%
%TO.N,Net-(Q4-Pad1)*%
X144400750Y-92566950D03*
D13*
%TO.P,Q4,2*%
%TO.N,/Coil_A-*%
X146889950Y-81048050D03*
D12*
%TO.P,Q4,3*%
%TO.N,GND*%
X149480750Y-92566950D03*
%TD*%
%TO.P,Q1,1*%
%TO.N,Net-(Q1-Pad1)*%
X166600750Y-69177050D03*
D13*
%TO.P,Q1,2*%
%TO.N,+5V*%
X169089950Y-57658150D03*
D12*
%TO.P,Q1,3*%
%TO.N,/Coil_A+*%
X171680750Y-69177050D03*
%TD*%
D18*
%TO.P,R15,1*%
%TO.N,+5V*%
X135400000Y-57275000D03*
%TO.P,R15,2*%
%TO.N,Net-(U3-FB)*%
X135400000Y-58925000D03*
%TD*%
D21*
%TO.P,R9,1*%
%TO.N,/MP3_RX*%
X137260000Y-106150000D03*
%TO.P,R9,2*%
%TO.N,Net-(U4-RX)*%
X136240000Y-106150000D03*
%TD*%
D22*
%TO.P,C8,1*%
%TO.N,VCC*%
X133800000Y-62050834D03*
%TO.P,C8,2*%
%TO.N,GND*%
X132250000Y-62050834D03*
%TD*%
D32*
%TO.P,LS1,1,1*%
%TO.N,/SPK+*%
X129250000Y-126450000D03*
%TO.P,LS1,2,2*%
%TO.N,/SPK-*%
X133250000Y-126450000D03*
%TD*%
D33*
%TO.P,R12,1*%
%TO.N,VDD*%
X126825000Y-82900000D03*
%TO.P,R12,2*%
%TO.N,GND*%
X125175000Y-82900000D03*
%TD*%
D34*
%TO.P,U4,1,VCC*%
%TO.N,+3V3*%
X116000000Y-120600000D03*
D35*
%TO.P,U4,2,RX*%
%TO.N,Net-(U4-RX)*%
X118540000Y-120600000D03*
%TO.P,U4,3,TX*%
%TO.N,Net-(U4-TX)*%
X121080000Y-120600000D03*
%TO.P,U4,4,DAC_R*%
%TO.N,unconnected-(U4-DAC_R-Pad4)*%
X123620000Y-120600000D03*
%TO.P,U4,5,DAC_L*%
%TO.N,unconnected-(U4-DAC_L-Pad5)*%
X126160000Y-120600000D03*
%TO.P,U4,6,SPK1*%
%TO.N,/SPK+*%
X128700000Y-120600000D03*
%TO.P,U4,7,GND*%
%TO.N,GND*%
X131240000Y-120600000D03*
%TO.P,U4,8,SPK2*%
%TO.N,/SPK-*%
X133780000Y-120600000D03*
%TO.P,U4,9,IO1*%
%TO.N,unconnected-(U4-IO1-Pad9)*%
X133780000Y-102566000D03*
%TO.P,U4,10,GND__1*%
%TO.N,GND*%
X131240000Y-102566000D03*
%TO.P,U4,11,IO2*%
%TO.N,unconnected-(U4-IO2-Pad11)*%
X128700000Y-102566000D03*
%TO.P,U4,12,ADKEY1*%
%TO.N,unconnected-(U4-ADKEY1-Pad12)*%
X126160000Y-102566000D03*
%TO.P,U4,13,ADKEY2*%
%TO.N,unconnected-(U4-ADKEY2-Pad13)*%
X123620000Y-102566000D03*
%TO.P,U4,14,USB+*%
%TO.N,unconnected-(U4-USB+-Pad14)*%
X121080000Y-102566000D03*
%TO.P,U4,15,USB-*%
%TO.N,unconnected-(U4-USB--Pad15)*%
X118540000Y-102566000D03*
%TO.P,U4,16,BUSY*%
%TO.N,unconnected-(U4-BUSY-Pad16)*%
X116000000Y-102566000D03*
%TD*%
D36*
%TO.P,C1,1*%
%TO.N,Net-(U2-CT)*%
X128275566Y-76475834D03*
%TO.P,C1,2*%
%TO.N,GND*%
X128275566Y-74925834D03*
%TD*%
D11*
%TO.P,R16,1*%
%TO.N,Net-(U3-FB)*%
X133700000Y-58875834D03*
%TO.P,R16,2*%
%TO.N,GND*%
X133700000Y-57225834D03*
%TD*%
D37*
%TO.P,C9,1*%
%TO.N,+5V*%
X142100000Y-60775834D03*
%TO.P,C9,2*%
%TO.N,GND*%
X142100000Y-62325834D03*
%TD*%
D25*
%TO.P,D1,1,A*%
%TO.N,/Coil_A+*%
X184470000Y-81930000D03*
%TO.P,D1,2,C*%
%TO.N,+5V*%
X186530000Y-81930000D03*
%TO.P,D1,3*%
%TO.N,N/C*%
X185500000Y-79730000D03*
%TD*%
D38*
%TO.P,D11,1,K*%
%TO.N,VCC*%
X126720700Y-69450000D03*
D39*
%TO.P,D11,2,A*%
%TO.N,VDD*%
X124041000Y-69450000D03*
%TD*%
D40*
%TO.P,LED1,1,1*%
%TO.N,GND*%
X139611000Y-51267200D03*
D41*
%TO.P,LED1,2,2*%
%TO.N,Net-(LED1-Pad2)*%
X142151000Y-51267200D03*
%TO.P,LED1,3,3*%
%TO.N,Net-(U2-\u002ACHG)*%
X139611000Y-48727200D03*
%TO.P,LED1,4,4*%
%TO.N,VDD*%
X142151000Y-48727200D03*
%TD*%
D25*
%TO.P,D3,1,A*%
%TO.N,/Coil_A-*%
X158710750Y-69940750D03*
%TO.P,D3,2,C*%
%TO.N,+5V*%
X160770750Y-69940750D03*
%TO.P,D3,3*%
%TO.N,N/C*%
X159740750Y-67740750D03*
%TD*%
D42*
%TO.P,D14,1,K*%
%TO.N,/Charger/CC2*%
X116267600Y-49920000D03*
%TO.P,D14,2,A*%
%TO.N,GND*%
X114032400Y-49920000D03*
%TD*%
D43*
%TO.P,R17,1*%
%TO.N,Net-(LED1-Pad2)*%
X145475000Y-51350000D03*
%TO.P,R17,2*%
%TO.N,+5V*%
X147125000Y-51350000D03*
%TD*%
D44*
%TO.P,FB1,1*%
%TO.N,/Charger/VBUS*%
X122200000Y-62050000D03*
%TO.P,FB1,2*%
%TO.N,VDD*%
X122200000Y-63770000D03*
%TD*%
D45*
%TO.P,D2,1,A*%
%TO.N,GND*%
X175700750Y-68140750D03*
%TO.P,D2,2,C*%
%TO.N,/Coil_A+*%
X173640750Y-68140750D03*
%TO.P,D2,3*%
%TO.N,N/C*%
X174670750Y-70340750D03*
%TD*%
D46*
%TO.P,Q10,1,D*%
%TO.N,Net-(D10-A)*%
X116000000Y-72350000D03*
%TO.P,Q10,2,G*%
%TO.N,Net-(Q10-G)*%
X116000000Y-73650000D03*
%TO.P,Q10,3,S*%
%TO.N,Net-(Q10-S)*%
X118200000Y-73000000D03*
%TD*%
D24*
%TO.P,C4,1*%
%TO.N,/Charger/VBUS*%
X122275000Y-55680000D03*
%TO.P,C4,2*%
%TO.N,GND*%
X123825000Y-55680000D03*
%TD*%
%TO.P,C6,1*%
%TO.N,VDD*%
X122175000Y-66260000D03*
%TO.P,C6,2*%
%TO.N,GND*%
X123725000Y-66260000D03*
%TD*%
D36*
%TO.P,C3,1*%
%TO.N,Net-(D10-K)*%
X123000000Y-75825000D03*
%TO.P,C3,2*%
%TO.N,GND*%
X123000000Y-74275000D03*
%TD*%
D11*
%TO.P,R11,1*%
%TO.N,Net-(U2-ISET)*%
X130275566Y-76500834D03*
%TO.P,R11,2*%
%TO.N,GND*%
X130275566Y-74850834D03*
%TD*%
D42*
%TO.P,D12,1,K*%
%TO.N,/Charger/VBUS*%
X129042400Y-47940000D03*
%TO.P,D12,2,A*%
%TO.N,GND*%
X131277600Y-47940000D03*
%TD*%
D37*
%TO.P,C7,1*%
%TO.N,+5V*%
X139900000Y-60775834D03*
%TO.P,C7,2*%
%TO.N,GND*%
X139900000Y-62325834D03*
%TD*%
D47*
%TO.P,L1,1*%
%TO.N,VCC*%
X134100000Y-65600000D03*
%TO.P,L1,2*%
%TO.N,Net-(U3-SW)*%
X136400000Y-65600000D03*
%TD*%
D48*
%TO.P,J1,1,1*%
%TO.N,/Coil_A+*%
X164735849Y-79223350D03*
%TO.P,J1,2,2*%
%TO.N,/Coil_B-*%
X162735850Y-79223350D03*
%TO.P,J1,3,3*%
%TO.N,/Coil_A-*%
X160735849Y-79223350D03*
%TO.P,J1,4,4*%
%TO.N,/Coil_B+*%
X158735851Y-79223350D03*
%TD*%
D49*
%TO.N,GND*%
X177400000Y-68100000D03*
X139600000Y-53450000D03*
X124050000Y-82900000D03*
X177800000Y-95750000D03*
X132270000Y-47940000D03*
X135859250Y-81559250D03*
X133700000Y-56200000D03*
X138000000Y-61950000D03*
X124925000Y-66260000D03*
X131100000Y-62050000D03*
X125125000Y-57580000D03*
X113100000Y-49920000D03*
X116300000Y-54420000D03*
X142100000Y-63650000D03*
X130289734Y-73800834D03*
X125125000Y-55680000D03*
X148450000Y-95650000D03*
X139900000Y-63650000D03*
X128289734Y-73800834D03*
X119950000Y-78300000D03*
X120550000Y-76550000D03*
X123000000Y-73200000D03*
%TO.N,Net-(D10-K)*%
X123600000Y-78000000D03*
X129350000Y-72450000D03*
%TO.N,VDD*%
X123800000Y-63750000D03*
%TO.N,+5V*%
X168392860Y-52800000D03*
X150950000Y-52800000D03*
X165964290Y-52800000D03*
X153378570Y-52800000D03*
X144150000Y-58214285D03*
X173250000Y-52800000D03*
X144150000Y-60642855D03*
X170821430Y-52800000D03*
X144150000Y-57000000D03*
X154592855Y-52800000D03*
X186550000Y-78200000D03*
X152164285Y-52800000D03*
X155807140Y-52800000D03*
X167178575Y-52800000D03*
X157021425Y-52800000D03*
X160800000Y-71300000D03*
X169607145Y-52800000D03*
X164750000Y-52800000D03*
X144150000Y-59428570D03*
X172035715Y-52800000D03*
X149735710Y-52800000D03*
X158235710Y-52800000D03*
%TO.N,Net-(Q10-S)*%
X119250000Y-77700000D03*
X120350000Y-79599999D03*
%TO.N,/P1*%
X166650000Y-88100000D03*
X166600000Y-75400000D03*
%TO.N,/P2*%
X151550000Y-75200000D03*
%TO.N,Net-(U2-\u002ACHG)*%
X124900000Y-78400000D03*
%TD*%
D10*
%TO.N,GND*%
X136909250Y-81540750D02*
X136900000Y-81550000D01*
X121985450Y-77499999D02*
X120899999Y-77499999D01*
X139611000Y-51267200D02*
X139611000Y-53439000D01*
D50*
X179180750Y-94369250D02*
X179180750Y-92566950D01*
X124050000Y-82900000D02*
X125175000Y-82900000D01*
X132250000Y-62050834D02*
X131100834Y-62050834D01*
D51*
X114032400Y-49920000D02*
X113100000Y-49920000D01*
D10*
X137999167Y-61950833D02*
X138000000Y-61950000D01*
X120150000Y-78500000D02*
X119950000Y-78300000D01*
D51*
X137040001Y-61950833D02*
X137999167Y-61950833D01*
D50*
X148450000Y-95650000D02*
X149480750Y-94619250D01*
X125125000Y-57580000D02*
X123925000Y-57580000D01*
X139900000Y-62325834D02*
X139900000Y-63650000D01*
D10*
X130289734Y-74836666D02*
X130275566Y-74850834D01*
D50*
X125125000Y-55680000D02*
X123925000Y-55680000D01*
D10*
X128289734Y-73800834D02*
X128289734Y-74911666D01*
D51*
X132270000Y-47940000D02*
X131277600Y-47940000D01*
D50*
X177800000Y-95750000D02*
X179180750Y-94369250D01*
X133700000Y-56200000D02*
X133700000Y-57225834D01*
D10*
X121985450Y-78500000D02*
X120150000Y-78500000D01*
X175741500Y-68100000D02*
X175700750Y-68140750D01*
X120550000Y-77150000D02*
X120550000Y-76550000D01*
X120899999Y-77499999D02*
X120550000Y-77150000D01*
X123000000Y-73200000D02*
X123000000Y-74275000D01*
D50*
X116300000Y-53395000D02*
X116300000Y-54420000D01*
X149480750Y-94619250D02*
X149480750Y-92566950D01*
X137170000Y-81550000D02*
X135868500Y-81550000D01*
X142100000Y-62325834D02*
X142100000Y-63650000D01*
D10*
X128289734Y-74911666D02*
X128275566Y-74925834D01*
X139611000Y-53439000D02*
X139600000Y-53450000D01*
X130289734Y-73800834D02*
X130289734Y-74836666D01*
D50*
X177400000Y-68100000D02*
X175741500Y-68100000D01*
X124925000Y-66260000D02*
X123725000Y-66260000D01*
D10*
X131100834Y-62050834D02*
X131100000Y-62050000D01*
%TO.N,Net-(D10-K)*%
X121985450Y-78000001D02*
X120600001Y-78000001D01*
X123600000Y-78000000D02*
X121985450Y-78000001D01*
X122964900Y-77900001D02*
X122964900Y-75989900D01*
D52*
X115997500Y-64447500D02*
X103100000Y-51550000D01*
D10*
X122864900Y-78000001D02*
X122964900Y-77900001D01*
X129350000Y-72450000D02*
X130600000Y-72450000D01*
X118247500Y-67647500D02*
X115997500Y-67647500D01*
D52*
X115997500Y-67647500D02*
X115997500Y-64447500D01*
D10*
X118300000Y-67700000D02*
X118247500Y-67647500D01*
X119950000Y-69150000D02*
X118500000Y-67700000D01*
X119950000Y-77350000D02*
X119950000Y-69150000D01*
X121985450Y-78000001D02*
X122864900Y-78000001D01*
X122964900Y-75989900D02*
X122900000Y-75925000D01*
X118500000Y-67700000D02*
X118300000Y-67700000D01*
X103100000Y-51550000D02*
X101700000Y-51550000D01*
X120600001Y-78000001D02*
X119950000Y-77350000D01*
%TO.N,Net-(U2-CT)*%
X128275566Y-77124434D02*
X127900000Y-77500000D01*
X127900000Y-77500000D02*
X126392350Y-77499999D01*
X128275566Y-76475834D02*
X128275566Y-77124434D01*
%TO.N,VDD*%
X127550000Y-81150000D02*
X126775000Y-81150000D01*
X128100001Y-79500001D02*
X126392350Y-79500001D01*
D53*
X131900000Y-72450000D02*
X131900000Y-79250000D01*
D10*
X122220000Y-63750000D02*
X122200000Y-63770000D01*
X127650000Y-80000000D02*
X127650000Y-81050000D01*
D54*
X122950000Y-69450000D02*
X124041000Y-69450000D01*
D51*
X124041000Y-69310301D02*
X124250000Y-69519301D01*
D10*
X130600000Y-79822500D02*
X128422500Y-79822500D01*
D51*
X124250000Y-78910301D02*
X124839699Y-79500000D01*
D10*
X128422500Y-79822500D02*
X128100001Y-79500001D01*
X123800000Y-63750000D02*
X122220000Y-63750000D01*
D54*
X122175000Y-68675000D02*
X122950000Y-69450000D01*
D10*
X127650000Y-81050000D02*
X127550000Y-81150000D01*
X126392350Y-79500001D02*
X127150001Y-79500001D01*
X126775000Y-81150000D02*
X126775000Y-82850000D01*
D53*
X131327500Y-79822500D02*
X130600000Y-79822500D01*
D10*
X127150001Y-79500001D02*
X127650000Y-80000000D01*
D51*
X124250000Y-69519301D02*
X124250000Y-78910301D01*
D53*
X131900000Y-79250000D02*
X131327500Y-79822500D01*
D10*
X126775000Y-82850000D02*
X126825000Y-82900000D01*
D51*
X124839699Y-79500000D02*
X126392350Y-79500000D01*
D54*
X122175000Y-66260000D02*
X122175000Y-68675000D01*
D10*
%TO.N,Net-(Q10-G)*%
X123100000Y-79000000D02*
X121985450Y-78999999D01*
X117950000Y-79000000D02*
X121985450Y-78999999D01*
X125225000Y-81150000D02*
X125225000Y-81125000D01*
X116000000Y-77050000D02*
X117950000Y-79000000D01*
X116000000Y-73650000D02*
X116000000Y-77050000D01*
X125225000Y-81125000D02*
X123100000Y-79000000D01*
D51*
%TO.N,/Charger/VBUS*%
X127230000Y-47450000D02*
X127720000Y-47940000D01*
X125720000Y-47450000D02*
X127230000Y-47450000D01*
D50*
X122275000Y-55680000D02*
X122275000Y-57530000D01*
D51*
X124375000Y-48795000D02*
X125720000Y-47450000D01*
X127720000Y-47940000D02*
X129042400Y-47940000D01*
X124375000Y-51830000D02*
X124375000Y-53180000D01*
D55*
X120125000Y-51830000D02*
X120125000Y-53180000D01*
D51*
X124375000Y-51830000D02*
X124375000Y-48795000D01*
D50*
%TO.N,+5V*%
X160770750Y-69940750D02*
X160770750Y-71270750D01*
D10*
X148285710Y-51350000D02*
X149735710Y-52800000D01*
X160770750Y-71270750D02*
X160800000Y-71300000D01*
X147125000Y-51350000D02*
X148285710Y-51350000D01*
X186530000Y-78220000D02*
X186550000Y-78200000D01*
D50*
X186530000Y-81930000D02*
X186530000Y-78220000D01*
%TO.N,VCC*%
X126720700Y-69450000D02*
X128450000Y-69450000D01*
D54*
X134250000Y-65650000D02*
X134250000Y-69100000D01*
D50*
X131150000Y-69450000D02*
X131250000Y-69550000D01*
X131250000Y-69550000D02*
X131250000Y-70250000D01*
D54*
X133900000Y-69450000D02*
X126720700Y-69450000D01*
D50*
X128450000Y-69450000D02*
X130150000Y-69450000D01*
X126720700Y-69450000D02*
X131150000Y-69450000D01*
D54*
X134250000Y-69100000D02*
X133900000Y-69450000D01*
D10*
%TO.N,/Coil_A+*%
X184470000Y-81930000D02*
X184440000Y-81900000D01*
D50*
X172709250Y-68140750D02*
X171680750Y-69169250D01*
X173640750Y-68140750D02*
X172709250Y-68140750D01*
X171680750Y-69169250D02*
X171680750Y-69177050D01*
X171680750Y-72278449D02*
X164735849Y-79223350D01*
X171680750Y-69177050D02*
X171680750Y-72278449D01*
X167043149Y-81530650D02*
X164735849Y-79223350D01*
D10*
X177010100Y-81900000D02*
X176640750Y-81530650D01*
D50*
X176640750Y-81530650D02*
X167043149Y-81530650D01*
D56*
X184440000Y-81900000D02*
X177010100Y-81900000D01*
D10*
%TO.N,/Coil_A-*%
X146940750Y-81530650D02*
X145730650Y-81530650D01*
D54*
X139239250Y-81540750D02*
X139230000Y-81550000D01*
D50*
X158377050Y-69177050D02*
X156680750Y-69177050D01*
X158428549Y-81530650D02*
X160735849Y-79223350D01*
X160735849Y-75314151D02*
X160735849Y-79223350D01*
X146940750Y-81530650D02*
X158428549Y-81530650D01*
D10*
X145730650Y-81530650D02*
X145720550Y-81540750D01*
D50*
X158710750Y-69510750D02*
X158377050Y-69177050D01*
X158710750Y-69940750D02*
X158710750Y-69510750D01*
X160735849Y-75285849D02*
X156680750Y-71230750D01*
X160735849Y-75314151D02*
X160735849Y-75285849D01*
D54*
X145720550Y-81540750D02*
X139239250Y-81540750D01*
D50*
X156680750Y-71230750D02*
X156680750Y-69177050D01*
D54*
%TO.N,Net-(D10-A)*%
X115997500Y-70327200D02*
X115997500Y-72347500D01*
D10*
X115997500Y-72347500D02*
X116000000Y-72350000D01*
%TO.N,/Charger/CC2*%
X120975000Y-51830000D02*
X120975000Y-51370381D01*
X119574619Y-49970000D02*
X116000000Y-49970000D01*
X116267600Y-49920000D02*
X116267600Y-51712600D01*
X116050000Y-49920000D02*
X116267600Y-49920000D01*
X116000000Y-49970000D02*
X116050000Y-49920000D01*
X116267600Y-51712600D02*
X116300000Y-51745000D01*
X120975000Y-51370381D02*
X119574619Y-49970000D01*
%TO.N,/Charger/DN*%
X122675000Y-51830000D02*
X122675000Y-52289619D01*
X122675000Y-52289619D02*
X121825000Y-53139619D01*
X121825000Y-53139619D02*
X121825000Y-53180000D01*
%TO.N,Net-(U3-SW)*%
X136400000Y-65600000D02*
X136400000Y-61650000D01*
X136400000Y-61650000D02*
X136599169Y-61450831D01*
X136599169Y-61450831D02*
X137040001Y-61450831D01*
D54*
%TO.N,Net-(Q1-Pad1)*%
X166600750Y-69177050D02*
X166600750Y-72475750D01*
D10*
X166600750Y-72475750D02*
X166640750Y-72515750D01*
D54*
%TO.N,Net-(Q2-Pad1)*%
X174100750Y-92566950D02*
X174100750Y-95824250D01*
D10*
X174100750Y-95824250D02*
X174100000Y-95825000D01*
D54*
%TO.N,Net-(Q3-Pad1)*%
X151600750Y-69177050D02*
X151600750Y-72455750D01*
D10*
X151600750Y-72455750D02*
X151540750Y-72515750D01*
D54*
%TO.N,Net-(Q4-Pad1)*%
X144400750Y-92566950D02*
X144400750Y-95775750D01*
D10*
X144400750Y-95775750D02*
X144440750Y-95815750D01*
%TO.N,Net-(Q10-S)*%
X119250000Y-73200000D02*
X119050000Y-73000000D01*
X120449999Y-79500000D02*
X121985450Y-79500001D01*
X119250000Y-77700000D02*
X119250000Y-73200000D01*
X119050000Y-73000000D02*
X118200000Y-73000000D01*
X120350000Y-79599999D02*
X120449999Y-79500000D01*
D55*
%TO.N,/P1*%
X162050000Y-100000000D02*
X163201200Y-101151200D01*
X145350000Y-100000000D02*
X162050000Y-100000000D01*
X144440750Y-97465750D02*
X144440750Y-99090750D01*
X166650000Y-88100000D02*
X163201200Y-91548800D01*
X163201200Y-101151200D02*
X163201200Y-104280000D01*
D10*
X166600000Y-74206500D02*
X166640750Y-74165750D01*
X166600000Y-75400000D02*
X166600000Y-74206500D01*
D55*
X144440750Y-99090750D02*
X145350000Y-100000000D01*
X163201200Y-91548800D02*
X163201200Y-104280000D01*
%TO.N,/P2*%
X165750000Y-100700000D02*
X165750000Y-100900000D01*
D10*
X151550000Y-74175000D02*
X151540750Y-74165750D01*
D55*
X168975000Y-97475000D02*
X165750000Y-100700000D01*
X151550000Y-75200000D02*
X151550000Y-74175000D01*
D10*
X165750000Y-100900000D02*
X165741200Y-100908800D01*
D55*
X165741200Y-100908800D02*
X165741200Y-104280000D01*
X174100000Y-97475000D02*
X168975000Y-97475000D01*
D10*
%TO.N,Net-(U2-ISET)*%
X130275566Y-76500834D02*
X130275566Y-77274434D01*
X130275566Y-77274434D02*
X129550000Y-78000000D01*
X129550000Y-78000000D02*
X126392350Y-78000001D01*
%TO.N,Net-(LED1-Pad2)*%
X145475000Y-51350000D02*
X142233800Y-51350000D01*
X142233800Y-51350000D02*
X142151000Y-51267200D01*
D55*
%TO.N,/SPK-*%
X132400000Y-121980000D02*
X133780000Y-120600000D01*
X133250000Y-126450000D02*
X132400000Y-125600000D01*
X132400000Y-125600000D02*
X132400000Y-121980000D01*
D10*
%TO.N,Net-(U2-\u002ACHG)*%
X124900000Y-78400000D02*
X125499999Y-78999999D01*
X125499999Y-78999999D02*
X125992350Y-78999999D01*
D55*
%TO.N,/SPK+*%
X130230000Y-122130000D02*
X128700000Y-120600000D01*
X130230000Y-125470000D02*
X130230000Y-122130000D01*
X129250000Y-126450000D02*
X130230000Y-125470000D01*
%TO.N,Net-(U4-RX)*%
X128550000Y-106150000D02*
X136240000Y-106150000D01*
X128250000Y-106150000D02*
X118540000Y-115860000D01*
X128550000Y-106150000D02*
X128250000Y-106150000D01*
X118540000Y-115860000D02*
X118540000Y-120600000D01*
%TO.N,/MP3_RX*%
X137950000Y-106150000D02*
X139700000Y-104400000D01*
X139700000Y-104400000D02*
X147000000Y-104400000D01*
X173361200Y-113461200D02*
X173361200Y-124600000D01*
X147000000Y-104400000D02*
X151100000Y-108500000D01*
X168400000Y-108500000D02*
X173361200Y-113461200D01*
X151100000Y-108500000D02*
X168400000Y-108500000D01*
X137260000Y-106150000D02*
X137950000Y-106150000D01*
%TO.N,Net-(U4-TX)*%
X121080000Y-116770000D02*
X130550000Y-107300000D01*
X130550000Y-107300000D02*
X136290000Y-107300000D01*
X121080000Y-120600000D02*
X121080000Y-116770000D01*
%TO.N,/MP3_TX*%
X140050000Y-105400000D02*
X145500000Y-105400000D01*
X166500000Y-110650000D02*
X170820000Y-114970000D01*
X170821200Y-115031200D02*
X170821200Y-124600000D01*
X145500000Y-105400000D02*
X150750000Y-110650000D01*
X170820000Y-114970000D02*
X170820000Y-115030000D01*
X138150000Y-107300000D02*
X140050000Y-105400000D01*
X170820000Y-115030000D02*
X170821200Y-115031200D01*
X137310000Y-107300000D02*
X138150000Y-107300000D01*
X150750000Y-110650000D02*
X166500000Y-110650000D01*
%TD*%
M02*
