M48
; DRILL file {KiCad 8.0.0} date 2025-02-07T12:08:45-0330
; FORMAT={-:-/ absolute / inch / decimal}
; #@! TF.CreationDate,2025-02-07T12:08:45-03:30
; #@! TF.GenerationSoftware,Kicad,Pcbnew,8.0.0
; #@! TF.FileFunction,Plated,1,2,Blind
FMAT,2
INCH
; #@! TA.AperFunction,Plated,Buried,ViaDrill
T1C0.0118
%
G90
G05
T1
X4.4528Y-1.9654
X4.5787Y-2.1425
X4.7224Y-3.0827
X4.7461Y-3.0138
X4.8425Y-2.8819
X4.8839Y-3.2638
X4.9183Y-2.6087
X4.9262Y-2.1921
X4.9262Y-2.2669
X5.0508Y-2.9055
X5.1295Y-2.9055
X5.1614Y-2.4429
X5.2075Y-1.8874
X5.2638Y-2.2126
X5.3488Y-3.211
X5.4331Y-2.439
X5.5079Y-2.5059
X5.5945Y-2.5059
X5.8445Y-3.7657
X5.9665Y-2.9606
X6.5591Y-2.9685
X6.9843Y-2.6811
X7.0Y-3.7697
M30
