M48
; DRILL file {KiCad 8.0.0} date 2025-02-07T12:08:45-0330
; FORMAT={-:-/ absolute / inch / decimal}
; #@! TF.CreationDate,2025-02-07T12:08:45-03:30
; #@! TF.GenerationSoftware,Kicad,Pcbnew,8.0.0
; #@! TF.FileFunction,Plated,1,4,PTH
FMAT,2
INCH
; #@! TA.AperFunction,Plated,PTH,ViaDrill
T1C0.0118
; #@! TA.AperFunction,Plated,PTH,ComponentDrill
T2C0.0157
; #@! TA.AperFunction,Plated,PTH,ComponentDrill
T3C0.0236
; #@! TA.AperFunction,Plated,PTH,ComponentDrill
T4C0.0300
; #@! TA.AperFunction,Plated,PTH,ComponentDrill
T5C0.0315
; #@! TA.AperFunction,Plated,PTH,ComponentDrill
T6C0.0402
; #@! TA.AperFunction,Plated,PTH,ComponentDrill
T7C0.0450
; #@! TA.AperFunction,Plated,PTH,ComponentDrill
T8C0.0543
; #@! TA.AperFunction,Plated,PTH,ComponentDrill
T9C0.1181
%
G90
G05
T1
X4.7382Y-3.1339
X4.8661Y-3.0709
X4.874Y-2.5098
X4.9173Y-3.0866
X5.0925Y-2.8524
X5.4961Y-2.1043
X5.8951Y-2.0787
X5.9429Y-2.0787
X5.9907Y-2.0787
X6.0385Y-2.0787
X6.0863Y-2.0787
X6.1341Y-2.0787
X6.1819Y-2.0787
X6.2298Y-2.0787
X6.4862Y-2.0787
X6.534Y-2.0787
X6.561Y-3.4685
X6.5818Y-2.0787
X6.6296Y-2.0787
X6.6774Y-2.0787
X6.7253Y-2.0787
X6.7731Y-2.0787
X6.8209Y-2.0787
T2
X4.6959Y-2.0406
X4.6959Y-2.0937
X4.7293Y-2.0406
X4.7293Y-2.0937
X4.7628Y-2.0406
X4.7628Y-2.0937
X4.7963Y-2.0406
X4.7963Y-2.0937
X4.8297Y-2.0406
X4.8297Y-2.0937
X4.8632Y-2.0406
X4.8632Y-2.0937
X4.8967Y-2.0406
X4.8967Y-2.0937
X4.9301Y-2.0406
X4.9301Y-2.0937
T4
X5.0886Y-4.9783
X5.2461Y-4.9783
X6.2494Y-3.119
X6.3282Y-3.119
X6.4069Y-3.119
X6.4857Y-3.119
T5
X4.5669Y-4.038
X4.5669Y-4.748
X4.6669Y-4.038
X4.6669Y-4.748
X4.7669Y-4.038
X4.7669Y-4.748
X4.8669Y-4.038
X4.8669Y-4.748
X4.9669Y-4.038
X4.9669Y-4.748
X5.0669Y-4.038
X5.0669Y-4.748
X5.1669Y-4.038
X5.1669Y-4.748
X5.2669Y-4.038
X5.2669Y-4.748
T6
X5.9264Y-4.1063
X5.9264Y-4.9063
X6.0264Y-4.1063
X6.0264Y-4.9063
X6.1264Y-4.1063
X6.1264Y-4.9063
X6.2264Y-4.1063
X6.2264Y-4.9063
X6.3264Y-4.1063
X6.3264Y-4.9063
X6.4264Y-4.1063
X6.4264Y-4.9063
X6.5264Y-4.1063
X6.5264Y-4.9063
X6.6264Y-4.1063
X6.6264Y-4.9063
X6.7264Y-4.1063
X6.7264Y-4.9063
X6.8264Y-4.1063
X6.8264Y-4.9063
T7
X5.4965Y-1.9184
X5.4965Y-2.0184
X5.5965Y-1.9184
X5.5965Y-2.0184
T9
X3.374Y-2.0571
X3.374Y-4.8898
X7.374Y-2.0571
X7.374Y-4.8898
T3
G00X4.6427Y-1.9378
M15
G01X4.6427Y-1.9063
M16
G05
G00X4.6427Y-2.0846
M15
G01X4.6427Y-2.0256
M16
G05
G00X4.9833Y-1.9378
M15
G01X4.9833Y-1.9063
M16
G05
G00X4.9833Y-2.0846
M15
G01X4.9833Y-2.0256
M16
G05
T8
G00X3.9839Y-2.0295
M15
G01X4.024Y-2.0295
M16
G05
G00X3.9839Y-4.8996
M15
G01X4.024Y-4.8996
M16
G05
M30
