M48
; DRILL file {KiCad 8.0.0} date 2025-02-08T12:11:11-0330
; FORMAT={-:-/ absolute / inch / decimal}
; #@! TF.CreationDate,2025-02-08T12:11:11-03:30
; #@! TF.GenerationSoftware,Kicad,Pcbnew,8.0.0
; #@! TF.FileFunction,Plated,1,4,PTH
FMAT,2
INCH
; #@! TA.AperFunction,Plated,PTH,ViaDrill
T1C0.0118
; #@! TA.AperFunction,Plated,PTH,ComponentDrill
T2C0.0157
; #@! TA.AperFunction,Plated,PTH,ComponentDrill
T3C0.0236
; #@! TA.AperFunction,Plated,PTH,ComponentDrill
T4C0.0300
; #@! TA.AperFunction,Plated,PTH,ComponentDrill
T5C0.0315
; #@! TA.AperFunction,Plated,PTH,ComponentDrill
T6C0.0402
; #@! TA.AperFunction,Plated,PTH,ComponentDrill
T7C0.0450
; #@! TA.AperFunction,Plated,PTH,ComponentDrill
T8C0.0543
; #@! TA.AperFunction,Plated,PTH,ComponentDrill
T9C0.1181
%
G90
G05
T1
X4.4528Y-1.9654
X4.5787Y-2.1425
X4.6949Y-3.0591
X4.7224Y-3.0827
X4.7382Y-3.1339
X4.7461Y-3.0138
X4.8425Y-2.8819
X4.8661Y-3.0709
X4.874Y-2.5098
X4.8839Y-3.2638
X4.9173Y-3.0866
X4.9183Y-2.6087
X4.9262Y-2.1921
X4.9262Y-2.2669
X5.0508Y-2.9055
X5.0925Y-2.8524
X5.1295Y-2.9055
X5.1614Y-2.4429
X5.1822Y-2.0831
X5.2039Y-1.9996
X5.2075Y-1.8874
X5.2638Y-2.2126
X5.3488Y-3.211
X5.3516Y-3.2835
X5.4331Y-2.439
X5.4961Y-2.1043
X5.5079Y-2.5059
X5.5945Y-2.5059
X5.6752Y-2.2441
X5.6752Y-2.2919
X5.6752Y-2.3397
X5.6752Y-2.3875
X5.7323Y-3.7657
X5.7795Y-2.7933
X5.8445Y-3.7657
X5.8951Y-2.0787
X5.9429Y-2.0787
X5.9665Y-2.9606
X5.9907Y-2.0787
X6.0385Y-2.0787
X6.0863Y-2.0787
X6.1341Y-2.0787
X6.1673Y-2.9469
X6.1819Y-2.0787
X6.2298Y-2.0787
X6.3307Y-2.8071
X6.3681Y-3.75
X6.3937Y-2.8031
X6.4862Y-2.0787
X6.534Y-2.0787
X6.5591Y-2.9685
X6.561Y-3.4685
X6.5818Y-2.0787
X6.6296Y-2.0787
X6.6774Y-2.0787
X6.7253Y-2.0787
X6.7598Y-2.9567
X6.7731Y-2.0787
X6.8209Y-2.0787
X6.9055Y-3.7677
X6.9843Y-2.6811
X7.0Y-3.7697
X7.3445Y-3.0787
X7.3465Y-3.3543
T2
X4.6959Y-2.0406
X4.6959Y-2.0937
X4.7293Y-2.0406
X4.7293Y-2.0937
X4.7628Y-2.0406
X4.7628Y-2.0937
X4.7963Y-2.0406
X4.7963Y-2.0937
X4.8297Y-2.0406
X4.8297Y-2.0937
X4.8632Y-2.0406
X4.8632Y-2.0937
X4.8967Y-2.0406
X4.8967Y-2.0937
X4.9301Y-2.0406
X4.9301Y-2.0937
T4
X5.0886Y-4.9783
X5.2461Y-4.9783
X6.2494Y-3.119
X6.3282Y-3.119
X6.4069Y-3.119
X6.4857Y-3.119
T5
X4.5669Y-4.038
X4.5669Y-4.748
X4.6669Y-4.038
X4.6669Y-4.748
X4.7669Y-4.038
X4.7669Y-4.748
X4.8669Y-4.038
X4.8669Y-4.748
X4.9669Y-4.038
X4.9669Y-4.748
X5.0669Y-4.038
X5.0669Y-4.748
X5.1669Y-4.038
X5.1669Y-4.748
X5.2669Y-4.038
X5.2669Y-4.748
T6
X5.9264Y-4.1063
X5.9264Y-4.9063
X6.0264Y-4.1063
X6.0264Y-4.9063
X6.1264Y-4.1063
X6.1264Y-4.9063
X6.2264Y-4.1063
X6.2264Y-4.9063
X6.3264Y-4.1063
X6.3264Y-4.9063
X6.4264Y-4.1063
X6.4264Y-4.9063
X6.5264Y-4.1063
X6.5264Y-4.9063
X6.6264Y-4.1063
X6.6264Y-4.9063
X6.7264Y-4.1063
X6.7264Y-4.9063
X6.8264Y-4.1063
X6.8264Y-4.9063
T7
X5.4965Y-1.9184
X5.4965Y-2.0184
X5.5965Y-1.9184
X5.5965Y-2.0184
T9
X3.374Y-2.0571
X3.374Y-4.8898
X7.374Y-2.0571
X7.374Y-4.8898
T3
G00X4.6427Y-1.9378
M15
G01X4.6427Y-1.9063
M16
G05
G00X4.6427Y-2.0846
M15
G01X4.6427Y-2.0256
M16
G05
G00X4.9833Y-1.9378
M15
G01X4.9833Y-1.9063
M16
G05
G00X4.9833Y-2.0846
M15
G01X4.9833Y-2.0256
M16
G05
T8
G00X3.9839Y-2.0295
M15
G01X4.024Y-2.0295
M16
G05
G00X3.9839Y-4.8996
M15
G01X4.024Y-4.8996
M16
G05
M30
