%TF.GenerationSoftware,KiCad,Pcbnew,8.0.0*%
%TF.CreationDate,2025-02-08T12:11:07-03:30*%
%TF.ProjectId,H_Bridges,485f4272-6964-4676-9573-2e6b69636164,rev?*%
%TF.SameCoordinates,Original*%
%TF.FileFunction,Legend,Bot*%
%TF.FilePolarity,Positive*%
%FSLAX46Y46*%
G04 Gerber Fmt 4.6, Leading zero omitted, Abs format (unit mm)*
G04 Created by KiCad (PCBNEW 8.0.0) date 2025-02-08 12:11:07*
%MOMM*%
%LPD*%
G01*
G04 APERTURE LIST*
%ADD10C,0.100000*%
%ADD11C,0.150000*%
%ADD12C,0.120000*%
%ADD13C,0.152400*%
%ADD14C,0.508000*%
G04 APERTURE END LIST*
D10*
X166643734Y-81936704D02*
X166167544Y-81936704D01*
X166738972Y-82222419D02*
X166405639Y-81222419D01*
X166405639Y-81222419D02*
X166072306Y-82222419D01*
X165738972Y-81841466D02*
X164977068Y-81841466D01*
X165358020Y-82222419D02*
X165358020Y-81460514D01*
X163405639Y-81698609D02*
X163262782Y-81746228D01*
X163262782Y-81746228D02*
X163215163Y-81793847D01*
X163215163Y-81793847D02*
X163167544Y-81889085D01*
X163167544Y-81889085D02*
X163167544Y-82031942D01*
X163167544Y-82031942D02*
X163215163Y-82127180D01*
X163215163Y-82127180D02*
X163262782Y-82174800D01*
X163262782Y-82174800D02*
X163358020Y-82222419D01*
X163358020Y-82222419D02*
X163738972Y-82222419D01*
X163738972Y-82222419D02*
X163738972Y-81222419D01*
X163738972Y-81222419D02*
X163405639Y-81222419D01*
X163405639Y-81222419D02*
X163310401Y-81270038D01*
X163310401Y-81270038D02*
X163262782Y-81317657D01*
X163262782Y-81317657D02*
X163215163Y-81412895D01*
X163215163Y-81412895D02*
X163215163Y-81508133D01*
X163215163Y-81508133D02*
X163262782Y-81603371D01*
X163262782Y-81603371D02*
X163310401Y-81650990D01*
X163310401Y-81650990D02*
X163405639Y-81698609D01*
X163405639Y-81698609D02*
X163738972Y-81698609D01*
X162738972Y-81841466D02*
X161977068Y-81841466D01*
X160786591Y-81936704D02*
X160310401Y-81936704D01*
X160881829Y-82222419D02*
X160548496Y-81222419D01*
X160548496Y-81222419D02*
X160215163Y-82222419D01*
X159881829Y-81841466D02*
X159119925Y-81841466D01*
X157548496Y-81698609D02*
X157405639Y-81746228D01*
X157405639Y-81746228D02*
X157358020Y-81793847D01*
X157358020Y-81793847D02*
X157310401Y-81889085D01*
X157310401Y-81889085D02*
X157310401Y-82031942D01*
X157310401Y-82031942D02*
X157358020Y-82127180D01*
X157358020Y-82127180D02*
X157405639Y-82174800D01*
X157405639Y-82174800D02*
X157500877Y-82222419D01*
X157500877Y-82222419D02*
X157881829Y-82222419D01*
X157881829Y-82222419D02*
X157881829Y-81222419D01*
X157881829Y-81222419D02*
X157548496Y-81222419D01*
X157548496Y-81222419D02*
X157453258Y-81270038D01*
X157453258Y-81270038D02*
X157405639Y-81317657D01*
X157405639Y-81317657D02*
X157358020Y-81412895D01*
X157358020Y-81412895D02*
X157358020Y-81508133D01*
X157358020Y-81508133D02*
X157405639Y-81603371D01*
X157405639Y-81603371D02*
X157453258Y-81650990D01*
X157453258Y-81650990D02*
X157548496Y-81698609D01*
X157548496Y-81698609D02*
X157881829Y-81698609D01*
X156881829Y-81841466D02*
X156119925Y-81841466D01*
X156500877Y-82222419D02*
X156500877Y-81460514D01*
D11*
X189188094Y-84254819D02*
X189188094Y-83254819D01*
X189188094Y-83254819D02*
X188949999Y-83254819D01*
X188949999Y-83254819D02*
X188807142Y-83302438D01*
X188807142Y-83302438D02*
X188711904Y-83397676D01*
X188711904Y-83397676D02*
X188664285Y-83492914D01*
X188664285Y-83492914D02*
X188616666Y-83683390D01*
X188616666Y-83683390D02*
X188616666Y-83826247D01*
X188616666Y-83826247D02*
X188664285Y-84016723D01*
X188664285Y-84016723D02*
X188711904Y-84111961D01*
X188711904Y-84111961D02*
X188807142Y-84207200D01*
X188807142Y-84207200D02*
X188949999Y-84254819D01*
X188949999Y-84254819D02*
X189188094Y-84254819D01*
X188140475Y-84254819D02*
X187949999Y-84254819D01*
X187949999Y-84254819D02*
X187854761Y-84207200D01*
X187854761Y-84207200D02*
X187807142Y-84159580D01*
X187807142Y-84159580D02*
X187711904Y-84016723D01*
X187711904Y-84016723D02*
X187664285Y-83826247D01*
X187664285Y-83826247D02*
X187664285Y-83445295D01*
X187664285Y-83445295D02*
X187711904Y-83350057D01*
X187711904Y-83350057D02*
X187759523Y-83302438D01*
X187759523Y-83302438D02*
X187854761Y-83254819D01*
X187854761Y-83254819D02*
X188045237Y-83254819D01*
X188045237Y-83254819D02*
X188140475Y-83302438D01*
X188140475Y-83302438D02*
X188188094Y-83350057D01*
X188188094Y-83350057D02*
X188235713Y-83445295D01*
X188235713Y-83445295D02*
X188235713Y-83683390D01*
X188235713Y-83683390D02*
X188188094Y-83778628D01*
X188188094Y-83778628D02*
X188140475Y-83826247D01*
X188140475Y-83826247D02*
X188045237Y-83873866D01*
X188045237Y-83873866D02*
X187854761Y-83873866D01*
X187854761Y-83873866D02*
X187759523Y-83826247D01*
X187759523Y-83826247D02*
X187711904Y-83778628D01*
X187711904Y-83778628D02*
X187664285Y-83683390D01*
X152116666Y-97204819D02*
X152449999Y-96728628D01*
X152688094Y-97204819D02*
X152688094Y-96204819D01*
X152688094Y-96204819D02*
X152307142Y-96204819D01*
X152307142Y-96204819D02*
X152211904Y-96252438D01*
X152211904Y-96252438D02*
X152164285Y-96300057D01*
X152164285Y-96300057D02*
X152116666Y-96395295D01*
X152116666Y-96395295D02*
X152116666Y-96538152D01*
X152116666Y-96538152D02*
X152164285Y-96633390D01*
X152164285Y-96633390D02*
X152211904Y-96681009D01*
X152211904Y-96681009D02*
X152307142Y-96728628D01*
X152307142Y-96728628D02*
X152688094Y-96728628D01*
X151259523Y-96204819D02*
X151449999Y-96204819D01*
X151449999Y-96204819D02*
X151545237Y-96252438D01*
X151545237Y-96252438D02*
X151592856Y-96300057D01*
X151592856Y-96300057D02*
X151688094Y-96442914D01*
X151688094Y-96442914D02*
X151735713Y-96633390D01*
X151735713Y-96633390D02*
X151735713Y-97014342D01*
X151735713Y-97014342D02*
X151688094Y-97109580D01*
X151688094Y-97109580D02*
X151640475Y-97157200D01*
X151640475Y-97157200D02*
X151545237Y-97204819D01*
X151545237Y-97204819D02*
X151354761Y-97204819D01*
X151354761Y-97204819D02*
X151259523Y-97157200D01*
X151259523Y-97157200D02*
X151211904Y-97109580D01*
X151211904Y-97109580D02*
X151164285Y-97014342D01*
X151164285Y-97014342D02*
X151164285Y-96776247D01*
X151164285Y-96776247D02*
X151211904Y-96681009D01*
X151211904Y-96681009D02*
X151259523Y-96633390D01*
X151259523Y-96633390D02*
X151354761Y-96585771D01*
X151354761Y-96585771D02*
X151545237Y-96585771D01*
X151545237Y-96585771D02*
X151640475Y-96633390D01*
X151640475Y-96633390D02*
X151688094Y-96681009D01*
X151688094Y-96681009D02*
X151735713Y-96776247D01*
X158666666Y-73354819D02*
X158999999Y-72878628D01*
X159238094Y-73354819D02*
X159238094Y-72354819D01*
X159238094Y-72354819D02*
X158857142Y-72354819D01*
X158857142Y-72354819D02*
X158761904Y-72402438D01*
X158761904Y-72402438D02*
X158714285Y-72450057D01*
X158714285Y-72450057D02*
X158666666Y-72545295D01*
X158666666Y-72545295D02*
X158666666Y-72688152D01*
X158666666Y-72688152D02*
X158714285Y-72783390D01*
X158714285Y-72783390D02*
X158761904Y-72831009D01*
X158761904Y-72831009D02*
X158857142Y-72878628D01*
X158857142Y-72878628D02*
X159238094Y-72878628D01*
X157761904Y-72354819D02*
X158238094Y-72354819D01*
X158238094Y-72354819D02*
X158285713Y-72831009D01*
X158285713Y-72831009D02*
X158238094Y-72783390D01*
X158238094Y-72783390D02*
X158142856Y-72735771D01*
X158142856Y-72735771D02*
X157904761Y-72735771D01*
X157904761Y-72735771D02*
X157809523Y-72783390D01*
X157809523Y-72783390D02*
X157761904Y-72831009D01*
X157761904Y-72831009D02*
X157714285Y-72926247D01*
X157714285Y-72926247D02*
X157714285Y-73164342D01*
X157714285Y-73164342D02*
X157761904Y-73259580D01*
X157761904Y-73259580D02*
X157809523Y-73307200D01*
X157809523Y-73307200D02*
X157904761Y-73354819D01*
X157904761Y-73354819D02*
X158142856Y-73354819D01*
X158142856Y-73354819D02*
X158238094Y-73307200D01*
X158238094Y-73307200D02*
X158285713Y-73259580D01*
X131092857Y-55004819D02*
X131426190Y-54528628D01*
X131664285Y-55004819D02*
X131664285Y-54004819D01*
X131664285Y-54004819D02*
X131283333Y-54004819D01*
X131283333Y-54004819D02*
X131188095Y-54052438D01*
X131188095Y-54052438D02*
X131140476Y-54100057D01*
X131140476Y-54100057D02*
X131092857Y-54195295D01*
X131092857Y-54195295D02*
X131092857Y-54338152D01*
X131092857Y-54338152D02*
X131140476Y-54433390D01*
X131140476Y-54433390D02*
X131188095Y-54481009D01*
X131188095Y-54481009D02*
X131283333Y-54528628D01*
X131283333Y-54528628D02*
X131664285Y-54528628D01*
X130140476Y-55004819D02*
X130711904Y-55004819D01*
X130426190Y-55004819D02*
X130426190Y-54004819D01*
X130426190Y-54004819D02*
X130521428Y-54147676D01*
X130521428Y-54147676D02*
X130616666Y-54242914D01*
X130616666Y-54242914D02*
X130711904Y-54290533D01*
X129807142Y-54004819D02*
X129188095Y-54004819D01*
X129188095Y-54004819D02*
X129521428Y-54385771D01*
X129521428Y-54385771D02*
X129378571Y-54385771D01*
X129378571Y-54385771D02*
X129283333Y-54433390D01*
X129283333Y-54433390D02*
X129235714Y-54481009D01*
X129235714Y-54481009D02*
X129188095Y-54576247D01*
X129188095Y-54576247D02*
X129188095Y-54814342D01*
X129188095Y-54814342D02*
X129235714Y-54909580D01*
X129235714Y-54909580D02*
X129283333Y-54957200D01*
X129283333Y-54957200D02*
X129378571Y-55004819D01*
X129378571Y-55004819D02*
X129664285Y-55004819D01*
X129664285Y-55004819D02*
X129759523Y-54957200D01*
X129759523Y-54957200D02*
X129807142Y-54909580D01*
X162069183Y-78678169D02*
X162069183Y-79392454D01*
X162069183Y-79392454D02*
X162116802Y-79535311D01*
X162116802Y-79535311D02*
X162212040Y-79630550D01*
X162212040Y-79630550D02*
X162354897Y-79678169D01*
X162354897Y-79678169D02*
X162450135Y-79678169D01*
X161069183Y-79678169D02*
X161640611Y-79678169D01*
X161354897Y-79678169D02*
X161354897Y-78678169D01*
X161354897Y-78678169D02*
X161450135Y-78821026D01*
X161450135Y-78821026D02*
X161545373Y-78916264D01*
X161545373Y-78916264D02*
X161640611Y-78963883D01*
X181266666Y-97254819D02*
X181599999Y-96778628D01*
X181838094Y-97254819D02*
X181838094Y-96254819D01*
X181838094Y-96254819D02*
X181457142Y-96254819D01*
X181457142Y-96254819D02*
X181361904Y-96302438D01*
X181361904Y-96302438D02*
X181314285Y-96350057D01*
X181314285Y-96350057D02*
X181266666Y-96445295D01*
X181266666Y-96445295D02*
X181266666Y-96588152D01*
X181266666Y-96588152D02*
X181314285Y-96683390D01*
X181314285Y-96683390D02*
X181361904Y-96731009D01*
X181361904Y-96731009D02*
X181457142Y-96778628D01*
X181457142Y-96778628D02*
X181838094Y-96778628D01*
X180695237Y-96683390D02*
X180790475Y-96635771D01*
X180790475Y-96635771D02*
X180838094Y-96588152D01*
X180838094Y-96588152D02*
X180885713Y-96492914D01*
X180885713Y-96492914D02*
X180885713Y-96445295D01*
X180885713Y-96445295D02*
X180838094Y-96350057D01*
X180838094Y-96350057D02*
X180790475Y-96302438D01*
X180790475Y-96302438D02*
X180695237Y-96254819D01*
X180695237Y-96254819D02*
X180504761Y-96254819D01*
X180504761Y-96254819D02*
X180409523Y-96302438D01*
X180409523Y-96302438D02*
X180361904Y-96350057D01*
X180361904Y-96350057D02*
X180314285Y-96445295D01*
X180314285Y-96445295D02*
X180314285Y-96492914D01*
X180314285Y-96492914D02*
X180361904Y-96588152D01*
X180361904Y-96588152D02*
X180409523Y-96635771D01*
X180409523Y-96635771D02*
X180504761Y-96683390D01*
X180504761Y-96683390D02*
X180695237Y-96683390D01*
X180695237Y-96683390D02*
X180790475Y-96731009D01*
X180790475Y-96731009D02*
X180838094Y-96778628D01*
X180838094Y-96778628D02*
X180885713Y-96873866D01*
X180885713Y-96873866D02*
X180885713Y-97064342D01*
X180885713Y-97064342D02*
X180838094Y-97159580D01*
X180838094Y-97159580D02*
X180790475Y-97207200D01*
X180790475Y-97207200D02*
X180695237Y-97254819D01*
X180695237Y-97254819D02*
X180504761Y-97254819D01*
X180504761Y-97254819D02*
X180409523Y-97207200D01*
X180409523Y-97207200D02*
X180361904Y-97159580D01*
X180361904Y-97159580D02*
X180314285Y-97064342D01*
X180314285Y-97064342D02*
X180314285Y-96873866D01*
X180314285Y-96873866D02*
X180361904Y-96778628D01*
X180361904Y-96778628D02*
X180409523Y-96731009D01*
X180409523Y-96731009D02*
X180504761Y-96683390D01*
X133964285Y-49954819D02*
X133964285Y-48954819D01*
X133964285Y-48954819D02*
X133726190Y-48954819D01*
X133726190Y-48954819D02*
X133583333Y-49002438D01*
X133583333Y-49002438D02*
X133488095Y-49097676D01*
X133488095Y-49097676D02*
X133440476Y-49192914D01*
X133440476Y-49192914D02*
X133392857Y-49383390D01*
X133392857Y-49383390D02*
X133392857Y-49526247D01*
X133392857Y-49526247D02*
X133440476Y-49716723D01*
X133440476Y-49716723D02*
X133488095Y-49811961D01*
X133488095Y-49811961D02*
X133583333Y-49907200D01*
X133583333Y-49907200D02*
X133726190Y-49954819D01*
X133726190Y-49954819D02*
X133964285Y-49954819D01*
X132440476Y-49954819D02*
X133011904Y-49954819D01*
X132726190Y-49954819D02*
X132726190Y-48954819D01*
X132726190Y-48954819D02*
X132821428Y-49097676D01*
X132821428Y-49097676D02*
X132916666Y-49192914D01*
X132916666Y-49192914D02*
X133011904Y-49240533D01*
X132107142Y-48954819D02*
X131488095Y-48954819D01*
X131488095Y-48954819D02*
X131821428Y-49335771D01*
X131821428Y-49335771D02*
X131678571Y-49335771D01*
X131678571Y-49335771D02*
X131583333Y-49383390D01*
X131583333Y-49383390D02*
X131535714Y-49431009D01*
X131535714Y-49431009D02*
X131488095Y-49526247D01*
X131488095Y-49526247D02*
X131488095Y-49764342D01*
X131488095Y-49764342D02*
X131535714Y-49859580D01*
X131535714Y-49859580D02*
X131583333Y-49907200D01*
X131583333Y-49907200D02*
X131678571Y-49954819D01*
X131678571Y-49954819D02*
X131964285Y-49954819D01*
X131964285Y-49954819D02*
X132059523Y-49907200D01*
X132059523Y-49907200D02*
X132107142Y-49859580D01*
X128195000Y-51305180D02*
X128195000Y-51067085D01*
X127956905Y-51162323D02*
X128195000Y-51067085D01*
X128195000Y-51067085D02*
X128433095Y-51162323D01*
X128052143Y-50876609D02*
X128195000Y-51067085D01*
X128195000Y-51067085D02*
X128337857Y-50876609D01*
X128195000Y-51305180D02*
X128195000Y-51067085D01*
X127956905Y-51162323D02*
X128195000Y-51067085D01*
X128195000Y-51067085D02*
X128433095Y-51162323D01*
X128052143Y-50876609D02*
X128195000Y-51067085D01*
X128195000Y-51067085D02*
X128337857Y-50876609D01*
X147645238Y-85302257D02*
X147740476Y-85254638D01*
X147740476Y-85254638D02*
X147835714Y-85159400D01*
X147835714Y-85159400D02*
X147978571Y-85016542D01*
X147978571Y-85016542D02*
X148073809Y-84968923D01*
X148073809Y-84968923D02*
X148169047Y-84968923D01*
X148121428Y-85207019D02*
X148216666Y-85159400D01*
X148216666Y-85159400D02*
X148311904Y-85064161D01*
X148311904Y-85064161D02*
X148359523Y-84873685D01*
X148359523Y-84873685D02*
X148359523Y-84540352D01*
X148359523Y-84540352D02*
X148311904Y-84349876D01*
X148311904Y-84349876D02*
X148216666Y-84254638D01*
X148216666Y-84254638D02*
X148121428Y-84207019D01*
X148121428Y-84207019D02*
X147930952Y-84207019D01*
X147930952Y-84207019D02*
X147835714Y-84254638D01*
X147835714Y-84254638D02*
X147740476Y-84349876D01*
X147740476Y-84349876D02*
X147692857Y-84540352D01*
X147692857Y-84540352D02*
X147692857Y-84873685D01*
X147692857Y-84873685D02*
X147740476Y-85064161D01*
X147740476Y-85064161D02*
X147835714Y-85159400D01*
X147835714Y-85159400D02*
X147930952Y-85207019D01*
X147930952Y-85207019D02*
X148121428Y-85207019D01*
X146835714Y-84207019D02*
X147026190Y-84207019D01*
X147026190Y-84207019D02*
X147121428Y-84254638D01*
X147121428Y-84254638D02*
X147169047Y-84302257D01*
X147169047Y-84302257D02*
X147264285Y-84445114D01*
X147264285Y-84445114D02*
X147311904Y-84635590D01*
X147311904Y-84635590D02*
X147311904Y-85016542D01*
X147311904Y-85016542D02*
X147264285Y-85111780D01*
X147264285Y-85111780D02*
X147216666Y-85159400D01*
X147216666Y-85159400D02*
X147121428Y-85207019D01*
X147121428Y-85207019D02*
X146930952Y-85207019D01*
X146930952Y-85207019D02*
X146835714Y-85159400D01*
X146835714Y-85159400D02*
X146788095Y-85111780D01*
X146788095Y-85111780D02*
X146740476Y-85016542D01*
X146740476Y-85016542D02*
X146740476Y-84778447D01*
X146740476Y-84778447D02*
X146788095Y-84683209D01*
X146788095Y-84683209D02*
X146835714Y-84635590D01*
X146835714Y-84635590D02*
X146930952Y-84587971D01*
X146930952Y-84587971D02*
X147121428Y-84587971D01*
X147121428Y-84587971D02*
X147216666Y-84635590D01*
X147216666Y-84635590D02*
X147264285Y-84683209D01*
X147264285Y-84683209D02*
X147311904Y-84778447D01*
X151359999Y-92081019D02*
X151359999Y-92319114D01*
X151598094Y-92223876D02*
X151359999Y-92319114D01*
X151359999Y-92319114D02*
X151121904Y-92223876D01*
X151502856Y-92509590D02*
X151359999Y-92319114D01*
X151359999Y-92319114D02*
X151217142Y-92509590D01*
X151359999Y-92081019D02*
X151359999Y-92319114D01*
X151598094Y-92223876D02*
X151359999Y-92319114D01*
X151359999Y-92319114D02*
X151121904Y-92223876D01*
X151502856Y-92509590D02*
X151359999Y-92319114D01*
X151359999Y-92319114D02*
X151217142Y-92509590D01*
X136138094Y-85004819D02*
X136138094Y-84004819D01*
X136138094Y-84004819D02*
X135899999Y-84004819D01*
X135899999Y-84004819D02*
X135757142Y-84052438D01*
X135757142Y-84052438D02*
X135661904Y-84147676D01*
X135661904Y-84147676D02*
X135614285Y-84242914D01*
X135614285Y-84242914D02*
X135566666Y-84433390D01*
X135566666Y-84433390D02*
X135566666Y-84576247D01*
X135566666Y-84576247D02*
X135614285Y-84766723D01*
X135614285Y-84766723D02*
X135661904Y-84861961D01*
X135661904Y-84861961D02*
X135757142Y-84957200D01*
X135757142Y-84957200D02*
X135899999Y-85004819D01*
X135899999Y-85004819D02*
X136138094Y-85004819D01*
X135233332Y-84004819D02*
X134566666Y-84004819D01*
X134566666Y-84004819D02*
X134995237Y-85004819D01*
X176745238Y-85250057D02*
X176840476Y-85202438D01*
X176840476Y-85202438D02*
X176935714Y-85107200D01*
X176935714Y-85107200D02*
X177078571Y-84964342D01*
X177078571Y-84964342D02*
X177173809Y-84916723D01*
X177173809Y-84916723D02*
X177269047Y-84916723D01*
X177221428Y-85154819D02*
X177316666Y-85107200D01*
X177316666Y-85107200D02*
X177411904Y-85011961D01*
X177411904Y-85011961D02*
X177459523Y-84821485D01*
X177459523Y-84821485D02*
X177459523Y-84488152D01*
X177459523Y-84488152D02*
X177411904Y-84297676D01*
X177411904Y-84297676D02*
X177316666Y-84202438D01*
X177316666Y-84202438D02*
X177221428Y-84154819D01*
X177221428Y-84154819D02*
X177030952Y-84154819D01*
X177030952Y-84154819D02*
X176935714Y-84202438D01*
X176935714Y-84202438D02*
X176840476Y-84297676D01*
X176840476Y-84297676D02*
X176792857Y-84488152D01*
X176792857Y-84488152D02*
X176792857Y-84821485D01*
X176792857Y-84821485D02*
X176840476Y-85011961D01*
X176840476Y-85011961D02*
X176935714Y-85107200D01*
X176935714Y-85107200D02*
X177030952Y-85154819D01*
X177030952Y-85154819D02*
X177221428Y-85154819D01*
X176221428Y-84583390D02*
X176316666Y-84535771D01*
X176316666Y-84535771D02*
X176364285Y-84488152D01*
X176364285Y-84488152D02*
X176411904Y-84392914D01*
X176411904Y-84392914D02*
X176411904Y-84345295D01*
X176411904Y-84345295D02*
X176364285Y-84250057D01*
X176364285Y-84250057D02*
X176316666Y-84202438D01*
X176316666Y-84202438D02*
X176221428Y-84154819D01*
X176221428Y-84154819D02*
X176030952Y-84154819D01*
X176030952Y-84154819D02*
X175935714Y-84202438D01*
X175935714Y-84202438D02*
X175888095Y-84250057D01*
X175888095Y-84250057D02*
X175840476Y-84345295D01*
X175840476Y-84345295D02*
X175840476Y-84392914D01*
X175840476Y-84392914D02*
X175888095Y-84488152D01*
X175888095Y-84488152D02*
X175935714Y-84535771D01*
X175935714Y-84535771D02*
X176030952Y-84583390D01*
X176030952Y-84583390D02*
X176221428Y-84583390D01*
X176221428Y-84583390D02*
X176316666Y-84631009D01*
X176316666Y-84631009D02*
X176364285Y-84678628D01*
X176364285Y-84678628D02*
X176411904Y-84773866D01*
X176411904Y-84773866D02*
X176411904Y-84964342D01*
X176411904Y-84964342D02*
X176364285Y-85059580D01*
X176364285Y-85059580D02*
X176316666Y-85107200D01*
X176316666Y-85107200D02*
X176221428Y-85154819D01*
X176221428Y-85154819D02*
X176030952Y-85154819D01*
X176030952Y-85154819D02*
X175935714Y-85107200D01*
X175935714Y-85107200D02*
X175888095Y-85059580D01*
X175888095Y-85059580D02*
X175840476Y-84964342D01*
X175840476Y-84964342D02*
X175840476Y-84773866D01*
X175840476Y-84773866D02*
X175888095Y-84678628D01*
X175888095Y-84678628D02*
X175935714Y-84631009D01*
X175935714Y-84631009D02*
X176030952Y-84583390D01*
X180459999Y-92028819D02*
X180459999Y-92266914D01*
X180698094Y-92171676D02*
X180459999Y-92266914D01*
X180459999Y-92266914D02*
X180221904Y-92171676D01*
X180602856Y-92457390D02*
X180459999Y-92266914D01*
X180459999Y-92266914D02*
X180317142Y-92457390D01*
X180459999Y-92028819D02*
X180459999Y-92266914D01*
X180698094Y-92171676D02*
X180459999Y-92266914D01*
X180459999Y-92266914D02*
X180221904Y-92171676D01*
X180602856Y-92457390D02*
X180459999Y-92266914D01*
X180459999Y-92266914D02*
X180317142Y-92457390D01*
X164788094Y-71704819D02*
X164788094Y-70704819D01*
X164788094Y-70704819D02*
X164549999Y-70704819D01*
X164549999Y-70704819D02*
X164407142Y-70752438D01*
X164407142Y-70752438D02*
X164311904Y-70847676D01*
X164311904Y-70847676D02*
X164264285Y-70942914D01*
X164264285Y-70942914D02*
X164216666Y-71133390D01*
X164216666Y-71133390D02*
X164216666Y-71276247D01*
X164216666Y-71276247D02*
X164264285Y-71466723D01*
X164264285Y-71466723D02*
X164311904Y-71561961D01*
X164311904Y-71561961D02*
X164407142Y-71657200D01*
X164407142Y-71657200D02*
X164549999Y-71704819D01*
X164549999Y-71704819D02*
X164788094Y-71704819D01*
X163645237Y-71133390D02*
X163740475Y-71085771D01*
X163740475Y-71085771D02*
X163788094Y-71038152D01*
X163788094Y-71038152D02*
X163835713Y-70942914D01*
X163835713Y-70942914D02*
X163835713Y-70895295D01*
X163835713Y-70895295D02*
X163788094Y-70800057D01*
X163788094Y-70800057D02*
X163740475Y-70752438D01*
X163740475Y-70752438D02*
X163645237Y-70704819D01*
X163645237Y-70704819D02*
X163454761Y-70704819D01*
X163454761Y-70704819D02*
X163359523Y-70752438D01*
X163359523Y-70752438D02*
X163311904Y-70800057D01*
X163311904Y-70800057D02*
X163264285Y-70895295D01*
X163264285Y-70895295D02*
X163264285Y-70942914D01*
X163264285Y-70942914D02*
X163311904Y-71038152D01*
X163311904Y-71038152D02*
X163359523Y-71085771D01*
X163359523Y-71085771D02*
X163454761Y-71133390D01*
X163454761Y-71133390D02*
X163645237Y-71133390D01*
X163645237Y-71133390D02*
X163740475Y-71181009D01*
X163740475Y-71181009D02*
X163788094Y-71228628D01*
X163788094Y-71228628D02*
X163835713Y-71323866D01*
X163835713Y-71323866D02*
X163835713Y-71514342D01*
X163835713Y-71514342D02*
X163788094Y-71609580D01*
X163788094Y-71609580D02*
X163740475Y-71657200D01*
X163740475Y-71657200D02*
X163645237Y-71704819D01*
X163645237Y-71704819D02*
X163454761Y-71704819D01*
X163454761Y-71704819D02*
X163359523Y-71657200D01*
X163359523Y-71657200D02*
X163311904Y-71609580D01*
X163311904Y-71609580D02*
X163264285Y-71514342D01*
X163264285Y-71514342D02*
X163264285Y-71323866D01*
X163264285Y-71323866D02*
X163311904Y-71228628D01*
X163311904Y-71228628D02*
X163359523Y-71181009D01*
X163359523Y-71181009D02*
X163454761Y-71133390D01*
X170166666Y-73854819D02*
X170499999Y-73378628D01*
X170738094Y-73854819D02*
X170738094Y-72854819D01*
X170738094Y-72854819D02*
X170357142Y-72854819D01*
X170357142Y-72854819D02*
X170261904Y-72902438D01*
X170261904Y-72902438D02*
X170214285Y-72950057D01*
X170214285Y-72950057D02*
X170166666Y-73045295D01*
X170166666Y-73045295D02*
X170166666Y-73188152D01*
X170166666Y-73188152D02*
X170214285Y-73283390D01*
X170214285Y-73283390D02*
X170261904Y-73331009D01*
X170261904Y-73331009D02*
X170357142Y-73378628D01*
X170357142Y-73378628D02*
X170738094Y-73378628D01*
X169833332Y-72854819D02*
X169166666Y-72854819D01*
X169166666Y-72854819D02*
X169595237Y-73854819D01*
X154235988Y-61268007D02*
X154331226Y-61220388D01*
X154331226Y-61220388D02*
X154426464Y-61125150D01*
X154426464Y-61125150D02*
X154569321Y-60982292D01*
X154569321Y-60982292D02*
X154664559Y-60934673D01*
X154664559Y-60934673D02*
X154759797Y-60934673D01*
X154712178Y-61172769D02*
X154807416Y-61125150D01*
X154807416Y-61125150D02*
X154902654Y-61029911D01*
X154902654Y-61029911D02*
X154950273Y-60839435D01*
X154950273Y-60839435D02*
X154950273Y-60506102D01*
X154950273Y-60506102D02*
X154902654Y-60315626D01*
X154902654Y-60315626D02*
X154807416Y-60220388D01*
X154807416Y-60220388D02*
X154712178Y-60172769D01*
X154712178Y-60172769D02*
X154521702Y-60172769D01*
X154521702Y-60172769D02*
X154426464Y-60220388D01*
X154426464Y-60220388D02*
X154331226Y-60315626D01*
X154331226Y-60315626D02*
X154283607Y-60506102D01*
X154283607Y-60506102D02*
X154283607Y-60839435D01*
X154283607Y-60839435D02*
X154331226Y-61029911D01*
X154331226Y-61029911D02*
X154426464Y-61125150D01*
X154426464Y-61125150D02*
X154521702Y-61172769D01*
X154521702Y-61172769D02*
X154712178Y-61172769D01*
X153378845Y-60172769D02*
X153855035Y-60172769D01*
X153855035Y-60172769D02*
X153902654Y-60648959D01*
X153902654Y-60648959D02*
X153855035Y-60601340D01*
X153855035Y-60601340D02*
X153759797Y-60553721D01*
X153759797Y-60553721D02*
X153521702Y-60553721D01*
X153521702Y-60553721D02*
X153426464Y-60601340D01*
X153426464Y-60601340D02*
X153378845Y-60648959D01*
X153378845Y-60648959D02*
X153331226Y-60744197D01*
X153331226Y-60744197D02*
X153331226Y-60982292D01*
X153331226Y-60982292D02*
X153378845Y-61077530D01*
X153378845Y-61077530D02*
X153426464Y-61125150D01*
X153426464Y-61125150D02*
X153521702Y-61172769D01*
X153521702Y-61172769D02*
X153759797Y-61172769D01*
X153759797Y-61172769D02*
X153855035Y-61125150D01*
X153855035Y-61125150D02*
X153902654Y-61077530D01*
X157950749Y-68046769D02*
X157950749Y-68284864D01*
X158188844Y-68189626D02*
X157950749Y-68284864D01*
X157950749Y-68284864D02*
X157712654Y-68189626D01*
X158093606Y-68475340D02*
X157950749Y-68284864D01*
X157950749Y-68284864D02*
X157807892Y-68475340D01*
X157950749Y-68046769D02*
X157950749Y-68284864D01*
X158188844Y-68189626D02*
X157950749Y-68284864D01*
X157950749Y-68284864D02*
X157712654Y-68189626D01*
X158093606Y-68475340D02*
X157950749Y-68284864D01*
X157950749Y-68284864D02*
X157807892Y-68475340D01*
X169245238Y-61850057D02*
X169340476Y-61802438D01*
X169340476Y-61802438D02*
X169435714Y-61707200D01*
X169435714Y-61707200D02*
X169578571Y-61564342D01*
X169578571Y-61564342D02*
X169673809Y-61516723D01*
X169673809Y-61516723D02*
X169769047Y-61516723D01*
X169721428Y-61754819D02*
X169816666Y-61707200D01*
X169816666Y-61707200D02*
X169911904Y-61611961D01*
X169911904Y-61611961D02*
X169959523Y-61421485D01*
X169959523Y-61421485D02*
X169959523Y-61088152D01*
X169959523Y-61088152D02*
X169911904Y-60897676D01*
X169911904Y-60897676D02*
X169816666Y-60802438D01*
X169816666Y-60802438D02*
X169721428Y-60754819D01*
X169721428Y-60754819D02*
X169530952Y-60754819D01*
X169530952Y-60754819D02*
X169435714Y-60802438D01*
X169435714Y-60802438D02*
X169340476Y-60897676D01*
X169340476Y-60897676D02*
X169292857Y-61088152D01*
X169292857Y-61088152D02*
X169292857Y-61421485D01*
X169292857Y-61421485D02*
X169340476Y-61611961D01*
X169340476Y-61611961D02*
X169435714Y-61707200D01*
X169435714Y-61707200D02*
X169530952Y-61754819D01*
X169530952Y-61754819D02*
X169721428Y-61754819D01*
X168959523Y-60754819D02*
X168292857Y-60754819D01*
X168292857Y-60754819D02*
X168721428Y-61754819D01*
X172959999Y-68628819D02*
X172959999Y-68866914D01*
X173198094Y-68771676D02*
X172959999Y-68866914D01*
X172959999Y-68866914D02*
X172721904Y-68771676D01*
X173102856Y-69057390D02*
X172959999Y-68866914D01*
X172959999Y-68866914D02*
X172817142Y-69057390D01*
X172959999Y-68628819D02*
X172959999Y-68866914D01*
X173198094Y-68771676D02*
X172959999Y-68866914D01*
X172959999Y-68866914D02*
X172721904Y-68771676D01*
X173102856Y-69057390D02*
X172959999Y-68866914D01*
X172959999Y-68866914D02*
X172817142Y-69057390D01*
X149538094Y-71804819D02*
X149538094Y-70804819D01*
X149538094Y-70804819D02*
X149299999Y-70804819D01*
X149299999Y-70804819D02*
X149157142Y-70852438D01*
X149157142Y-70852438D02*
X149061904Y-70947676D01*
X149061904Y-70947676D02*
X149014285Y-71042914D01*
X149014285Y-71042914D02*
X148966666Y-71233390D01*
X148966666Y-71233390D02*
X148966666Y-71376247D01*
X148966666Y-71376247D02*
X149014285Y-71566723D01*
X149014285Y-71566723D02*
X149061904Y-71661961D01*
X149061904Y-71661961D02*
X149157142Y-71757200D01*
X149157142Y-71757200D02*
X149299999Y-71804819D01*
X149299999Y-71804819D02*
X149538094Y-71804819D01*
X148109523Y-70804819D02*
X148299999Y-70804819D01*
X148299999Y-70804819D02*
X148395237Y-70852438D01*
X148395237Y-70852438D02*
X148442856Y-70900057D01*
X148442856Y-70900057D02*
X148538094Y-71042914D01*
X148538094Y-71042914D02*
X148585713Y-71233390D01*
X148585713Y-71233390D02*
X148585713Y-71614342D01*
X148585713Y-71614342D02*
X148538094Y-71709580D01*
X148538094Y-71709580D02*
X148490475Y-71757200D01*
X148490475Y-71757200D02*
X148395237Y-71804819D01*
X148395237Y-71804819D02*
X148204761Y-71804819D01*
X148204761Y-71804819D02*
X148109523Y-71757200D01*
X148109523Y-71757200D02*
X148061904Y-71709580D01*
X148061904Y-71709580D02*
X148014285Y-71614342D01*
X148014285Y-71614342D02*
X148014285Y-71376247D01*
X148014285Y-71376247D02*
X148061904Y-71281009D01*
X148061904Y-71281009D02*
X148109523Y-71233390D01*
X148109523Y-71233390D02*
X148204761Y-71185771D01*
X148204761Y-71185771D02*
X148395237Y-71185771D01*
X148395237Y-71185771D02*
X148490475Y-71233390D01*
X148490475Y-71233390D02*
X148538094Y-71281009D01*
X148538094Y-71281009D02*
X148585713Y-71376247D01*
D12*
%TO.C,D9*%
X183900000Y-82350000D02*
X183900000Y-83000000D01*
X183900000Y-83650000D02*
X183900000Y-83000000D01*
X187200000Y-82350000D02*
X187200000Y-83000000D01*
X187200000Y-84675000D02*
X187200000Y-83000000D01*
%TO.C,R6*%
X149577500Y-96412742D02*
X149577500Y-96887258D01*
X150622500Y-96412742D02*
X150622500Y-96887258D01*
%TO.C,R5*%
X156127500Y-72612742D02*
X156127500Y-73087258D01*
X157172500Y-72612742D02*
X157172500Y-73087258D01*
%TO.C,R13*%
X129939858Y-52387500D02*
X129465342Y-52387500D01*
X129939858Y-53432500D02*
X129465342Y-53432500D01*
D13*
%TO.C,J1*%
X156655850Y-77746350D02*
X156658649Y-80467950D01*
X156658649Y-80467950D02*
X166818649Y-80467950D01*
X166815850Y-77746350D02*
X156655850Y-77746350D01*
X166818649Y-80467950D02*
X166815850Y-77746350D01*
D14*
X168974850Y-79223350D02*
G75*
G02*
X168212850Y-79223350I-381000J0D01*
G01*
X168212850Y-79223350D02*
G75*
G02*
X168974850Y-79223350I381000J0D01*
G01*
D12*
%TO.C,R8*%
X178727500Y-96475442D02*
X178727500Y-96949958D01*
X179772500Y-96475442D02*
X179772500Y-96949958D01*
D13*
%TO.C,D13*%
X129071300Y-49934500D02*
X129071300Y-50249460D01*
X129071300Y-51270540D02*
X129071300Y-51585500D01*
X129071300Y-51585500D02*
X131128700Y-51585500D01*
X131128700Y-49934500D02*
X129071300Y-49934500D01*
X131128700Y-50249460D02*
X131128700Y-49934500D01*
X131128700Y-51585500D02*
X131128700Y-51270540D01*
%TO.C,Q6*%
X142089000Y-85754849D02*
X142089000Y-89705200D01*
X142089000Y-89705200D02*
X146724500Y-89705200D01*
X146724500Y-89705200D02*
X146724500Y-91483200D01*
X146724500Y-91483200D02*
X148375500Y-91483200D01*
X148375500Y-89705200D02*
X153011000Y-89705200D01*
X148375500Y-91483200D02*
X148375500Y-89705200D01*
X153011000Y-89705200D02*
X153011000Y-85754849D01*
D12*
%TO.C,D7*%
X136650000Y-82825000D02*
X136650000Y-84500000D01*
X136650000Y-85150000D02*
X136650000Y-84500000D01*
X139950000Y-83850000D02*
X139950000Y-84500000D01*
X139950000Y-85150000D02*
X139950000Y-84500000D01*
D13*
%TO.C,Q8*%
X171189000Y-85702649D02*
X171189000Y-89653000D01*
X171189000Y-89653000D02*
X175824500Y-89653000D01*
X175824500Y-89653000D02*
X175824500Y-91431000D01*
X175824500Y-91431000D02*
X177475500Y-91431000D01*
X177475500Y-89653000D02*
X182111000Y-89653000D01*
X177475500Y-91431000D02*
X177475500Y-89653000D01*
X182111000Y-89653000D02*
X182111000Y-85702649D01*
D12*
%TO.C,D8*%
X161790750Y-67960750D02*
X161790750Y-68610750D01*
X161790750Y-69260750D02*
X161790750Y-68610750D01*
X165090750Y-67960750D02*
X165090750Y-68610750D01*
X165090750Y-70285750D02*
X165090750Y-68610750D01*
%TO.C,R7*%
X171177500Y-73487258D02*
X171177500Y-73012742D01*
X172222500Y-73487258D02*
X172222500Y-73012742D01*
D13*
%TO.C,Q5*%
X148679750Y-61720599D02*
X148679750Y-65670950D01*
X148679750Y-65670950D02*
X153315250Y-65670950D01*
X153315250Y-65670950D02*
X153315250Y-67448950D01*
X153315250Y-67448950D02*
X154966250Y-67448950D01*
X154966250Y-65670950D02*
X159601750Y-65670950D01*
X154966250Y-67448950D02*
X154966250Y-65670950D01*
X159601750Y-65670950D02*
X159601750Y-61720599D01*
%TO.C,Q7*%
X163689000Y-62302649D02*
X163689000Y-66253000D01*
X163689000Y-66253000D02*
X168324500Y-66253000D01*
X168324500Y-66253000D02*
X168324500Y-68031000D01*
X168324500Y-68031000D02*
X169975500Y-68031000D01*
X169975500Y-66253000D02*
X174611000Y-66253000D01*
X169975500Y-68031000D02*
X169975500Y-66253000D01*
X174611000Y-66253000D02*
X174611000Y-62302649D01*
D12*
%TO.C,D6*%
X146190750Y-67990750D02*
X146190750Y-68640750D01*
X146190750Y-69290750D02*
X146190750Y-68640750D01*
X149490750Y-67990750D02*
X149490750Y-68640750D01*
X149490750Y-70315750D02*
X149490750Y-68640750D01*
%TD*%
M02*
